<svg xmlns="http://www.w3.org/2000/svg" width="50.375" height="50.375" viewBox="0 0 50.375 50.375"><defs><style>.a,.c{fill:#fff;}.a{stroke:#202020;stroke-miterlimit:10;stroke-width:0.75px;opacity:0;}.b{fill:#f3f8ff;fill-rule:evenodd;}.d{fill:#202020;}.e{fill:#2d82f7;}.f{fill:#ff7e94;}</style></defs><g transform="translate(0 0.375)"><path class="a" d="M0,0H50V50"/><path class="a" d="M0,0H50V50"/><g transform="translate(5.586 7.153)"><path class="b" d="M28.565,11.444c-8.031,0-20.967,9.2-19.515,18.6s10.7,14.216,19.515,14.216,17.022-5.242,17.022-14.273S36.6,11.444,28.565,11.444Z" transform="translate(-8.937 -11.444)"/><rect class="c" width="29.375" height="23.125" rx="3.303" transform="translate(5.039 5.972)"/><g transform="translate(4.692 5.972)"><path class="d" d="M63.171,54.328c-.036-.171-.1-.368-.166-.257.071.169.041.21.126.392.009.145-.024.253-.051.229.019.051-.016.226.03.3a1.468,1.468,0,0,0,.012-.678C63.139,54.264,63.158,54.316,63.171,54.328Z" transform="translate(-33.904 -33.39)"/><path class="d" d="M62.986,51.371a.834.834,0,0,0,.019.128L63,51.379Z" transform="translate(-33.897 -32.389)"/><path class="d" d="M59.1,57.914c0,.005,0,.007,0,.011C59.113,57.919,59.119,57.915,59.1,57.914Z" transform="translate(-32.438 -34.843)"/><path class="d" d="M63,51.174v-.122A1.069,1.069,0,0,0,63,51.174Z" transform="translate(-33.901 -32.269)"/><path class="d" d="M46.7,57.963a.4.4,0,0,1,.118.056C46.782,57.974,47.157,57.958,46.7,57.963Z" transform="translate(-27.791 -34.861)"/><path class="d" d="M63.026,51.323A.113.113,0,0,1,63,51.247l0,.085C63.012,51.34,63.021,51.341,63.026,51.323Z" transform="translate(-33.902 -32.343)"/><path class="d" d="M36.661,22.605l-.4-.009C36.37,22.6,36.517,22.605,36.661,22.605Z" transform="translate(-23.874 -21.598)"/><path class="d" d="M34.169,22.585a1.218,1.218,0,0,0-.228-.044.226.226,0,0,0-.047.016Z" transform="translate(-22.987 -21.578)"/><path class="d" d="M19.031,57.741l-.006.015.054.011Z" transform="translate(-17.411 -34.778)"/><path class="d" d="M63.085,38.641a.142.142,0,0,0-.016.055A.194.194,0,0,0,63.085,38.641Z" transform="translate(-33.928 -27.615)"/><path class="d" d="M63.058,41.524l-.022.255C63.049,41.668,63.055,41.588,63.058,41.524Z" transform="translate(-33.916 -28.696)"/><path class="d" d="M63.022,43.741a.07.07,0,0,0,.027.027v0Z" transform="translate(-33.91 -29.528)"/><path class="d" d="M48.616,22.492l-.054,0C48.437,22.507,48.522,22.5,48.616,22.492Z" transform="translate(-28.465 -21.559)"/><path class="d" d="M59.047,22.257c-.069.011-.138.022-.211.03C58.953,22.291,59.043,22.293,59.047,22.257Z" transform="translate(-32.341 -21.471)"/><path class="d" d="M36.949,22.612h0Z" transform="translate(-24.116 -21.604)"/><path class="d" d="M58.348,22.3a1.509,1.509,0,0,0,.305,0A2.257,2.257,0,0,0,58.348,22.3Z" transform="translate(-32.158 -21.486)"/><path class="d" d="M62.973,53.414s.007,0,.01.007l-.007-.074Z" transform="translate(-33.892 -33.13)"/><path class="d" d="M63,53.54a.193.193,0,0,0-.007-.074Z" transform="translate(-33.898 -33.175)"/><path class="d" d="M63,53.585a.4.4,0,0,0,.016.156Z" transform="translate(-33.902 -33.219)"/><path class="d" d="M62.991,49.521a3.837,3.837,0,0,0-.034.519l.018.018C62.941,49.97,63.029,49.647,62.991,49.521Z" transform="translate(-33.885 -31.695)"/><path class="d" d="M62.9,23.653a1.208,1.208,0,0,1,.017.169c.022.021.049.042.069.066A1.448,1.448,0,0,0,62.9,23.653Z" transform="translate(-33.863 -21.995)"/><path class="d" d="M62.116,21.8c.167.057.367.161.321.028a1.445,1.445,0,0,0-.423-.134c-.138-.062-.236-.127-.2-.144-.056,0-.23-.09-.322-.056.188.091.413.168.661.269C62.191,21.81,62.133,21.8,62.116,21.8Z" transform="translate(-33.336 -21.183)"/><path class="d" d="M64.118,24.655a.855.855,0,0,0-.019-.131l.007.122Z" transform="translate(-34.314 -22.321)"/><path class="d" d="M55.334,21.1s0,.007,0,.011C55.353,21.1,55.358,21.1,55.334,21.1Z" transform="translate(-31.027 -21.037)"/><path class="d" d="M64.116,24.859v.124A.976.976,0,0,0,64.116,24.859Z" transform="translate(-34.321 -22.447)"/><path class="d" d="M42.682,21.147a.424.424,0,0,1,.12.056C42.762,21.159,43.145,21.143,42.682,21.147Z" transform="translate(-26.283 -21.055)"/><path class="d" d="M64.073,24.726a.11.11,0,0,1,.027.077l0-.087C64.087,24.709,64.079,24.707,64.073,24.726Z" transform="translate(-34.305 -22.392)"/><path class="d" d="M40.737,59.42l-.413-.009C40.44,59.417,40.59,59.42,40.737,59.42Z" transform="translate(-25.399 -35.404)"/><path class="d" d="M38.192,59.4a1.261,1.261,0,0,0-.233-.043.216.216,0,0,0-.048.016Z" transform="translate(-24.494 -35.384)"/><path class="d" d="M63.439,57.777h0Z" transform="translate(-34.067 -34.791)"/><path class="d" d="M46.276,27.019c-.017-.3-.038.071-.065.046-.074-.458.09-1.077-.012-1.736-.039-.522-.1-.657-.142-1.085V24.1c.032-.084.069.179.069.179a3.52,3.52,0,0,0,0-.774c.019.055.035,0,.059-.084-.009-.221-.071-.138-.056-.439a.8.8,0,0,1,.1.224,2.05,2.05,0,0,0-.228-.79c0-.084.121.136.164.232a1.353,1.353,0,0,0-.519-.759,1.314,1.314,0,0,1,.109.166c-.069-.088.006-.079.066-.016.2.2.173.354.162.371-.033-.057-.063-.115-.1-.169a1.9,1.9,0,0,0,.149.488,1.909,1.909,0,0,1,.1.64l-.076-.129v-.094a1.787,1.787,0,0,0-1.786-1.786h-.037a.337.337,0,0,0,.05-.1.4.4,0,0,0,.119.015.951.951,0,0,1,.119-.063c-.084-.007-.167,0-.251,0l0,0c-.035-.044-.141-.084-.415-.117l-.419.063-.136-.05.353,0a.94.94,0,0,0-.469.023.36.36,0,0,0-.176-.056l-.412.1c-.05-.041.184-.081-.092-.1-.193.046.185.091-.134.121-.2-.047-.142-.086-.377-.045-.033-.027.017-.044.11-.056a4.382,4.382,0,0,0-.663.069c-.209-.058-.708.015-.687-.083a2.864,2.864,0,0,1-.562.081c.352-.118-.721-.007-.628-.133a10.552,10.552,0,0,1-1.4.106.293.293,0,0,1,.117-.02,3.761,3.761,0,0,1-.5-.061c-.033.088-.437.108-.656.161-.318-.084.194-.1.094-.184.016.071-.553.071-.445.13-.243-.052-.209-.026-.335-.1-.042.109-.226.019-.428.086-.353-.054-.091-.1-.477-.069-.184-.034.16-.073.16-.073-.394,0-.185.081-.269.128-.47.023-.218-.061-.377-.1-.294.022-.519.1-.738.094-.017-.014-.059-.018-.009-.036-.311.066-.921,0-1.283.086a.11.11,0,0,1-.047-.021c.058.042.068.084.056.114-.177,0-.328.052-.394,0a.319.319,0,0,0,.168-.038l-.186.024c-.166-.078.253-.027.253-.084a8.9,8.9,0,0,1-1.058.067c-.058-.076.647-.026.278-.092l.428.029c-.327-.119.26.008-.041-.119-.563-.022-.63.038-1.191.016-.126.042.042.063-.085.1-.8.076-.628-.191-1.215-.089a.915.915,0,0,1-.629.1l.142-.086c-.545-.009-.311.123-.882.066.1-.034.428-.029.346-.039-.369-.068-.261.049-.546.049l-.059-.076c-.581.012-1.22.067-1.862.081.036-.022.146-.046,0-.069-.811.038-1.73-.009-2.512-.054l-.3.066c-.07,0-.129-.03-.054-.042-.305-.025-.016.042-.163.067-.173,0-.229-.038-.119-.057a11.593,11.593,0,0,1-2.1.049l.111-.019c-.441-.026-.5.134-.907.073l.079-.011c-.479-.014-.983-.006-1.458-.007-.244,0-.454-.012-.707,0a2.632,2.632,0,0,0-.664.14c-.054.071-.29.192-.482.362s-.335.376-.292.441a2.28,2.28,0,0,0-.293.473,1.855,1.855,0,0,0-.14.724c-.006.206.083.306.1.561l-.069.006.072.345L16.5,24.4l.018.239c0-.095.031-.2.051-.187a2.64,2.64,0,0,1-.083.917l.058.882a.939.939,0,0,1-.055-.284c.071.471-.073.086-.008.517.016-.058.041.031.055.041a5.985,5.985,0,0,0-.024,1.066l-.048-.069c-.012.654.022,1.378.022,2.112.022-.263.1-.2.113.013l-.073.086c.045.139.028-.224.083.061-.008.274-.083.184-.106.027l.025.333c-.021.019-.033-.059-.061-.079.045.137-.073.575.006.773l-.022.019c0,.733.024,1.066.028,1.663.063.012.049.246.1.424-.02.439-.069.926-.064,1.455.031.372.053.109.091.276-.057.028-.052.556-.093.282.009.635.011.811.057,1.614.024-.087.034-.185.053-.134.009.146-.024.331-.051.311l-.006-.039c.086.9-.167,2.081-.047,2.8l-.006-.04.063.744c-.01.342-.043-.206-.079.048.1.8-.014,1.269.05,1.93a1.989,1.989,0,0,0-.071.51,2.268,2.268,0,0,0,.072.749,2.557,2.557,0,0,0,.874,1.244l-.017-.058c.2.078.2.148.343.222-.009-.037-.189-.13-.064-.094a2.082,2.082,0,0,0,.629.174c.229.024.417.014.61.018l1.172.026,2.35.078c.567.011.322-.2,1.037-.111l-.2.074c1.144-.088,2.34,0,3.46-.072a.419.419,0,0,1-.178.039,2.32,2.32,0,0,0,.879-.041c.174,0,.041.039.148.061.237.032.6-.068.722-.015.021.009-.067.017-.111.022.155-.026.721.006.573-.056.42.03.8-.028,1.139.009.219-.069.72.033.789-.064-.03.1.737.081,1,.034-.089.031.231.032.127.074.3,0,.581-.02.529-.072.559.121,1.123-.1,1.438.058.9-.054,1.736-.091,2.546-.114-.029.1-.9.01-.862.116.769-.041,1.213-.128,1.976-.1.2.014-.112.044-.179.061.769-.042,1.486.009,2.169-.046a.45.45,0,0,1-.145.028c.134,0,.313.015.3-.031l-.131.012c-.216-.066.535-.139.559-.174-.229.131.676.033.313.2.089-.009.2-.03.179-.061.132.009.173.027.04.061.482-.025.311-.073.748-.072,0,.022-.089.031-.135.057a2.972,2.972,0,0,1,.814-.067c-.023.013.021.031-.089.03.634-.006,1.081-.115,1.778-.073-.205.1.237.032.274.115l.381-.028a1.552,1.552,0,0,1-.156-.038,2.351,2.351,0,0,0,.933-.224,1.8,1.8,0,0,1-.233.131,1.893,1.893,0,0,0,.584-.326,1.744,1.744,0,0,1-.334.172c.282-.214-.071-.056.309-.294a3.487,3.487,0,0,0,.386-.346c.072-.158.134-.316.226-.549.042-.057.075.078.1.041-.011-.094.04-.3.035-.507a1.888,1.888,0,0,0-.046-.505c.018.067.061.071.07.049l-.057-.134c.018-.152.027-.174.062-.149.011-.457-.106.145-.06-.4a.84.84,0,0,1,.022.111c.024-.545-.036-1.052-.008-1.553.084-.147.021.438.091.268-.016-.721-.1-1.494-.081-2.193l-.009.13c-.119-.1.058-.52,0-.873.009.086.066.113.052.09.019-.479-.029-.978-.066-1.7l.031.089c.027-.282.016-.742.029-1.046-.031-.091-.026-.265-.07-.159.173-.939-.093-1.791.052-2.624,0,.1.026.237.026.158l-.028-.709c-.052.056-.031.093-.072.242a1.792,1.792,0,0,1-.054-.466c.034.319.083,0,.112-.141-.016.023-.033-.024-.049-.013.092-.371-.1-.062-.042-.568l.027.027a4.865,4.865,0,0,1-.042-.568c.06-.085.028.2.077.214a3.735,3.735,0,0,1-.053-.826c.016.122.017.3.033.419a1.87,1.87,0,0,0,.064-.526l0,.021.032-.486-.019.124c-.156-.359-.028-.731-.13-1.214.1.47.056.078.123.114.019-.124.04-.311.059-.257-.054-.229.043-.382-.036-.7C46.241,27.2,46.222,26.968,46.276,27.019ZM28.373,44.2l.328,0c.027.021,0,.044-.078.043C28.664,44.231,28.486,44.218,28.373,44.2Zm.757,0h0l.186,0Zm16.488-1.3a.3.3,0,0,0,.009-.11l-.074-.1.019.225,0,0c-.046.031-.078.124-.164.328a1.206,1.206,0,0,1-.084.339,1.065,1.065,0,0,1-.106.063,1.185,1.185,0,0,0,.144-.246,1.358,1.358,0,0,0-.19.332.339.339,0,0,0-.139.06,1.155,1.155,0,0,1-.228.266c-.053-.021.1-.134-.109-.064-.132.1.181.032-.065.151-.181-.005-.131-.05-.323.006-.028-.026.013-.044.086-.06a1.69,1.69,0,0,1-.334.033.858.858,0,0,0-.287.043c-.2-.059-.694.015-.673-.084a2.658,2.658,0,0,1-.551.081c.345-.118-.706-.007-.615-.133a10.007,10.007,0,0,1-1.373.106.27.27,0,0,1,.114-.02,3.678,3.678,0,0,1-.491-.061c-.033.087-.429.107-.642.162-.311-.084.189-.1.092-.184.016.071-.542.071-.436.129-.238-.052-.206-.025-.328-.1-.042.109-.222.018-.419.086-.345-.054-.089-.1-.468-.069-.18-.033.157-.072.157-.072-.386,0-.181.081-.263.127-.461.024-.213-.061-.37-.1-.287.022-.508.1-.722.094-.016-.014-.057-.019-.009-.036-.3.066-.9,0-1.256.086a.11.11,0,0,1-.046-.021c.057.041.066.083.054.113-.173,0-.321.052-.386,0a.3.3,0,0,0,.164-.037l-.181.023c-.163-.077.248-.026.248-.084a8.646,8.646,0,0,1-1.036.067c-.056-.076.633-.026.272-.093l.419.029c-.321-.119.254.009-.04-.119-.551-.022-.617.039-1.166.016-.124.042.041.062-.083.1-.782.076-.616-.191-1.191-.09a.873.873,0,0,1-.616.1l.14-.086c-.534-.008-.305.123-.864.066.1-.034.42-.028.339-.039-.362-.068-.256.049-.534.049l-.058-.076c-.569.012-1.194.066-1.824.081.035-.023.143-.047,0-.07a23.952,23.952,0,0,1-2.461-.054l-.292.066c-.068,0-.126-.029-.052-.042-.3-.025-.016.041-.159.067-.17.005-.224-.037-.117-.057a11.234,11.234,0,0,1-2.055.049l.108-.019c-.432-.027-.487.134-.889.073l.077-.012c-.937-.028-1.974.032-2.689-.067-.136.095-.928-.042-.989.09a10.81,10.81,0,0,0-1.117-.137c-.155-.022-.256.053-.461-.023l.026-.064a1.2,1.2,0,0,1-.278-.09,1.341,1.341,0,0,1-.054-.163,1.252,1.252,0,0,1-.134-.136c.04.064.078.148.056.151a.808.808,0,0,1-.234-.431.421.421,0,0,1,.007-.266c-.019-.1-.027-.255-.037-.4l-.029-.431a.909.909,0,0,1,.055.278c-.071-.461.073-.084.008-.506-.016.056-.041-.031-.055-.04a5.81,5.81,0,0,0,.024-1.044l.048.068c.012-.64-.023-1.349-.022-2.068-.023.257-.1.2-.113-.013l.073-.084c-.044-.136-.027.221-.082-.059.008-.269.083-.181.106-.026l-.026-.326c.022-.019.033.057.061.077-.046-.134.073-.563-.006-.756l.022-.019c0-.718-.024-1.044-.028-1.629-.063-.012-.049-.241-.1-.415.02-.429.069-.907.064-1.425-.031-.364-.053-.106-.091-.27.058-.027.052-.544.093-.276-.009-.622-.011-.794-.058-1.581-.023.085-.034.181-.053.131-.009-.143.024-.324.052-.3l.006.038c-.086-.883.167-2.037.048-2.741l.006.039-.062-.729c.01-.336.043.2.078-.047-.095-.786.014-1.242-.049-1.89.169-.5-.012-1.779.1-2.455l-.039.039c-.039-.174.022-.211.032-.34-.031.018-.036.189-.058.081,0-.185-.008-.372-.011-.559a1.838,1.838,0,0,1,.036-.5,1.15,1.15,0,0,1,.559-.719,1.134,1.134,0,0,1,.437-.135c.134-.013.343,0,.533.008l1.147.037c.555.011.315-.206,1.015-.111l-.2.074c1.121-.089,2.292,0,3.389-.072a.413.413,0,0,1-.174.039,2.22,2.22,0,0,0,.861-.041c.171.005.04.039.145.062.233.031.584-.069.707-.015.021.009-.065.017-.108.021.151-.026.706.007.561-.055.412.029.788-.028,1.116.009.214-.069.7.034.773-.064-.029.1.722.082.983.034-.087.03.226.031.124.074.3,0,.569-.02.517-.073.548.121,1.1-.1,1.409.058.883-.054,1.7-.091,2.494-.115-.029.1-.878.01-.844.116a19.2,19.2,0,0,1,1.934-.1c.194.014-.109.044-.175.061.752-.041,1.455.009,2.125-.046a.456.456,0,0,1-.142.028c.132,0,.307.014.292-.031l-.129.012c-.211-.066.524-.139.548-.174-.224.131.661.033.306.2.087-.009.2-.031.176-.061.129.009.17.027.039.062.472-.025.3-.074.733-.073,0,.022-.088.031-.133.057a2.847,2.847,0,0,1,.8-.068c-.022.014.02.031-.088.031.622-.007,1.059-.115,1.741-.073-.2.1.232.031.268.115l.367-.025-.147-.041c.321,0,.6-.059.881-.032l-.239.034.6-.016-.341-.032c.325-.043-.035-.106.392-.082a4.5,4.5,0,0,1,.489.05h0a2.025,2.025,0,0,1,.56-.034c.062.027-.05.092-.009.11a1.681,1.681,0,0,1,.459-.045c.2-.009.364,0,.467,0-.066,0-.076.044-.06.057.042-.007.088-.019.132-.022.126.063.136.085.1.106.346.207-.054-.177.334.136a.613.613,0,0,1-.094-.043,1.361,1.361,0,0,1,.577,1.225c-.042.073-.047-.036-.051-.139s-.016-.182-.046-.106c.026.671.1,1.454.086,2.129l.009-.127c.118.094-.059.509,0,.855-.009-.084-.066-.111-.053-.088-.019.468.029.958.066,1.667l-.031-.088c-.027.276-.016.727-.029,1.026.03.088.026.259.069.155-.173.919.093,1.754-.051,2.57,0-.1-.027-.233-.027-.155l.028.694c.052-.054.031-.091.071-.237a1.724,1.724,0,0,1,.054.456c-.034-.312-.083,0-.111.137.016-.022.033.024.049.013-.092.363.1.061.042.556l-.028-.026a4.534,4.534,0,0,1,.042.557c-.059.083-.028-.2-.077-.211a3.587,3.587,0,0,1,.054.809c-.017-.119-.017-.291-.033-.41a1.772,1.772,0,0,0-.064.514l0-.02-.032.476.019-.121c.156.351.029.716.131,1.189-.1-.46-.056-.076-.124-.111-.019.121-.039.305-.059.252.054.224-.043.374.037.689-.022.014,0,.239-.057.189.017.291.038-.069.065-.044.074.449-.09,1.054.012,1.7.039.512.1.644.143,1.063v.145c-.033.083-.069-.174-.069-.174a3.338,3.338,0,0,0,0,.757c-.019-.054-.035,0-.059.082.006.213.079.142.047.423a.825.825,0,0,1-.088-.212q.039.372.081.757c-.038.069-.057-.156-.083-.247a3.6,3.6,0,0,0,.094.845l.021-.187c0,.106-.051.054-.062-.024-.047-.25.021-.36.042-.374l.014.184c.128-.189-.021-.742-.013-1.113l.076.126v2.839c0,.012,0,.024,0,.036A.283.283,0,0,0,45.619,42.9Zm.1-4.972a.609.609,0,0,1-.053-.2l.053-.1Zm0,2.088-.06-.3c.015-.049.039-.082.06-.064Zm0-9.668c-.022-.019-.041-.08-.053-.239a.06.06,0,0,1,.053-.009Zm.394-6.754c-.014.051-.039.084-.059.065v-.368ZM26.486,21.188l.19,0-.19,0Zm-.438,0c.028.022,0,.044-.08.043.042-.015-.14-.027-.255-.046ZM46.111,33.41a.058.058,0,0,1-.053.009v-.253C46.079,33.185,46.1,33.247,46.111,33.41Zm-.053-7.674v-.309a.638.638,0,0,1,.052.2Z" transform="translate(-16.443 -21)"/><path class="d" d="M16.525,25.55h.016l-.014-.068Z" transform="translate(-16.474 -22.68)"/><path class="d" d="M64.021,37.7a.147.147,0,0,0,.016-.056A.181.181,0,0,0,64.021,37.7Z" transform="translate(-34.285 -27.24)"/><path class="d" d="M64.044,34.63l.022-.26C64.053,34.482,64.047,34.564,64.044,34.63Z" transform="translate(-34.294 -26.014)"/><path class="d" d="M64.077,32.507a.069.069,0,0,0-.027-.028v0Z" transform="translate(-34.296 -25.305)"/><path class="d" d="M52.944,59.307l-.055,0C52.761,59.322,52.848,59.317,52.944,59.307Z" transform="translate(-30.086 -35.365)"/><path class="d" d="M63.368,57.779a1.207,1.207,0,0,1-.119.2C63.34,57.885,63.393,57.8,63.368,57.779Z" transform="translate(-33.996 -34.792)"/><path class="d" d="M41.031,59.427h0Z" transform="translate(-25.647 -35.41)"/><path class="d" d="M63.1,58.093c-.071.077-.166.155-.242.228A.909.909,0,0,0,63.1,58.093Z" transform="translate(-33.85 -34.91)"/><path class="d" d="M63.508,22.538s-.007,0-.013,0l.056.064Z" transform="translate(-34.088 -21.576)"/><path class="d" d="M63.461,22.5l-.056-.062A.237.237,0,0,0,63.461,22.5Z" transform="translate(-34.054 -21.539)"/><path class="d" d="M63.2,22.247l.128.119A.476.476,0,0,0,63.2,22.247Z" transform="translate(-33.977 -21.468)"/><path class="d" d="M64.1,26.292a4.1,4.1,0,0,0,.034-.53l-.018-.017C64.147,25.834,64.059,26.164,64.1,26.292Z" transform="translate(-34.31 -22.779)"/><path class="d" d="M64.058,52.978l.035-.192-.052-.091Z" transform="translate(-34.293 -32.885)"/><path class="d" d="M22.4,33.2c-.009-.02.023-.035.051-.032-.019-.007.016-.031-.03-.041-.057.026-.06.059-.012.093a.088.088,0,0,1-.049,0,.224.224,0,0,0,.167.036C22.457,33.233,22.487,33.227,22.4,33.2Z" transform="translate(-18.663 -25.548)"/><path class="d" d="M22.635,33.7a.047.047,0,0,0-.02-.017l.008.016Z" transform="translate(-18.758 -25.754)"/><path class="d" d="M24.123,32.289a.243.243,0,0,1-.016-.056C24.112,32.277,24.061,32.294,24.123,32.289Z" transform="translate(-19.312 -25.212)"/><path class="d" d="M22.617,33.715l0-.012a.048.048,0,0,0-.024,0C22.606,33.707,22.614,33.71,22.617,33.715Z" transform="translate(-18.748 -25.763)"/><path class="d" d="M27.248,36.657a.106.106,0,0,0,.031.044.049.049,0,0,0,.006-.016Z" transform="translate(-20.495 -26.871)"/><path class="d" d="M22.526,33.424l.008.006,0,0Z" transform="translate(-18.724 -25.659)"/><path class="d" d="M22.433,33.406c0-.014.043-.007.058,0-.011-.011-.019-.024-.036-.028Z" transform="translate(-18.689 -25.642)"/><path class="d" d="M27.949,32.351v-.016l-.006.014Z" transform="translate(-20.756 -25.251)"/><path class="d" d="M22.594,34.752l-.027,0h0Z" transform="translate(-18.74 -26.155)"/><path class="d" d="M25.276,36.771l.007,0C25.3,36.756,25.288,36.76,25.276,36.771Z" transform="translate(-19.756 -26.91)"/><path class="d" d="M23.835,36.992a.161.161,0,0,1,.029-.029C23.847,36.957,23.836,36.956,23.835,36.992Z" transform="translate(-19.215 -26.985)"/><path class="d" d="M26.885,36.656h0Z" transform="translate(-20.359 -26.871)"/><path class="d" d="M22.654,33.419h-.01l.008.01Z" transform="translate(-18.769 -25.657)"/><path class="d" d="M22.607,33.367l.016.021C22.623,33.381,22.625,33.372,22.607,33.367Z" transform="translate(-18.755 -25.638)"/><path class="d" d="M22.614,33.916c.005-.018.049-.046.034-.071l-.018,0C22.664,33.854,22.576,33.9,22.614,33.916Z" transform="translate(-18.754 -25.816)"/><path class="d" d="M23.219,36.874l.034-.008-.01-.039Z" transform="translate(-18.984 -26.935)"/><path class="d" d="M23.14,37.854c.043-.066.046-.035.088-.114.025,0,.04.029.033.056.011-.019.039.018.054-.027-.029-.059-.064-.062-.113-.023-.006-.018.005-.035.009-.049A.207.207,0,0,0,23.14,37.854Z" transform="translate(-18.954 -27.261)"/><path class="d" d="M22.655,37.805a.059.059,0,0,0,.029-.007l-.023,0Z" transform="translate(-18.773 -27.298)"/><path class="d" d="M26.319,38.087a.221.221,0,0,1-.019-.056C26.307,38.075,26.248,38.092,26.319,38.087Z" transform="translate(-20.134 -27.387)"/><path class="d" d="M22.64,37.778l.016,0a.04.04,0,0,0,.008-.022C22.655,37.772,22.648,37.778,22.64,37.778Z" transform="translate(-18.767 -27.285)"/><path class="d" d="M25.044,30.859a.111.111,0,0,0,.036.044.066.066,0,0,0,.007-.016Z" transform="translate(-19.669 -24.697)"/><path class="d" d="M23.062,37.733c.016,0,0,.042-.016.055.014-.008.034-.011.041-.026Z" transform="translate(-18.919 -27.275)"/><path class="d" d="M23.039,37.821s-.007.006-.012.007.005,0,.008,0Z" transform="translate(-18.912 -27.308)"/><path class="d" d="M30.063,35.821h-.016l.014.01Z" transform="translate(-21.545 -26.558)"/><path class="d" d="M21.711,36.8l.027-.006h0Z" transform="translate(-18.419 -26.921)"/><path class="d" d="M22.632,31.161l.008-.007C22.657,31.132,22.644,31.144,22.632,31.161Z" transform="translate(-18.764 -24.803)"/><path class="d" d="M21.664,32.744a.2.2,0,0,1-.024-.041C21.632,32.722,21.629,32.738,21.664,32.744Z" transform="translate(-18.39 -25.389)"/><path class="d" d="M24.625,30.858h0Z" transform="translate(-19.512 -24.697)"/><path class="d" d="M21.641,32.672c.006-.016.019-.034.013-.053A.046.046,0,0,0,21.641,32.672Z" transform="translate(-18.391 -25.357)"/><path class="d" d="M23.015,37.939l-.016,0,.012.006A.016.016,0,0,1,23.015,37.939Z" transform="translate(-18.902 -27.352)"/><path class="d" d="M23.079,37.919l-.031.009C23.058,37.93,23.069,37.935,23.079,37.919Z" transform="translate(-18.92 -27.345)"/><path class="d" d="M22.371,37.615c.016.02.026.074.063.081l.012-.014C22.414,37.7,22.41,37.6,22.371,37.615Z" transform="translate(-18.666 -27.23)"/><path class="d" d="M21.543,33.513l-.035.03.052.014Z" transform="translate(-18.342 -25.692)"/><path class="d" d="M51.453,33.074a.111.111,0,0,1,0-.049.263.263,0,0,0-.016.167c.012-.072.018-.042.033-.127.016-.009.029.022.027.049.005-.019.024.015.031-.032C51.505,33.026,51.477,33.026,51.453,33.074Z" transform="translate(-29.563 -25.509)"/><path class="d" d="M51.172,33.333a.048.048,0,0,0,.009-.021l-.011.01Z" transform="translate(-29.466 -25.617)"/><path class="d" d="M53.221,33.915c-.026.036-.062.024-.027.051A.445.445,0,0,1,53.221,33.915Z" transform="translate(-30.219 -25.843)"/><path class="d" d="M51.158,33.318l.008,0a.066.066,0,0,0-.006-.023C51.162,33.307,51.161,33.315,51.158,33.318Z" transform="translate(-29.461 -25.609)"/><path class="d" d="M50.1,37.612a.12.12,0,0,0-.013.048.067.067,0,0,0,.014-.009Z" transform="translate(-29.062 -27.229)"/><path class="d" d="M51.361,33.2l0,0,0,0Z" transform="translate(-29.537 -25.575)"/><path class="d" d="M51.355,33.1c.011,0,.011.047,0,.061a.1.1,0,0,0,.018-.04Z" transform="translate(-29.535 -25.538)"/><path class="d" d="M53.962,36.376l.015,0-.012-.009Z" transform="translate(-30.513 -26.764)"/><path class="d" d="M50.435,33.547l-.01-.025h0Z" transform="translate(-29.186 -25.696)"/><path class="d" d="M49.286,36.559l0,0C49.3,36.571,49.3,36.565,49.286,36.559Z" transform="translate(-28.759 -26.835)"/><path class="d" d="M48.964,35.531a.163.163,0,0,1,.026.025C49,35.545,49,35.536,48.964,35.531Z" transform="translate(-28.639 -26.449)"/><path class="d" d="M49.938,37.443h0l0,0Z" transform="translate(-29.004 -27.166)"/><path class="d" d="M51.368,33.32l.007,0v-.01Z" transform="translate(-29.54 -25.617)"/><path class="d" d="M51.4,33.273l-.014.016S51.4,33.291,51.4,33.273Z" transform="translate(-29.548 -25.602)"/><path class="d" d="M50.987,33.355c.014,0,.044.039.058.02l0-.018C51.043,33.392,50.99,33.314,50.987,33.355Z" transform="translate(-29.397 -25.628)"/><path class="d" d="M49.144,35.068l.039-.008-.047-.024Z" transform="translate(-28.703 -26.264)"/><path class="d" d="M51.354,39.4c.029-.069.033-.04.063-.123.02-.008.034.026.029.053.007-.018.031.018.042-.028-.024-.058-.055-.062-.092-.017a.09.09,0,0,1,0-.049A.232.232,0,0,0,51.354,39.4Z" transform="translate(-29.534 -27.837)"/><path class="d" d="M50.964,39.453a.05.05,0,0,0,.021-.016l-.018.005Z" transform="translate(-29.389 -27.914)"/><path class="d" d="M54.065,38.724a.246.246,0,0,1-.049-.032C54.049,38.722,54.018,38.772,54.065,38.724Z" transform="translate(-30.533 -27.634)"/><path class="d" d="M50.949,39.432h.013a.057.057,0,0,0,0-.024C50.96,39.423,50.955,39.43,50.949,39.432Z" transform="translate(-29.383 -27.903)"/><path class="d" d="M49.1,32.9a.111.111,0,0,0,.054.01.056.056,0,0,0-.006-.018Z" transform="translate(-28.691 -25.459)"/><path class="d" d="M47.945,34.388c0,.047.063.084.038.124l-.036-.033.021.085.029-.05c.045.043.1-.012.085.048-.009-.011,0,.043-.044.071h0c.029.019.061.037.045.072-.025.012-.092.007-.109.015.073.011.034.1.114.115a.152.152,0,0,0-.071.007l.06.006c-.012.024-.02.029-.055.033.006.064.1-.043.072.039-.006,0-.013,0-.024-.009,0,.079.069.129.068.2-.072.047-.04-.05-.1-.006.049.094.165.16.192.252v-.02c.112-.041-.023.091.05.108-.014-.006-.065.018-.052.014.019.066.1.1.18.165l-.033.007c0,.046.048.091.063.133.032-.008.042.014.068-.026-.049.213.224.122.208.3-.011-.009-.043,0-.034.005l.091.046c.028-.044.011-.033.023-.076a.078.078,0,0,1,.081,0c-.052,0-.054.064-.056.1.007-.014.024-.024.032-.037-.017.1.072-.076.087.012l-.019.019c.029,0,.068-.011.085.011-.026.056-.037.007-.068.046.034.021.124-.046.121.019-.023.006-.043-.006-.066,0-.009.081.007.067.025.092v0l.041.063,0-.026c.123-.109.1.032.206-.032-.1.058-.035.044-.071.1.006.024.021.054.006.068.053-.035.031.063.1.01-.007.021.03.017,0,.064.045,0,.006-.039.021-.062.084-.042.109.138.229.075.084-.017.12-.079.188-.1l.006,0c.006.036-.036.066-.036.066a.071.071,0,0,0,.1.026c-.011.017-.007.034,0,.06.031,0,.034-.075.066-.038a.375.375,0,0,1-.044.082c.039-.014.08-.049.118-.063,0,.039-.029.054-.046.076a.284.284,0,0,0,.089-.036c-.034.026-.041-.033-.04-.054l.027-.01c-.009-.13-.1.006-.153-.01l.032-.074a2.092,2.092,0,0,0,.373.038h0c0,.037-.006.074-.006.109,0-.01-.007-.019-.016-.016l-.016.073.033-.018v-.007a.157.157,0,0,0,.06.12l.058-.067.023.049-.051.006c.031.046.048,0,.066-.027a.093.093,0,0,0,.03.054l.05-.1c.012.04-.019.084.024.1.022-.05-.036-.086.006-.123.033.042.031.082.058.037a.053.053,0,0,1-.008.058c.026-.036.079-.026.084-.083.041.054.1-.032.114.063a.185.185,0,0,1,.06-.1c-.02.127.1-.019.125.1.007-.109.118-.091.16-.168,0,.009,0,.027-.009.025.039-.005.061.021.092.031-.029-.083.015-.126.019-.188.078.056.019.1.066.172-.032-.063.043-.1,0-.145.055.031.039.009.089.066-.046-.1.022-.03.014-.1.07.021.063.083.094.024.041.014.016.074.016.074.052-.029-.018-.084-.032-.131.046-.055.059.035.1.059.027-.041.011-.122.037-.139.01.009.018.01.022.028,0-.08.107-.083.1-.179a.07.07,0,0,1,.018.011.466.466,0,0,1-.078-.081c.017-.017,0-.069.041-.035-.012.009,0,.026.007.044l0-.035c.067.043-.009.044.029.087.022-.054.021-.14.064-.149.059.049-.049.079.035.094l-.064.019c.114.058-.033.019.084.086.076-.041.044-.089.117-.133-.018-.043-.049-.039-.067-.082.019-.133.2.061.185-.07-.025-.049-.1-.116-.02-.131l.055.069c.055-.059-.071-.11.024-.141.019.031-.014.066,0,.062.087,0-.017-.059.007-.091l.067.036c.034-.081.039-.185.066-.272.018.014.032.04.062.031a.769.769,0,0,1,.194-.32l-.048-.061c0-.009.034-.009.043.005.035-.036-.039-.014-.058-.042,0-.025.044-.022.059,0-.033-.094-.061-.239.017-.309l.017.019c.036-.061-.123-.089-.053-.138l.009.013c.04-.135-.014-.282.076-.391-.094-.013.034-.142-.1-.136.053-.085.08-.066.106-.186,0-.032-.089-.028-.111-.06l.067-.016-.083-.031.073-.046-.026-.029a.055.055,0,0,1-.042.039c-.042-.043.011-.139.042-.152l-.1-.1c.027-.007.043.009.066.019-.089-.039.063-.038-.019-.075-.011.014-.039.011-.052.016.029-.046-.005-.111-.043-.151l.047-.011a1.368,1.368,0,0,0-.173-.262c0,.045-.072.081-.094.06l.054-.051c-.048.008-.006.042-.073.039-.016-.036.052-.069.086-.063l-.05-.024c.016-.015.033-.013.057-.026-.049.01.007-.112-.073-.089l.015-.016c-.064-.09-.122-.106-.182-.17-.046.042-.059.007-.113.024a.543.543,0,0,0-.113-.189c-.061-.011-.046.031-.088.045.033-.046-.031-.089.026-.1a.469.469,0,0,0-.224-.087c0,.026,0,.042-.012.054s-.027-.044-.01-.066l.007,0c-.144.006-.189-.293-.338-.226l.007,0L51,32.192c-.043-.026.043-.03.019-.076-.138.047-.176-.065-.284-.03-.041-.181-.262-.039-.352-.145l0,.04c-.029.038-.031-.024-.05-.034,0,.031.027.037.01.058-.219.034-.458-.049-.7-.028-.088.011.006.21-.12.146l.007-.079c-.134.132-.331.118-.443.263,0-.02-.01-.04,0-.047-.057-.031-.113.065-.09.1-.024.009-.026-.031-.051-.041-.048-.007-.038.1-.083.07-.007-.006,0-.021,0-.027,0,.035-.09.059-.036.1-.067.014-.077.091-.138.094.021.073-.1.046-.042.124-.064-.077-.138.013-.127.076-.013-.031-.046,0-.066-.037-.029.034-.043.077,0,.106-.15-.019-.026.186-.177.127l-.1.373c-.09-.053.052-.116-.04-.165-.027.118.031.216-.039.3-.025.02-.034-.032-.045-.048-.008.117-.089.2-.066.309-.009,0-.016-.016-.021-.028,0,.019-.026.039.019.05l-.007-.022c.071-.009.114.111.148.121-.119-.063-.055.082-.2-.006a.064.064,0,0,0,.053.039c-.013.016-.032.018-.061-.008.007.073.063.059.051.119-.022,0-.028-.018-.053-.029.037.039.076.076.049.124-.013-.005-.031,0-.028-.016-.01.091.1.161.053.253-.094-.031-.033.032-.117.036a.523.523,0,0,0,.026.054Zm3.778-.721c-.015,0-.018.024-.029.042a.122.122,0,0,0-.012-.031C51.7,33.666,51.72,33.659,51.723,33.667Zm-.064-.026h0l-.011-.015ZM50.233,32.6c0,.037,0,.073,0,.108,0-.009-.006-.017-.013-.014l-.009.075.022-.021v-.007a.234.234,0,0,0,.039.124l.042-.061.01.051h-.033c.017.048.03.007.046-.021a.118.118,0,0,0,.012.056l.048-.1c0,.041-.025.078,0,.1.023-.042-.008-.093.026-.119.014.05,0,.088.031.051a.076.076,0,0,1-.018.054c.024-.029.053-.006.073-.059.009.059.071,0,.048.094.011-.022.051-.067.071-.066-.062.106.064.024.021.142.054-.1.094-.016.156-.057,0,.007-.016.021-.018.015.02.017.014.049.021.072.036-.079.079-.081.122-.12-.008.09-.061.085-.086.162.028-.065.076-.041.093-.1a.19.19,0,0,1-.016.1c.055-.1.028-.008.076-.056,0,.064-.044.093,0,.083,0,.038-.049.055-.049.055.029.019.056-.061.087-.1.051,0-.014.063-.025.106.034-.006.094-.057.109-.041-.007.012-.006.019-.02.03.062-.036.07.048.149.006a.088.088,0,0,1-.009.019.681.681,0,0,1,.068-.091c.014.011.059-.017.029.029-.008-.009-.023.007-.037.016l.029-.005c-.038.07-.036,0-.073.047.041,0,.117-.014.123.021-.049.059-.065-.024-.084.049l-.011-.049c-.056.11-.013-.023-.076.092.021.051.07.009.09.063.038-.021.042-.047.081-.067.109.008-.1.172.011.145.048-.022.126-.076.111-.012l-.076.042c.023.045.116-.051.1.028-.034.012-.048-.016-.051,0-.034.067.054-.009.071.014l-.06.048c.036.039.119.061.159.112-.021.007-.047.009-.061.033.069.05.061.152.039.232l.073.006c0,.006-.026.021-.039.017-.018.034.04-.011.067,0,.009.015-.031.031-.052.027.065.031.154.115.09.181l-.021-.007c-.02.044.141.029.086.077l-.013-.007c-.021.094.044.2-.062.264.094.021-.046.085.081.105-.073.044-.094.026-.147.089-.007.017.075.044.082.071l-.067-.015.062.048-.084,0,.012.026a.066.066,0,0,1,.053,0c.022.044-.069.07-.1.059l.027.1c-.026-.012-.029-.028-.042-.044.051.066-.07-.019-.023.041.016,0,.037.018.049.024a.072.072,0,0,0-.064.08l-.04-.026c-.033.048-.039.119-.074.177.031-.008.1.04.093.063l-.065-.033c.031.036.034,0,.066.051-.023.018-.079-.032-.089-.057l0,.039a.478.478,0,0,1-.046-.041c.029.036-.089,0-.037.059l-.018-.012c-.037.054-.043.088-.076.132.045.044.02.051.045.1-.046.014-.113.008-.146.046-.007.046.026.048.037.086-.038-.042-.075-.009-.079-.057a.418.418,0,0,0-.091.135c.019.016.033.019.04.038s-.041,0-.054-.028v-.007c-.035.126-.247-.054-.256.078v-.007l-.044.082c-.034,0,0-.047-.03-.072-.04.119-.116.018-.159.1-.078-.157-.166.044-.241-.064l.006.039c-.014.039-.021-.022-.033-.03,0,.031.019.034.011.057-.143.057-.291-.065-.408-.132-.044-.022-.081.191-.121.084l.04-.066c-.128.054-.2-.074-.319-.056.014-.012.024-.031.033-.026.007-.057-.066-.043-.091-.006-.011-.013.018-.036.021-.059s-.084.03-.064-.022c0-.009.014-.011.02-.012-.026.013-.048-.045-.074.014-.012-.048-.078-.023-.079-.072-.06.039-.027-.07-.1,0,.071-.073,0-.1-.045-.091.028-.015.009-.037.046-.059-.019-.019-.05-.025-.086.013.056-.114-.144-.022-.039-.14a.566.566,0,0,1-.224-.143c.087-.043.051.071.141.014-.074-.036-.165-.041-.178-.118,0-.022.045-.007.064-.009-.068-.05-.043-.131-.114-.176a.045.045,0,0,1,.029.006c-.006-.011.007-.032-.037-.019l.015.009c-.058.04-.146-.014-.181-.009.132-.01.014-.074.185-.077a.085.085,0,0,0-.064,0c.006-.014.022-.022.059-.017-.036-.039-.078-.014-.084-.057a.383.383,0,0,1,.057,0c-.046-.013-.092-.029-.079-.067.014,0,.03-.006.032,0-.019-.058-.124-.1-.087-.17.1.018.03-.025.113-.029a.4.4,0,0,1-.024-.036l-.041.014c0-.032-.056-.063-.027-.091l.033.026-.013-.062-.034.033c-.041-.037-.1,0-.079-.048.008.01,0-.036.054-.047h0c-.024-.019-.049-.041-.024-.063.027,0,.09.019.108.018-.066-.027-.009-.079-.076-.114a.175.175,0,0,0,.067.019l-.052-.025c.022-.011.031-.011.064,0,.021-.042-.107-.01-.049-.053,0,0,.012.006.019.016.036-.047-.009-.115.038-.155.084.014,0,.048.077.055.008-.069-.043-.176.009-.232l-.014.007c-.1-.061.075-.022.042-.079,0,.011.052.041.041.033.042-.031.024-.1.034-.181l.019.024c.04-.007.058-.051.087-.067-.018-.026,0-.037-.045-.056.191.04.053-.206.221-.161-.007.007,0,.036.006.031l.034-.069c-.037-.036-.027-.018-.065-.038a.071.071,0,0,1,0-.075c0,.05.053.062.083.077-.012-.011-.019-.028-.031-.039.089.049-.059-.085.023-.069l.014.023c.007-.023,0-.063.024-.07.042.043,0,.036.027.076.021-.019-.018-.13.041-.094,0,.021-.018.03-.019.052.063.04.057.026.081.024h0l.058,0-.021-.01c-.048-.151.047-.066.046-.176,0,.107.019.052.046.114.02.011.046.022.05.041,0-.059.051.023.046-.063.01.019.023-.009.04.044.019-.029-.021-.032-.03-.058.014-.089.131.047.158-.073.039-.051.039-.114.074-.164l.01,0a.1.1,0,0,1,0,.069c.037.024.056.011.079-.018a.094.094,0,0,0,.02.057c.021-.009,0-.08.036-.053a.615.615,0,0,1-.007.089c.021-.023.04-.068.065-.091.012.037-.009.06-.014.086a.243.243,0,0,0,.056-.061c-.02.043-.038-.017-.042-.039l.018-.017c-.037-.123-.078.033-.116.031v-.074a1.806,1.806,0,0,1,.315-.032Zm-.363.036c.012,0,.025,0,.037,0l-.02.062A.141.141,0,0,1,49.87,32.638Zm-.189.059a.128.128,0,0,1,0,.049l-.025-.041Zm-.714.432a.07.07,0,0,1,.021.056.389.389,0,0,1-.038-.036C48.956,33.142,48.961,33.135,48.967,33.129Zm-.3,2.752a.469.469,0,0,1,.039-.039c.007.007.013.017.02.024A.061.061,0,0,1,48.671,35.881Zm.866.549.006-.062.039.012A.108.108,0,0,1,49.537,36.43Zm.259.079a.113.113,0,0,1,.006-.06c.015,0,.031,0,.046.005Zm2.449-1.057.007-.026h0Zm.031-.083c-.021-.006-.039-.019-.034-.029.011.012.033-.006.057-.013A.249.249,0,0,0,52.276,35.369Z" transform="translate(-28.232 -25.103)"/><path class="d" d="M51.265,39.384s-.006.007-.009.01,0,0,.006,0Z" transform="translate(-29.498 -27.894)"/><path class="d" d="M51.278,39.3c.013,0,0,.04-.007.055.011-.009.025-.015.03-.032Z" transform="translate(-29.504 -27.861)"/><path class="d" d="M55.367,34.979l-.015,0,.016.007Z" transform="translate(-31.034 -26.242)"/><path class="d" d="M49.942,39.057l.016-.022h0Z" transform="translate(-29.005 -27.763)"/><path class="d" d="M48.033,34.733v-.009C48.026,34.7,48.027,34.716,48.033,34.733Z" transform="translate(-28.288 -26.142)"/><path class="d" d="M48.111,36.235a.149.149,0,0,1-.034-.026C48.075,36.225,48.076,36.238,48.111,36.235Z" transform="translate(-28.306 -26.703)"/><path class="d" d="M48.812,33.178h0l0-.005Z" transform="translate(-28.582 -25.565)"/><path class="d" d="M51.257,39.506l-.012.006.009,0Z" transform="translate(-29.494 -27.94)"/><path class="d" d="M51.306,39.472l-.024.014C51.29,39.487,51.3,39.49,51.306,39.472Z" transform="translate(-29.508 -27.927)"/><path class="d" d="M50.71,39.373c.017.01.035.059.064.053l.007-.017C50.761,39.438,50.737,39.34,50.71,39.373Z" transform="translate(-29.293 -27.887)"/><path class="d" d="M48.155,36.894l-.026.036.054,0A.337.337,0,0,1,48.155,36.894Z" transform="translate(-28.326 -26.96)"/><path class="d" d="M52.016,42.454c-.049.069-.058.039-.11.121a.048.048,0,0,1-.058-.054c-.014.019-.059-.019-.081.026a.12.12,0,0,0,.177.022c.013.017,0,.035-.005.049C51.985,42.583,52.041,42.523,52.016,42.454Z" transform="translate(-29.69 -29.045)"/><path class="d" d="M52.87,42.515a.078.078,0,0,0-.037.014l.033,0Z" transform="translate(-30.09 -29.068)"/><path class="d" d="M47.132,43.986a.18.18,0,0,1,.062.019C47.156,43.98,47.221,43.9,47.132,43.986Z" transform="translate(-27.952 -29.605)"/><path class="d" d="M52.907,42.533h-.023a.029.029,0,0,0,0,.024C52.889,42.542,52.9,42.535,52.907,42.533Z" transform="translate(-30.107 -29.075)"/><path class="d" d="M55.578,45.326a.145.145,0,0,0,0-.071.055.055,0,0,0-.019,0Z" transform="translate(-31.111 -30.096)"/><path class="d" d="M53.354,46.646c0-.087-.066-.159-.041-.234l.037.062a1.526,1.526,0,0,0-.027-.16c-.007.031-.013.062-.023.093-.049-.083-.1.017-.092-.1.011.021-.009-.083.035-.132h0a.16.16,0,0,1-.051-.141c.024-.02.094,0,.109-.014-.077-.03-.058-.194-.14-.231a.084.084,0,0,0,.071,0l-.062-.022c.011-.042.017-.05.053-.051-.015-.119-.092.06-.083-.086.007.009.014,0,.029.022-.017-.142-.1-.254-.119-.384.067-.063.057.1.11.038-.08-.176-.22-.337-.283-.506l.006.034c-.118.026,0-.147-.092-.207.017.016.071,0,.057,0a1.245,1.245,0,0,0-.274-.354l.037,0a1.5,1.5,0,0,0-.131-.242c-.038,0-.06-.042-.08.007,0-.154-.1-.226-.192-.3s-.187-.126-.22-.25c.019.017.064.024.049.009l-.156-.108c-.024.049,0,.04,0,.1a.16.16,0,0,1-.123-.041c.082.029.054-.063.046-.11-.006.016-.026.021-.034.036-.018-.13-.078.07-.143-.055l.022-.018c-.048-.018-.1-.016-.142-.053.017-.061.057.008.089-.029-.063-.042-.181.005-.2-.081.036,0,.071.031.106.035-.019-.1-.035-.1-.077-.13l0,0-.094-.091.019.033c-.161.088-.181-.071-.336-.042.148-.027.042-.04.081-.1-.019-.034-.057-.069-.035-.082-.079.026-.076-.079-.187-.039,0-.022-.059-.027-.025-.073-.08-.015,0,.043-.014.065-.134.017-.234-.192-.434-.137a1.49,1.49,0,0,0-.308.066l-.03,0c-.015-.036.056-.061.056-.061a.243.243,0,0,0-.2-.034c.017-.016.006-.034-.012-.062-.057,0-.049.072-.118.028a.274.274,0,0,1,.068-.077c-.069.009-.139.038-.209.048-.014-.04.047-.052.074-.072-.079,0-.2.02-.232.076l.048.024c-.028,0-.01-.053.011-.062a.057.057,0,0,1,.094.048l-.049.011c.036.124.193.006.291.028l-.044.069a4.726,4.726,0,0,0-.73-.061h-.009a.831.831,0,0,0,.011-.109.028.028,0,0,0,.031.016l.028-.072-.06.017v.007c-.008-.046-.034-.086-.111-.117l-.109.07-.038-.049.094-.008c-.055-.044-.088,0-.124.03a.088.088,0,0,0-.051-.053l-.1.1c-.018-.039.042-.083-.034-.1-.047.049.058.088-.023.123-.057-.042-.047-.08-.1-.031-.012-.025,0-.044.022-.06-.051.041-.146.039-.165.1-.065-.048-.182.047-.2-.051a.377.377,0,0,1-.129.112c.062-.141-.187.048-.2-.081-.037.124-.234.112-.326.224,0-.01.009-.032.022-.031a.364.364,0,0,1-.149,0c.026.084-.066.146-.094.217-.115-.042,0-.113-.057-.175.033.059-.1.128-.051.169-.081-.013-.06.006-.124-.041.043.1-.045.047-.058.132-.109,0-.074-.076-.148.006-.061,0,0-.084,0-.084-.1.054,0,.094.005.145-.092.089-.082-.017-.142-.028-.053.067-.057.164-.106.2-.011-.008-.024,0-.023-.027-.03.1-.2.156-.209.286a.046.046,0,0,1-.023-.007.255.255,0,0,1,.087.074c-.033.032-.026.1-.076.068.022-.018.009-.035.007-.056l-.019.049c-.086-.026.03-.064-.009-.106-.053.085-.091.2-.151.242-.068-.042.1-.141-.019-.119l.1-.057c-.147-.026.058-.042-.091-.078-.131.088-.091.151-.21.247.009.053.054.033.064.086-.081.205-.26.006-.273.2.016.064.085.132-.021.192l-.048-.08c-.092.116.049.133-.076.232-.015-.041.034-.113.014-.1-.107.049.005.086-.033.151l-.073-.026a3.694,3.694,0,0,0-.162.474c-.017-.018-.026-.054-.064-.028a3.178,3.178,0,0,1-.294.609l.04.1c-.006.017-.038.024-.045,0-.047.072.039.016.052.06-.008.045-.053.049-.064.015a1.044,1.044,0,0,1-.068.559l-.016-.032c-.041.114.116.149.042.248l-.009-.021a2.034,2.034,0,0,0-.031.385l0,.049a.4.4,0,0,0,.011.094.41.41,0,0,0,.086.164.47.47,0,0,0,.316.156c.037-.048.176-.074.262-.184s.086-.269.021-.247c.071-.13.093-.092.144-.268.012-.047-.073-.079-.078-.142l.068.007-.061-.091.086-.031c0-.019-.007-.039-.009-.058-.009.021-.038.042-.057.036-.016-.094.091-.2.125-.2a1.667,1.667,0,0,1-.007-.216c.026.012.025.048.034.079-.036-.125.076,0,.042-.114-.019.009-.037-.019-.05-.025a.407.407,0,0,0,.1-.233l.039.031c.062-.14.1-.309.176-.463a.058.058,0,0,1-.1-.054l.073.015c-.025-.051-.048.036-.067-.051.037-.056.092,0,.1.043a.658.658,0,0,1,.016-.081c.021.006.022.028.044.045-.023-.05.131-.079.087-.158l.021.008c.083-.149.119-.217.194-.336-.048-.039-.007-.078-.017-.14a1.891,1.891,0,0,0,.278-.213c.042-.082-.019-.056-.016-.109.045.036.132-.053.113.022.1-.111.13-.137.256-.286-.03-.006-.055,0-.057-.024.022-.028.078-.028.089,0l0,.01c.132-.2.495-.114.594-.278l-.006.009L47.9,43.3c.079-.017-.031.056.037.069.151-.139.284-.08.421-.167.077.072.178.052.286.022a.44.44,0,0,1,.308,0l-.011-.039c.041-.042.052.019.082.027,0-.031-.046-.033-.021-.056a1.521,1.521,0,0,1,.55.032c.179.056.359.107.523.175.121.046.128-.176.262-.039l-.068.057c.285,0,.5.2.754.271-.022.007-.035.025-.057.012.022.067.164.115.192.08.029.029-.016.037-.009.071.024.057.152.028.143.086,0,.01-.024,0-.034,0,.049,0,.118.116.136.044.051.089.157.108.187.189.084-.007.084.149.169.1-.081.061.051.179.121.207-.036,0,.006.063-.043.068.041.056.094.1.131.06-.024.168.219.181.124.319a2.091,2.091,0,0,1,.347.508c-.1.028-.082-.2-.178-.152.1.154.227.226.247.412,0,.049-.049-.014-.07-.025.094.166.075.344.159.5-.009,0-.022-.014-.034-.029.011.031,0,.076.042.066l-.016-.029c.059-.063.152.109.188.112-.137-.04-.014.169-.189.1a.063.063,0,0,0,.066.037c-.005.032-.022.044-.06.015.034.112.077.069.082.174-.022,0-.032-.021-.058-.03a.354.354,0,0,1,.06.082.166.166,0,0,1,.016.051.145.145,0,0,1,0,.029c0,.018,0,.042,0,.064-.009-.006-.018,0-.025-.007a.306.306,0,0,0,.289.245.376.376,0,0,0,.329-.189c.05.134.076-.1.137-.115l-.029-.1Zm-1.237-2.9a.218.218,0,0,1-.038.038c-.014-.015-.026-.031-.04-.046A.068.068,0,0,1,52.117,43.745Zm-1.667-1.051.009.058-.074-.022A.118.118,0,0,1,50.451,42.694Zm-.506-.126a.063.063,0,0,1,0,.061l-.086-.014Zm-4.534,2.166-.017.047h0Zm-.064.152c.023,0,.04.018.03.036-.009-.016-.039.023-.066.044Z" transform="translate(-27.118 -28.982)"/><path class="d" d="M57.315,49.431A.336.336,0,0,1,57.3,49.4C57.306,49.417,57.31,49.426,57.315,49.431Z" transform="translate(-31.766 -31.648)"/><path class="d" d="M46.264,48.7l-.016,0,.012.017Z" transform="translate(-27.62 -31.387)"/><path class="d" d="M54.827,43.163a.089.089,0,0,0-.019.02h0Z" transform="translate(-30.83 -29.311)"/><path class="d" d="M57.136,48.379l-.005-.013C57.113,48.338,57.122,48.358,57.136,48.379Z" transform="translate(-31.697 -31.257)"/><path class="d" d="M58.243,48.514a.311.311,0,0,1,.036.052C58.28,48.534,58.279,48.51,58.243,48.514Z" transform="translate(-32.118 -31.317)"/><path class="d" d="M55.978,45.847h0l-.006-.009Z" transform="translate(-31.267 -30.314)"/><path class="d" d="M52.354,42.435l-.018,0a.017.017,0,0,1,0,.01Z" transform="translate(-29.902 -29.037)"/><path class="d" d="M52.232,42.471l.043-.013C52.261,42.456,52.243,42.454,52.232,42.471Z" transform="translate(-29.864 -29.046)"/><path class="d" d="M53.156,42.549c.03-.028.1.07.138.042-.033-.015-.078-.064-.13-.059Z" transform="translate(-30.211 -29.074)"/><path class="d" d="M58.068,47.275l.021-.059-.056-.008Z" transform="translate(-32.039 -30.828)"/><path class="d" d="M38.664,42.737c-.026-.029-.027-.072,0-.088-.022,0-.054-.064-.1-.031a.293.293,0,0,0,.125.154c-.012.019-.034.01-.048.013.048.019.106.1.176.059C38.744,42.78,38.764,42.754,38.664,42.737Z" transform="translate(-24.738 -29.104)"/><path class="d" d="M38.249,43.54a.072.072,0,0,0,.027-.019l-.026.008Z" transform="translate(-24.621 -29.445)"/><path class="d" d="M34.571,42.289a.208.208,0,0,1,.025.057C34.588,42.3,34.668,42.285,34.571,42.289Z" transform="translate(-23.241 -28.983)"/><path class="d" d="M38.222,43.523l.018,0a.033.033,0,0,0,0-.024C38.235,43.512,38.23,43.52,38.222,43.523Z" transform="translate(-24.61 -29.436)"/><path class="d" d="M25.932,43.727a.129.129,0,0,0-.049-.043.061.061,0,0,0-.01.016Z" transform="translate(-19.98 -29.506)"/><path class="e" d="M21.4,42.973c.014-.028-.032-.114.018-.073a.457.457,0,0,0,.248.173.475.475,0,0,0,.132.016l.061,0a2.37,2.37,0,0,1,.246.026c.165.025.331.06.494.078.119.011.067-.206.218-.111l-.043.074c.241-.089.492,0,.728-.072-.014.017-.014.039-.038.039.05.054.184,0,.185-.041.037.005.008.039.031.062.049.032.125-.068.151-.015.005.009-.014.018-.023.021.033-.026.152.007.121-.055.088.029.169-.028.239.009.046-.069.151.033.166-.065-.006.1.155.082.211.034-.019.031.049.031.027.074.064,0,.122-.02.111-.072.118.121.236-.1.3.057a3.859,3.859,0,0,1,.535-.115c-.006.1-.188.01-.181.116.161-.042.255-.128.415-.1.042.014-.024.044-.037.061.161-.041.313.009.456-.046,0,.009-.016.02-.031.027.028,0,.066.014.063-.031l-.028.013c-.046-.066.112-.139.117-.174-.048.131.142.033.066.2a.061.061,0,0,0,.037-.061c.028.009.037.027.009.062.1-.025.065-.074.157-.073,0,.022-.019.031-.028.057A.176.176,0,0,1,26.708,43c-.005.014,0,.031-.019.031.134-.007.228-.115.374-.073-.043.1.05.032.058.115l.079-.025L27.167,43c.069,0,.13-.059.189-.032l-.051.034.129-.016-.073-.032c.07-.042-.007-.1.084-.082-.019.008.069,0,.1.05h0c.034-.026.069-.054.12-.034.013.027-.011.092,0,.11.034-.069.162-.019.2-.094a.1.1,0,0,0-.01.071l.028-.057c.032.018.036.027.031.062.1.01-.031-.106.084-.06-.009,0-.005.013-.024.021.115.024.221-.036.327-.008.031.084-.092.021-.057.091a2.18,2.18,0,0,1,.461-.081l-.028-.009c.021-.118.109.059.184,0-.018.009-.024.066-.019.052a.96.96,0,0,0,.358-.067l-.019.031a1.158,1.158,0,0,0,.22.029c.019-.03.056-.025.033-.069.2.173.377-.093.552.051-.021,0-.05.027-.034.027l.149-.028c-.012-.051-.019-.031-.051-.071a.123.123,0,0,1,.1-.054c-.067.034,0,.083.03.112,0-.016.005-.034,0-.049.077.091.013-.1.119-.043l-.006.028c.04-.014.076-.05.119-.042.018.059-.042.028-.045.077.06,0,.119-.113.173-.054-.026.017-.062.017-.087.034.059.07.066.052.11.063l0,0,.1.032-.026-.019c.076-.156.154-.029.256-.131-.1.1-.017.056-.024.124.026.019.066.04.054.059.048-.054.08.043.148-.037,0,.022.051,0,.041.057.063-.017-.015-.038-.01-.065.1-.074.226.09.365-.012.111-.039.141-.1.232-.143h.024c.018.033-.034.069-.034.069a.164.164,0,0,0,.163,0c-.012.019,0,.035.017.06.046-.006.031-.079.091-.048a.294.294,0,0,1-.046.087A.913.913,0,0,0,32,42.963a.349.349,0,0,0,.12-.073c.042.021-.022.08-.061.109.138-.03.233-.221.169-.263a.225.225,0,0,1-.042.042c.011-.027.056.007.049.039-.019.111-.112.077-.119.058a.244.244,0,0,0,.036-.045c-.065-.027-.084,0-.133.024a.326.326,0,0,1-.137.054l.027-.076H32a.168.168,0,0,0,0-.335H31.99A.942.942,0,0,0,32,42.389a.039.039,0,0,0,.04.019.323.323,0,0,1,.054-.063.319.319,0,0,0-.1.006v.007a.158.158,0,0,0-.088-.122l-.088.064-.028-.051.074,0c-.042-.048-.069-.006-.1.023a.084.084,0,0,0-.037-.056l-.086.1c-.011-.041.039-.081-.019-.1-.041.046.039.091-.028.122-.042-.048-.03-.086-.079-.046a.045.045,0,0,1,.023-.056c-.044.032-.117.014-.139.069-.044-.058-.149.015-.144-.083a.226.226,0,0,1-.118.081c.074-.118-.152-.007-.132-.133-.054.106-.2.047-.294.106.006-.008.016-.025.024-.02-.054-.009-.07-.041-.1-.061-.007.087-.092.107-.138.161-.067-.084.041-.1.02-.184,0,.071-.116.071-.094.13-.051-.052-.044-.026-.071-.1-.009.109-.048.019-.09.086-.074-.054-.019-.1-.1-.069-.039-.034.033-.072.033-.072-.083,0-.039.081-.056.128-.1.024-.046-.061-.079-.1-.062.022-.109.1-.155.094,0-.013-.013-.018,0-.035-.065.065-.194,0-.27.085a.044.044,0,0,1-.009-.02.327.327,0,0,1,.011.113c-.037,0-.069.052-.083,0,.022,0,.024-.02.035-.037l-.039.023c-.035-.077.053-.027.053-.084-.076.026-.164.089-.222.067-.012-.076.136-.025.058-.092l.09.029c-.069-.119.055.008-.008-.119-.119-.022-.132.039-.251.016-.026.042.009.063-.018.1-.168.076-.132-.191-.256-.089-.032.051-.044.146-.132.1l.03-.086c-.114-.009-.065.123-.185.066.021-.034.09-.029.072-.039-.077-.068-.055.049-.115.049l-.012-.076c-.123.012-.257.067-.392.081.007-.022.031-.046,0-.069a1.143,1.143,0,0,1-.528-.054l-.063.066a.026.026,0,0,1-.011-.042c-.064-.024,0,.042-.034.068a.032.032,0,0,1-.025-.058.545.545,0,0,1-.441.049l.023-.019c-.092-.026-.1.134-.191.073L27,42.311c-.2-.029-.424.031-.577-.068-.029.094-.2-.042-.213.089-.115-.065-.082-.089-.244-.132-.043-.006-.064.083-.118.1v-.069l-.072.072-.038-.083-.051.018a.054.054,0,0,1,.039.051.175.175,0,0,1-.192-.083l-.186.058c0-.028.036-.038.06-.055-.1.071-.018-.072-.109-.008.013.016-.006.041-.009.055a.281.281,0,0,0-.224-.024l.014-.047c-.137-.012-.289.022-.444.022a.061.061,0,0,1,0,.112l-.018-.073c-.029.045.048.027-.013.082-.058-.008-.039-.082-.006-.106l-.07.025c0-.021.012-.033.016-.061-.029.045-.121-.073-.163.006l0-.022c-.154,0-.224.024-.349.028,0,.063-.052.049-.089.1a1.123,1.123,0,0,0-.306-.064c-.078.031-.023.053-.058.091-.006-.058-.117-.052-.059-.093a1.29,1.29,0,0,0-.339.058c.018.024.039.034.028.053a.055.055,0,0,1-.066-.051l.008-.006c-.189.086-.437-.167-.588-.048l.009-.006-.157.063c-.072-.01.043-.043-.01-.079-.169.1-.266-.014-.406.05a.155.155,0,0,0-.107-.071.31.31,0,0,0-.069-.005l-.036,0a.484.484,0,0,0-.1.013.556.556,0,0,0-.386.607l.032-.034C21.4,42.858,21.36,42.9,21.4,42.973Zm8.374-.086a.3.3,0,0,1,0-.054h.051A.067.067,0,0,1,29.775,42.887Zm1.636,0-.022-.053h.065A.11.11,0,0,1,31.411,42.886Zm.428.007a.076.076,0,0,1-.009-.06H31.9Zm-3.579-.563.04,0-.04.005Zm-.092,0c.006.022,0,.044-.017.043.009-.014-.029-.027-.054-.046A.5.5,0,0,0,28.167,42.334Z" transform="translate(-18.266 -28.928)"/><path class="d" d="M28.582,42.254v.016l.014-.014Z" transform="translate(-20.995 -28.97)"/><path class="d" d="M36.611,43.5a.108.108,0,0,0,.006-.027h0Z" transform="translate(-24.006 -29.427)"/><path class="d" d="M29.033,43.634l-.012,0C28.994,43.649,29.013,43.644,29.033,43.634Z" transform="translate(-21.155 -29.488)"/><path class="d" d="M31.272,43.4a.286.286,0,0,1-.046.03C31.251,43.433,31.27,43.435,31.272,43.4Z" transform="translate(-21.987 -29.4)"/><path class="d" d="M26.529,43.754h0Z" transform="translate(-20.222 -29.532)"/><path class="d" d="M38.911,43.267a.012.012,0,0,1-.007-.008l-.012.033Z" transform="translate(-24.862 -29.347)"/><path class="d" d="M38.924,43.164c.01-.022.021-.051.006-.07A.335.335,0,0,1,38.924,43.164Z" transform="translate(-24.874 -29.285)"/><path class="d" d="M37.852,43.52c.028.005.071.048.111.034l0-.018C37.948,43.57,37.879,43.481,37.852,43.52Z" transform="translate(-24.472 -29.441)"/><path class="d" d="M32.335,43.464l-.06.017.04.035Z" transform="translate(-22.381 -29.424)"/><path class="d" d="M38.664,48.452c-.026-.029-.027-.072,0-.087-.022,0-.054-.064-.1-.031a.293.293,0,0,0,.125.154c-.012.019-.034.01-.048.013.048.019.106.1.176.059C38.744,48.5,38.764,48.469,38.664,48.452Z" transform="translate(-24.738 -31.247)"/><path class="d" d="M38.249,49.255a.072.072,0,0,0,.027-.019l-.026.008Z" transform="translate(-24.621 -31.588)"/><path class="d" d="M34.6,48.061c-.008-.045.072-.061-.025-.057A.208.208,0,0,1,34.6,48.061Z" transform="translate(-23.241 -31.126)"/><path class="d" d="M38.222,49.238l.018,0a.032.032,0,0,0,0-.024C38.235,49.227,38.23,49.235,38.222,49.238Z" transform="translate(-24.61 -31.579)"/><path class="d" d="M25.932,49.442a.137.137,0,0,0-.049-.044.08.08,0,0,0-.01.016Z" transform="translate(-19.98 -31.649)"/><path class="e" d="M32.191,48.494c.011-.028.056.007.049.039-.019.111-.112.077-.119.058a.244.244,0,0,0,.036-.045c-.065-.028-.084,0-.133.024a.326.326,0,0,1-.137.054l.027-.076H32a.168.168,0,0,0,0-.335H31.99A.942.942,0,0,0,32,48.1a.039.039,0,0,0,.04.019.324.324,0,0,1,.054-.063.319.319,0,0,0-.1.006v.007a.158.158,0,0,0-.088-.123l-.088.064-.028-.051.074,0c-.042-.048-.069-.006-.1.023a.084.084,0,0,0-.037-.056l-.086.1c-.011-.041.039-.081-.019-.1-.041.046.039.091-.028.121-.042-.047-.03-.086-.079-.045a.045.045,0,0,1,.023-.056c-.044.032-.117.014-.139.069-.044-.058-.149.015-.144-.083a.226.226,0,0,1-.118.081c.074-.118-.152-.007-.132-.133-.054.106-.2.047-.294.106.006-.008.016-.026.024-.02-.054-.009-.07-.041-.1-.061-.007.088-.092.108-.138.161-.067-.084.041-.1.02-.184,0,.071-.116.071-.094.13-.051-.053-.044-.026-.071-.1-.009.109-.048.019-.09.086-.074-.054-.019-.1-.1-.069-.039-.034.033-.073.033-.073-.083,0-.039.081-.056.128-.1.024-.046-.061-.079-.1-.062.022-.109.1-.155.094,0-.013-.013-.018,0-.036-.065.066-.194,0-.27.086a.044.044,0,0,1-.009-.02.327.327,0,0,1,.011.113c-.037,0-.069.052-.083,0,.022,0,.024-.02.035-.037l-.039.023c-.035-.078.053-.027.053-.084-.076.026-.164.089-.222.068-.012-.076.136-.025.058-.093l.09.029c-.069-.119.055.008-.008-.119-.119-.022-.132.038-.251.016-.026.042.009.063-.018.1-.168.076-.132-.191-.256-.089-.032.051-.044.146-.132.1l.03-.086c-.114-.009-.065.123-.185.066.021-.034.09-.029.072-.039-.077-.068-.055.049-.115.049l-.012-.076c-.123.012-.257.067-.392.081.007-.023.031-.046,0-.069a1.143,1.143,0,0,1-.528-.054l-.063.066a.026.026,0,0,1-.011-.042c-.064-.025,0,.042-.034.068a.032.032,0,0,1-.025-.058.545.545,0,0,1-.441.049l.023-.019c-.092-.026-.1.134-.191.073L27,48.026c-.2-.029-.424.031-.577-.067-.029.094-.2-.042-.213.089-.115-.065-.082-.089-.244-.132-.043-.006-.064.082-.118.1v-.069l-.072.072-.038-.083-.051.018A.054.054,0,0,1,25.73,48a.175.175,0,0,1-.192-.083l-.186.058c0-.028.036-.037.06-.055-.1.07-.018-.073-.109-.008.013.016-.006.041-.009.055a.281.281,0,0,0-.224-.024l.014-.048c-.137-.012-.289.022-.444.022a.06.06,0,0,1,0,.112l-.018-.072c-.029.045.048.028-.013.083-.058-.008-.039-.083-.006-.106l-.07.025c0-.021.012-.033.016-.061-.029.045-.121-.073-.163.006l0-.022c-.154,0-.224.024-.349.028,0,.062-.052.049-.089.1a1.123,1.123,0,0,0-.306-.064c-.078.031-.023.053-.058.09-.006-.057-.117-.051-.059-.093a1.29,1.29,0,0,0-.339.058c.018.024.039.034.028.053A.055.055,0,0,1,23.145,48L23.153,48c-.189.086-.437-.167-.588-.047l.009-.006-.157.063c-.072-.01.043-.043-.01-.079-.169.1-.266-.014-.406.05a.155.155,0,0,0-.107-.071.31.31,0,0,0-.069-.005l-.036,0a.526.526,0,0,0-.1.013.556.556,0,0,0-.386.607l.032-.033c.065.084.022.124.063.2.014-.028-.032-.114.018-.073a.457.457,0,0,0,.248.173.475.475,0,0,0,.132.016l.061,0a2.369,2.369,0,0,1,.246.026c.165.025.331.06.494.078.119.011.067-.206.218-.111l-.043.074c.241-.089.492,0,.728-.072-.014.017-.014.039-.038.039.05.054.184,0,.185-.041.037,0,.008.039.031.062.049.032.125-.069.151-.015.005.009-.014.017-.023.021.033-.026.152.007.121-.055.088.029.169-.028.239.009.046-.069.151.034.166-.064-.006.1.155.082.211.034-.019.03.049.031.027.074.064,0,.122-.02.111-.072.118.121.236-.1.3.057a3.859,3.859,0,0,1,.535-.115c-.006.1-.188.01-.181.116.161-.042.255-.128.415-.1.042.014-.024.044-.037.061.161-.041.313.009.456-.046,0,.009-.016.019-.031.028.028,0,.066.014.063-.031l-.028.012c-.046-.066.112-.139.117-.174-.048.131.142.033.066.2a.061.061,0,0,0,.037-.061c.028.009.037.027.009.062.1-.025.065-.074.157-.073,0,.022-.019.031-.028.057a.176.176,0,0,1,.171-.068c-.005.014,0,.031-.019.031.134-.007.228-.115.374-.073-.043.1.05.031.058.115l.079-.025-.031-.041c.069,0,.13-.059.189-.032l-.051.034.129-.016-.073-.032c.07-.043-.007-.106.084-.082-.019.008.069,0,.1.05h0c.034-.026.069-.054.12-.034.013.027-.011.092,0,.11.034-.069.162-.019.2-.094a.1.1,0,0,0-.01.071l.028-.057c.032.018.036.027.031.062.1.01-.031-.106.084-.061-.009,0-.005.013-.024.022.115.024.221-.036.327-.008.031.084-.092.021-.057.091a2.18,2.18,0,0,1,.461-.081l-.028-.009c.021-.118.109.059.184,0-.018.008-.024.066-.019.052a.96.96,0,0,0,.358-.067l-.019.031a1.211,1.211,0,0,0,.22.029c.019-.03.056-.025.033-.069.2.173.377-.093.552.051-.021,0-.05.027-.034.027l.149-.028c-.012-.052-.019-.031-.051-.071a.123.123,0,0,1,.1-.054c-.067.034,0,.083.03.112,0-.016.005-.034,0-.049.077.091.013-.1.119-.042l-.006.027c.04-.014.076-.05.119-.042.018.059-.042.028-.045.077.06,0,.119-.113.173-.054-.026.017-.062.017-.087.034.059.07.066.052.11.063l0,0,.1.032-.026-.019c.076-.156.154-.029.256-.131-.1.1-.017.056-.024.124.026.019.066.039.054.059.048-.054.08.043.148-.037,0,.022.051,0,.041.057.063-.017-.015-.038-.01-.065.1-.074.226.09.365-.012.111-.039.141-.1.232-.143h.024c.018.033-.034.069-.034.069a.164.164,0,0,0,.163,0c-.012.019,0,.035.017.06.046-.006.031-.079.091-.048a.294.294,0,0,1-.046.088A.915.915,0,0,0,32,48.678a.349.349,0,0,0,.12-.073c.042.02-.022.08-.061.109.138-.03.233-.221.169-.263A.225.225,0,0,1,32.191,48.494Zm-3.932-.449.04,0-.04,0Zm-.092,0c.006.022,0,.044-.017.043.009-.014-.029-.027-.054-.046A.5.5,0,0,0,28.167,48.049Zm1.608.552a.289.289,0,0,1,0-.053h.051A.065.065,0,0,1,29.775,48.6Zm1.636,0-.022-.053h.065A.113.113,0,0,1,31.411,48.6Zm.428.007a.076.076,0,0,1-.009-.06H31.9Z" transform="translate(-18.266 -31.071)"/><path class="d" d="M28.582,47.969v.016l.014-.014Z" transform="translate(-20.995 -31.113)"/><path class="d" d="M36.611,49.215a.108.108,0,0,0,.006-.027h0Z" transform="translate(-24.006 -31.57)"/><path class="d" d="M29.033,49.349l-.012,0C28.994,49.364,29.013,49.359,29.033,49.349Z" transform="translate(-21.155 -31.631)"/><path class="d" d="M31.272,49.114a.286.286,0,0,1-.046.03C31.251,49.148,31.27,49.15,31.272,49.114Z" transform="translate(-21.987 -31.543)"/><path class="d" d="M26.529,49.469h0Z" transform="translate(-20.222 -31.675)"/><path class="d" d="M38.892,49.007l.019-.025a.012.012,0,0,1-.007-.008Z" transform="translate(-24.862 -31.49)"/><path class="d" d="M38.924,48.879c.01-.022.021-.051.006-.07A.335.335,0,0,1,38.924,48.879Z" transform="translate(-24.874 -31.428)"/><path class="d" d="M37.852,49.234c.028.006.071.049.111.034l0-.018C37.948,49.284,37.879,49.2,37.852,49.234Z" transform="translate(-24.472 -31.584)"/><path class="d" d="M32.316,49.231l.019-.052-.06.017Z" transform="translate(-22.381 -31.567)"/><rect class="f" width="4.44" height="3.33" rx="1.335" transform="translate(3.525 6.478)"/><path class="d" d="M26.667,32.573c.088-.115-.149-.207,0-.294-.051-.031-.036.062-.1.035.011-.048.11-.12.109-.141.032-.094-.114-.069-.1-.157A.093.093,0,0,1,26.452,32c0-.054.086-.1.116-.067.006.014,0,.022-.009.024.014.016.031.039.052.009h-.027c.02-.037-.011-.119.035-.113-.04-.038-.046-.005-.048.032.009-.089-.042-.118-.058-.2-.006.019-.028.043-.034.032-.03-.12-.068-.022-.117-.081.007-.058.087-.04.012-.086-.009-.056.047-.051.077-.046-.084-.033-.07-.134-.1-.176l.044.017a.177.177,0,0,1-.057-.041l-.018.053c-.012-.023-.028-.037-.013-.052-.041.007-.045.074-.111.077,0-.042-.087-.036-.055-.1.064.078.033-.062.108-.016a.09.09,0,0,1-.049-.04c0-.008.012-.009.019-.008-.046-.109-.081.032-.164-.021.031-.026.017-.075,0-.077.036.023-.016.065-.061.073-.042-.054-.071-.009-.1-.026l.027.028c-.028.031-.051.01-.094.008.007-.029.042-.006.034-.023-.066.048-.074-.106-.154-.077-.024-.033.015-.071-.009-.095-.086.031-.076-.068-.166-.04.019.055.022.041-.037.087a1.168,1.168,0,0,1,.134-.019l-.093.062c.037.006.084-.02.106-.008-.046.035-.039.023-.029.068-.039-.084-.1.029-.154-.024l.008-.128c-.1-.062-.146.064-.253.031l.033.023c-.013.051-.062.007-.1.028,0-.043-.017-.059-.031-.086,0,.032-.075,0-.084.083L25,31.028c-.083-.023-.094.123-.173.108.024-.046-.012-.077.041-.11-.027,0-.051-.008-.051.021-.016-.027-.073.058-.1.017-.011.019-.015.063-.044.06a.044.044,0,0,1,0-.021c0,.021-.046.029-.021.076-.081-.134-.227.009-.3-.1a1.1,1.1,0,0,1-.179.031c0-.013,0-.021.01-.017-.073-.04-.044.123-.126.078-.042-.069.043-.037.017-.064-.012-.141-.1.019-.154-.063l.013-.008c-.042-.048-.1.054-.172.044a.05.05,0,0,0,0-.021.344.344,0,0,1-.2.115c.021-.055.03-.029.017-.085-.029.008.009.09-.051.106-.019-.03-.062-.056-.068-.116l.056,0c-.029-.078-.073,0-.1-.011l0-.034c-.086.011-.087.1-.179.091l.01.026c-.051.084-.042-.047-.092.015l-.016-.086a.81.81,0,0,1-.176.1c.034-.063.1-.1.146-.134a.2.2,0,0,0-.106.033.016.016,0,0,1,.02,0,.177.177,0,0,1-.159.1c.009-.166-.163-.044-.238-.166-.131.073-.285.019-.441.1.107.092-.043.024.026.138-.026.022-.038.027-.045.022h0a1.348,1.348,0,0,0-.136-.009c-.044-.016.013-.045-.006-.067-.077.041-.061-.026-.131-.019.039.032.016.071-.033.091a.777.777,0,0,1,.093,0c-.043.128-.157-.018-.194.123l0-.058c-.028.061-.159.187-.094.3-.019,0-.057,0-.051-.033-.1.129-.034.341-.117.432l-.03-.017c0,.03.052.057.015.087-.013,0-.031-.016-.034,0s.048.079.028.112l-.035-.033c-.052.156.086.189.106.3-.095,0-.126.091-.142.137h-.013c-.012.136.079.23.116.356-.1.078-.043.264-.1.389.018-.019.074,0,.084.026-.019.029.066.081-.021.076l0-.011c-.086.022-.063.083-.066.13l.114.007c-.166.123.061.323-.087.391.029.03.028.064.057.1h-.061a.535.535,0,0,0,.025.285l-.049-.017c.016.077.193.048.216.1l-.08.048c.039.112.035.271.177.324-.012.006-.035.019-.051,0,.028.051.1.222.18.117-.058.059.087.1.16.1l-.044.042c.091-.029.1-.044.176-.026.01.016-.012.05-.024.024.034.058.066-.025.112.033l-.041.023c.053.031.058.01.1-.018.042-.01.1.052.091.107.018-.029.061-.064.089-.041a.04.04,0,0,1-.023.035c.092.064.155-.04.216.022a.057.057,0,0,0,.009.037.39.39,0,0,1-.138-.024c-.011.055.059.075-.009.142.066-.029.167-.116.224-.089a.1.1,0,0,1,.007.019l-.006.006a.031.031,0,0,0,.034-.009.105.105,0,0,0,.045.017c.006.046.064.024.091.027,0-.061.034-.051,0-.1,0,0-.005.007-.024.009a.043.043,0,0,0-.012.006l0,0-.069,0c.022-.031.045-.057.076-.023l.039-.1c.038.085.111.131.121.183.085-.034.2-.022.253-.137.024-.015.028.033.036.051-.014.012-.03.01-.038.026.048-.029.142-.011.154-.091.061.036-.034.074.049.061l-.011.024c.164.128.267-.2.449-.04-.013-.01-.019-.015-.022-.028.207.072.427-.068.632.047.058.023.064-.028.1-.067l.012.066.061-.076c.086-.056.149.161.258.056l-.014-.044c.039.008.124-.026.118.025,0-.008.013-.046.028-.023v.034l.1-.059c.074.024-.012.136.1.142.041-.013.115-.1.1-.123a.057.057,0,0,1-.043-.056l.038-.018v-.019h.006a1.02,1.02,0,0,0,.423-.094l0,.019,0-.023c.016-.008.031-.017.047-.025.005.012.009.026,0,.036.06.021.017-.046.074-.021.007,0,.008.009.006.014L26,34.944c0,.021.041.05.011.052.1,0,.061-.126.126-.09v.009c.036-.057.016-.068-.006-.091a.061.061,0,0,0,.009-.038l.012-.012c.034.017.069.036.1.052l-.041-.052a.03.03,0,0,1,.044,0c-.008-.059-.026-.014-.044-.058.08,0,.059-.126.153-.081-.034-.042-.059.021-.06-.044.106.044.016-.062.081-.081.046.039,0,.068.066.046-.075-.068.061-.079.058-.13a.042.042,0,0,1-.031-.036c.021.014.03.026.031.036a.154.154,0,0,0,.042.009c.007-.011-.049-.033-.074-.046,0-.034.024-.083.016-.134.026.01.064-.122.091-.19l.013,0c-.077-.016-.064-.074-.08-.12a.1.1,0,0,1,.088.034v-.043a.073.073,0,0,1-.048-.05l.059.011c0-.056-.07-.113-.03-.185-.038,0-.095.022-.14.016V33.7a.054.054,0,0,1,.042.016c0-.006-.025-.023-.013-.036l.051.031c.023-.033-.042-.017-.038-.044.043,0,.031-.019.064-.016,0,.007-.017.023,0,.033a.117.117,0,0,1,.066-.077c-.024,0-.058,0-.063-.021,0-.056.051-.019.073-.052-.029-.014,0-.049-.062-.051,0-.016.03-.019.048-.026-.028-.029-.008-.136-.076-.1l0,.007,0,0c-.064-.1.036-.2.009-.292h.022c-.025-.056-.015-.125-.061-.166,0-.016.039-.039.064-.032-.016-.043-.04-.048,0-.11.037.043.033-.015.027.044.019-.056.053-.069-.006-.129.055.021.069-.042.053-.069l-.039.039a.183.183,0,0,1,0-.083Zm-3.8,2.747,0-.007a.122.122,0,0,1-.008.031c-.018.009-.024,0-.027-.016A.173.173,0,0,0,22.869,35.32Zm3.089-1.569a.831.831,0,0,1,.031.155c-.012,0-.021,0-.017-.009-.04.063.123.039.079.11-.069.036-.038-.038-.064-.015-.14.012.019.087-.066.113l-.007-.009c-.049.019.044.071.021.117a.061.061,0,0,0-.02-.007.174.174,0,0,1,.044.179c-.039-.042-.014-.034-.067-.055,0,.023.082.039.07.089a.2.2,0,0,1-.124-.029l.02-.032c-.074-.031-.025.039-.051.046l-.023-.024c-.027.045.029.111-.029.146l.021.017c.017.093-.052-.022-.051.051l-.051-.069a.285.285,0,0,1-.08.139c.008-.068.041-.116.047-.162a.118.118,0,0,0-.051.057c0-.006.007-.009.013,0,0,.072-.034.118-.085.125-.018-.162-.121-.029-.178-.161-.1.061-.2-.026-.317-.016.042.129-.034,0-.027.136-.026.008-.036.006-.039,0h0l-.083-.079c-.019-.038.026-.029.024-.059-.06-.01-.026-.056-.065-.091.008.048-.021.067-.055.049l.048.061c-.084.071-.073-.111-.157-.041l.027-.042c-.043.025-.16,0-.2.106-.008-.015-.018-.051,0-.061-.1-.016-.231.113-.311.048l.007-.033c-.019.009-.034.061-.057.028,0-.013.007-.032,0-.034s-.051.056-.077.037l.022-.036c-.1-.042-.155.089-.239.111a.154.154,0,0,0-.119-.143v-.013c-.118-.012-.2.079-.309.116-.068-.1-.229-.043-.337-.1.016.017,0,.074-.022.084-.025-.019-.07.066-.066-.021l.009,0c-.019-.086-.072-.063-.112-.066l-.007.115c-.118-.164-.254.057-.261-.106-.024.024-.042.015-.071.036l.025-.056a.233.233,0,0,0-.1-.068l.036-.029c-.017-.016-.142.111-.174.088l.059-.071c-.044-.047,0-.127-.1-.143.013,0,.037-.012.044-.006-.009-.027.032-.1-.089-.069.081-.017,0-.056-.038-.094l.061,0c-.079-.031-.1-.038-.12-.092.007-.013.048-.011.033.006.032-.044-.057-.034-.025-.087l.039.019c0-.045-.016-.041-.061-.066-.024-.028.016-.085.07-.092-.033-.006-.078-.031-.062-.057a.046.046,0,0,1,.039.011c.041-.075-.07-.112-.011-.163a.072.072,0,0,0,.036-.009.334.334,0,0,1-.009.1c.056,0,.065-.048.142-.01-.042-.039-.134-.1-.107-.152l.019-.006.006.005c.006-.011,0-.021-.009-.03a.091.091,0,0,0,.017-.039c.046-.006.024-.056.027-.079-.061,0-.051-.029-.1,0,0,0,.007,0,.01.021a.034.034,0,0,0,.006.01l0,0,0,.06c-.031-.019-.057-.039-.023-.066l-.1-.033c.085-.033.131-.1.183-.106-.034-.073-.022-.173-.137-.219-.015-.021.032-.024.051-.031.012.012.01.026.026.033-.029-.042-.011-.124-.091-.134.036-.052.074.03.061-.042l.024.009c.128-.142-.2-.231-.04-.389a.046.046,0,0,1-.028.019.583.583,0,0,0,.013-.26.183.183,0,0,1,.1-.194c.04-.021,0-.051-.017-.1l.058.033a.587.587,0,0,1-.03-.082c.012-.094.18.045.18-.076l-.031-.032c.028-.01.073-.066.088-.018,0-.008-.008-.046.011-.028l.013.032a.467.467,0,0,1,.05-.078c.059.011.025.132.092.128.019-.016.069-.1.06-.128-.012,0-.033-.019-.036-.054l.031-.019v-.019h.384l0,.017.011-.017h.045c0,.012,0,.024-.012.029.036.044.032-.032.063.018,0,.008,0,.012,0,.016l.034-.027c-.007.019.006.064-.016.051.063.052.1-.067.124,0l-.005.006c.064-.022.038-.048.046-.092h.041l.03.112.008-.066a.028.028,0,0,1,.024.034c.033-.046-.006-.029.014-.072.042.061.118-.028.128.077.015-.051-.041-.039,0-.074.013.113.053-.02.093.033-.012.058-.049.028-.01.079.024-.1.077.022.11,0a.043.043,0,0,1,.019-.041c0,.024-.011.036-.019.041a.194.194,0,0,0,0,.043c.009,0,.012-.058.016-.084.025-.014.069,0,.108-.018,0,.027.1.043.156.072v.013c.01-.079.063-.064.1-.081a.108.108,0,0,1-.029.088h.036a.069.069,0,0,1,.044-.048l-.009.06c.049,0,.1-.07.161-.031,0-.038-.019-.095-.014-.14h.031a.059.059,0,0,1-.013.042c.006,0,.02-.025.031-.012l-.026.051c.028.022.015-.042.037-.037,0,.042.017.031.014.064-.006,0-.02-.017-.029,0a.106.106,0,0,1,.067.065c0-.024,0-.058.019-.063.049,0,.017.052.045.074.012-.03.043,0,.044-.063.014,0,.017.03.022.048.025-.028.118-.008.089-.076l-.007,0,0,0c.082-.064.171.036.253.009v.021c.049-.024.108-.014.143-.061.014,0,.034.039.028.065.037-.016.041-.041.1-.005-.038.037.012.033-.039.028.049.018.059.052.112-.006a.041.041,0,0,0,.059.053l-.034-.039a.112.112,0,0,1,.068,0l-.011.071c.049.086.159-.131.171.031.037-.04-.024-.047.011-.1.036.022.022.132.029.136.014.054.09-.073.117-.018.011-.023.044-.085.1-.075.027.038-.038.112-.067.112-.008,0-.006-.013,0-.019a.032.032,0,0,0-.04.029l.019-.017c0,.031.03.059-.008.082.032,0,.038-.021.034-.044,0,.056.044.051.047.1.008-.013.03-.036.034-.029.007.073.058,0,.091.04-.024.041-.088.029-.041.059-.016.035-.062.028-.084.028.06.017-.012.072-.017.089l-.024-.011a.021.021,0,0,1,.016.022l.049-.019c-.007.013-.006.021-.027.024.036.007.083-.022.133,0-.024.019.031.053-.036.06.02-.051-.069.006-.082-.031.009.006.009.015,0,.026a.026.026,0,0,1-.019,0c-.059.051.078.027.077.093-.039-.009-.073.017-.065.028,0-.029.064-.014.094.012-.03.046.023.049.019.073l.014-.027c.038.009.033.032.046.063-.03,0-.021-.029-.034-.017.068.035-.07.079-.024.128-.026.023-.072,0-.09.022.05.054-.052.059-.011.117.052-.017.039-.019.089.021l-.036-.095.075.061c0-.028-.033-.06-.024-.077.042.029.029.026.072.012-.077.039.045.078-.007.123l-.128,0c-.057.068.066.121.034.209l.022-.028c.051.012.007.054.028.083a.142.142,0,0,0-.085.027c.032,0,0,.065.082.073l-.056.039c-.023.071.122.081.108.15-.047-.021-.077.011-.11-.036,0,.023-.009.044.021.044-.027.014.057.064.017.084.019.01.064.013.06.039a.055.055,0,0,1-.021,0c.021,0,.029.04.076.017C25.929,33.563,26.073,33.689,25.958,33.751Zm-3.7-.385a.126.126,0,0,1,.031.006c.009.016,0,.021-.016.023a.132.132,0,0,0-.007-.027Zm.971-1.8h0Zm2.732,3.365s0-.007-.006-.009l.014-.007C25.967,34.923,25.966,34.929,25.962,34.934Z" transform="translate(-18.299 -24.736)"/></g></g></g></svg>