<svg xmlns="http://www.w3.org/2000/svg" width="25.745" height="12.829" viewBox="0 0 25.745 12.829"><defs><style>.a{fill:#0068f5;}</style></defs><path class="a" d="M-41.992,10.054a.646.646,0,0,0-.913,0h0l-.835.835-.835-.835a.646.646,0,0,0-.913-.022.646.646,0,0,0-.022.914l.022.022.835.835-.835.835a.645.645,0,0,0-.022.913.645.645,0,0,0,.913.022l.022-.022.835-.835.835.835a.647.647,0,0,0,.914-.022.646.646,0,0,0,0-.89l-.835-.835.835-.835a.646.646,0,0,0,0-.913h0" transform="translate(51.467 -5.048)"/><path class="a" d="M-37.85,10.054a.646.646,0,0,0-.913,0h0l-.834.835-.835-.835a.647.647,0,0,0-.914-.022.647.647,0,0,0-.022.914l.022.022.835.835-.835.835a.646.646,0,0,0-.022.913.646.646,0,0,0,.914.022l.022-.022.835-.835.834.835a.647.647,0,0,0,.914-.022.646.646,0,0,0,0-.89l-.835-.835.835-.835a.646.646,0,0,0,0-.913h0" transform="translate(52.49 -5.048)"/><path class="a" d="M-33.707,10.054a.646.646,0,0,0-.913,0h0l-.835.835-.835-.835a.646.646,0,0,0-.913-.022.646.646,0,0,0-.024.914l.024.022.834.835-.834.835a.645.645,0,0,0-.024.913.646.646,0,0,0,.914.022l.022-.022.835-.835.835.835a.646.646,0,0,0,.913-.022.644.644,0,0,0,0-.89l-.834-.835.834-.835a.645.645,0,0,0,0-.913h0" transform="translate(53.513 -5.048)"/><path class="a" d="M-30.991,18.829H-43.91a6.421,6.421,0,0,1-6.413-6.414A6.421,6.421,0,0,1-43.91,6h12.919a6.421,6.421,0,0,1,6.413,6.414A6.421,6.421,0,0,1-30.991,18.829ZM-43.91,8.494a3.924,3.924,0,0,0-3.919,3.92,3.925,3.925,0,0,0,3.919,3.92h12.919a3.925,3.925,0,0,0,3.919-3.92,3.925,3.925,0,0,0-3.919-3.92Z" transform="translate(50.323 -6)"/></svg>