<svg xmlns="http://www.w3.org/2000/svg" width="24" height="16.216" viewBox="0 0 24 16.216"><defs><style>.a,.d{fill:none;}.a,.b{stroke:#0068f5;stroke-miterlimit:10;}.a{stroke-width:2px;}.b{fill:#0068f5;stroke-width:0.2px;}.c{stroke:none;}</style></defs><g transform="translate(-311.5 -439)"><g class="a" transform="translate(311.5 439)"><rect class="c" width="24" height="16.216" rx="4.054"/><rect class="d" x="1" y="1" width="22" height="14.216" rx="3.054"/></g><g class="a" transform="translate(314.743 442.892)"><rect class="c" width="5.189" height="4.541" rx="1.5"/><rect class="d" x="1" y="1" width="3.189" height="2.541" rx="0.5"/></g><g transform="translate(324.444 442.761)"><path class="b" d="M337.108,453.216a.579.579,0,1,1-1.158,0,2.9,2.9,0,0,0-5.792,0,.579.579,0,1,1-1.158,0,4.054,4.054,0,0,1,8.108,0m-4.054-7.956a1.158,1.158,0,1,1-1.158,1.159,1.159,1.159,0,0,1,1.158-1.159m0,3.475a2.317,2.317,0,1,0-2.317-2.317,2.319,2.319,0,0,0,2.317,2.317" transform="translate(-329 -444.102)"/></g></g></svg>