<svg id="Layer_1" data-name="Layer 1" xmlns="http://www.w3.org/2000/svg" viewBox="0 0 80 80"><defs><style>.cls-1,.cls-3{fill:#fff;}.cls-1{stroke:#202020;stroke-miterlimit:10;stroke-width:0.75px;opacity:0;}.cls-2{fill:#f3f8ff;fill-rule:evenodd;}.cls-4{fill:#ff7e94;}.cls-5{fill:#202020;}.cls-6{fill:#2d82f7;}.cls-7{fill:#8adaf4;}</style></defs><polyline class="cls-1" points="0 0 80 0 80 80"/><polyline class="cls-1" points="0 0 80 0 80 80"/><g id="Path_18915" data-name="Path 18915"><path class="cls-2" d="M42.44,15.26C29.59,15.26,8.9,30,11.22,45S28.35,67.76,42.44,67.76s27.24-8.39,27.24-22.84S55.31,15.26,42.44,15.26Z"/></g><rect class="cls-3" x="22.25" y="31.12" width="35.48" height="32.21" rx="2.87"/><path class="cls-4" d="M23.92,60H56.58A1.42,1.42,0,0,1,58,61.42V63a0,0,0,0,1,0,0H22.5a0,0,0,0,1,0,0V61.42A1.42,1.42,0,0,1,23.92,60Z"/><path class="cls-5" d="M57.47,59.48c0,.2,0,.35-.08.31s0,.31,0,.42a1.67,1.67,0,0,0,0-.92c0-.08.06,0,.08,0-.06-.23-.17-.5-.28-.35C57.38,59.18,57.33,59.24,57.47,59.48Z"/><path class="cls-5" d="M57.24,56.65a.71.71,0,0,0,0,.17l0-.16Z"/><path class="cls-5" d="M54.26,62.55h0S54.29,62.55,54.26,62.55Z"/><path class="cls-5" d="M43.77,62.6a.4.4,0,0,1,.16.09C43.88,62.61,44.38,62.59,43.77,62.6Z"/><path class="cls-5" d="M57.26,56.55v.11s0,0,0,0A.13.13,0,0,1,57.26,56.55Z"/><polygon class="cls-5" points="23.11 59.51 23.09 59.51 23.11 59.6 23.11 59.51"/><path class="cls-5" d="M57.36,45.87a.22.22,0,0,0,0,.08S57.35,45.91,57.36,45.87Z"/><path class="cls-5" d="M57.33,48.31l0,.35A2.73,2.73,0,0,0,57.33,48.31Z"/><path class="cls-5" d="M57.28,50.19l0,0h0Z"/><path class="cls-5" d="M48.76,28.51h0Z"/><path class="cls-5" d="M57.23,58.41h0l0-.1Z"/><path class="cls-5" d="M57.26,58.53a.47.47,0,0,0,0,.21Z"/><path class="cls-5" d="M57.27,55.08a4.71,4.71,0,0,0-.06.71l0,0C57.19,55.69,57.33,55.26,57.27,55.08Z"/><polygon class="cls-5" points="57.31 33.09 57.25 33.34 57.33 33.47 57.31 33.09"/><path class="cls-5" d="M35.09,18.79a.19.19,0,0,1-.1,0C35.06,18.8,35,18.93,35.09,18.79Z"/><path class="cls-5" d="M46.08,27a.38.38,0,0,0,.11.08l0,0Z"/><polygon class="cls-5" points="41.78 16.76 41.79 16.73 41.76 16.75 41.78 16.76"/><path class="cls-5" d="M42,27.16h0C42.11,27.13,42.07,27.14,42,27.16Z"/><polygon class="cls-5" points="45.34 27.03 45.34 27.03 45.36 27.03 45.34 27.03"/><path class="cls-5" d="M49.75,27.07v0S49.79,27.07,49.75,27.07Z"/><path class="cls-5" d="M46,17.68a.82.82,0,0,1,.06.2C46.1,17.79,46.54,18.23,46,17.68Z"/><path class="cls-5" d="M36.53,64.12l-.64,0Z"/><path class="cls-5" d="M34,64.12a2,2,0,0,0-.35-.08l-.08,0Z"/><polygon class="cls-5" points="57.88 62.14 57.88 62.14 57.88 62.14 57.88 62.14"/><path class="cls-5" d="M48.19,21.69v0S48.19,21.71,48.19,21.69Z"/><path class="cls-5" d="M32.09,30.28a.62.62,0,0,1-.16,0s0,0,0,0l-.13,0h-.5c-.35,0-.68,0-.73.09a13.51,13.51,0,0,0-1.78-.2c-.31,0-.47.12-.86.14v-.1l-.52.11-.29-.13-.36,0c.14,0,.31.05.29.08a4.37,4.37,0,0,1-1.41-.13c-.23,0-.43,0-.69.05a3.93,3.93,0,0,0-.76.15s.16-.08.31-.13c-.24.06-.28.07-.31,0s-.07-.05-.42.12c.11,0,0,.07,0,.1a2.68,2.68,0,0,0-1.45,1v-.14A2.86,2.86,0,0,0,21.59,33a7.46,7.46,0,0,0,0,.81v.77c0-.37.17-.29.19,0l-.12.12c.07.19,0-.32.13.08s-.13.26-.17,0l0,.47s-.06-.08-.1-.11c.07.19-.12.8,0,1.08l0,0c0,1,0,1.49,0,2.33.1,0,.08.35.16.6,0,.61-.11,1.3-.1,2,.05.52.09.15.15.39-.1,0-.09.78-.16.39,0,.89,0,1.14.1,2.27,0-.12.05-.26.09-.19s0,.46-.09.44V44.5c.14,1.27-.28,2.92-.08,3.93v-.06l.11,1.05c0,.48-.08-.29-.13.06.15,1.13,0,1.79.08,2.71-.28.72,0,2.55-.16,3.52l.07-.05c.06.25,0,.3-.06.48.05,0,.06-.27.1-.11,0,1.06,0,2.16,0,3.26L21.54,61a3,3,0,0,0,.6,1.85,1.12,1.12,0,0,0,.66.48,4.36,4.36,0,0,1,.87.46,2.32,2.32,0,0,1-.38-.05,4.19,4.19,0,0,0,1.49.37c.52,0,.91,0,1.37,0,.9,0,1.78,0,2.64,0a.57.57,0,0,1-.27.06A3.81,3.81,0,0,0,29.87,64c.26,0,.06.06.22.09.37,0,.92-.1,1.11,0,0,0-.1,0-.17,0,.24,0,1.11,0,.88-.08.64,0,1.23-.05,1.75,0,.33-.11,1.1,0,1.21-.1,0,.15,1.12.13,1.53,0-.13,0,.36,0,.2.12.46,0,.89,0,.81-.11.85.18,1.72-.15,2.2.08,1.38-.08,2.66-.14,3.9-.17,0,.15-1.37,0-1.32.18a28.09,28.09,0,0,1,3-.16c.3,0-.17.06-.27.09,1.17-.06,2.27,0,3.32-.07l-.22,0c.21,0,.48,0,.46,0l-.21,0c-.33-.1.82-.21.86-.26-.35.2,1,0,.48.3.14,0,.31,0,.27-.09.21,0,.27,0,.07.09.74,0,.47-.11,1.14-.11,0,0-.13.05-.2.09a4.35,4.35,0,0,1,1.24-.1s0,0-.13,0c1,0,1.65-.17,2.72-.11-.31.15.36,0,.42.17a3.4,3.4,0,0,0,.64-.09l-.26,0a3.91,3.91,0,0,0,1.37-.52,1.86,1.86,0,0,1-.32.23,3.06,3.06,0,0,0,.82-.56,3.88,3.88,0,0,1-.48.3c.38-.36-.13-.08.4-.48a4.65,4.65,0,0,0,.54-.54c.08-.23.15-.46.27-.79.06-.09.13.1.17.05s0-.43,0-.71a2.57,2.57,0,0,0-.08-.71c0,.1.1.1.12.07L58.27,60c0-.21,0-.24.1-.21,0-.64-.18.21-.1-.56a.74.74,0,0,1,0,.16c0-.76-.06-1.48,0-2.18.14-.21,0,.61.15.38,0-1-.16-2.1-.13-3.08l0,.18c-.19-.13.1-.73,0-1.22,0,.12.11.15.08.12a20.11,20.11,0,0,0-.11-2.39l0,.13c0-.4,0-1,0-1.47,0-.13,0-.37-.11-.22.29-1.32-.16-2.52.08-3.69,0,.14,0,.34,0,.22l0-1c-.08.08-.05.13-.12.34a2.23,2.23,0,0,1-.09-.66c.06.45.14,0,.19-.19,0,0-.06,0-.08,0,.15-.52-.18-.09-.07-.8l0,0a6.8,6.8,0,0,1-.07-.8c.1-.12,0,.29.13.3a4.22,4.22,0,0,1-.09-1.16c0,.18,0,.42.06.59a2.4,2.4,0,0,0,.1-.74v0l0-.68,0,.18c-.26-.51,0-1-.22-1.71.16.66.1.11.21.16,0-.17.06-.44.1-.36-.09-.32.07-.54-.07-1,0,0,0-.34.1-.27,0-.42-.06.1-.11.06-.12-.64.15-1.51,0-2.43-.06-.74-.17-.93-.24-1.53v-.2c.06-.12.12.25.12.25a4.42,4.42,0,0,0,0-1.09c0,.08.06,0,.1-.12,0-.32-.12-.21-.14-.62a.91.91,0,0,1,.19.3A2.76,2.76,0,0,0,57.9,32c0-.12.21.17.29.3a2,2,0,0,0-.9-1,2,2,0,0,1,.18.23c-.11-.11,0-.12.11,0,.33.26.3.48.29.51l-.18-.23a2.2,2.2,0,0,0,.29.67,2,2,0,0,1,.26.89l-.15-.2a2.86,2.86,0,0,0-2.94-2.5h-.06a.6.6,0,0,0,.08-.16.36.36,0,0,0,.18,0,.81.81,0,0,1,.18-.1h-.39c0-.07-.21-.13-.63-.18l-.65.1-.2-.08h.54a1.52,1.52,0,0,0-.72,0,.51.51,0,0,0-.27-.08l-.63.15c-.08-.07.28-.13-.14-.16s.28.14-.21.18c-.31-.07-.22-.13-.58-.06,0,0,0-.07.17-.09a6,6,0,0,0-1,.11c-.32-.09-1.09,0-1.06-.13a4.27,4.27,0,0,1-.86.12c.27-.09,0-.09-.33-.09h-.28s0,0,0-.09a.18.18,0,0,1-.07.05Zm25,2h0a.89.89,0,0,1,.32.59c0,.07-.16,0-.18,0a.87.87,0,0,1,.13.51,1.91,1.91,0,0,0,.08.61c0-.08-.1-.09-.12-.06l.1.16c0,.19,0,.21-.1.18,0,.56.17-.17.1.49,0,0,0,0,0-.14,0,.66.06,1.28,0,1.89-.14.18,0-.53-.15-.33,0,.88.17,1.82.14,2.67v-.16c.2.12-.1.63,0,1.06,0-.1-.11-.14-.09-.11a19.15,19.15,0,0,0,.11,2.07l0-.11c-.05.34,0,.9-.05,1.27.05.11,0,.32.12.2-.29,1.14.15,2.17-.09,3.18,0-.12,0-.28,0-.19l0,.86c.09-.06.05-.11.12-.29a1.65,1.65,0,0,1,.09.57c-.06-.39-.14,0-.18.17,0,0,0,0,.08,0-.15.45.17.08.07.69l0,0a3.84,3.84,0,0,1,.07.69c-.1.1,0-.24-.13-.26,0,.35.19.69.09,1,0-.15,0-.36-.05-.51a1.71,1.71,0,0,0-.11.64v0l-.06.59,0-.15c.26.43,0,.89.22,1.47-.16-.57-.09-.09-.2-.14,0,.15-.07.38-.1.32.09.28-.07.46.06.85,0,0,0,.3-.1.24,0,.36.07-.09.11-.06.13.56-.15,1.31,0,2.11.07.64.17.8.24,1.32v.18c-.06.1-.12-.22-.12-.22a3.29,3.29,0,0,0,0,.94c0-.06-.06,0-.1.11,0,.26.13.17.08.52a1,1,0,0,1-.14-.26c0,.31.1.61.13.94-.06.08-.1-.2-.14-.31a3.44,3.44,0,0,0,.16,1l0-.23c0,.13-.08.06-.1,0-.08-.31,0-.45.07-.47l0,.23c.22-.24,0-.92,0-1.38l.13.16V61l-.16-.06a.24.24,0,0,0,0-.13l-.12-.13,0,.28h0c-.08,0-.16.15-.25.41a1.59,1.59,0,0,1-.06.43l-.15.09a1.37,1.37,0,0,0,.16-.32,1,1,0,0,0-.2.43.46.46,0,0,0-.19.09,1.44,1.44,0,0,1-.22.4c-.08,0,.08-.21-.18-.07s.27,0,0,.23c-.25,0-.2,0-.43.1,0,0,0-.07.09-.12-.19.13-.58.15-.7.23-.27-.09-.94,0-.91-.13a3.22,3.22,0,0,1-.74.13c.46-.18-1,0-.84-.2a12.26,12.26,0,0,1-1.86.16.29.29,0,0,1,.16,0,5.78,5.78,0,0,1-.67-.1c0,.14-.58.17-.87.25-.42-.13.26-.16.13-.28,0,.11-.74.11-.59.2-.32-.08-.28,0-.45-.15-.05.16-.3,0-.56.13-.47-.08-.13-.16-.64-.11-.24,0,.21-.11.21-.11-.52,0-.24.13-.35.2-.63,0-.29-.09-.5-.16-.39,0-.69.15-1,.15,0,0-.08,0,0-.06-.42.1-1.23,0-1.71.13l-.06,0c.08.06.09.13.07.17-.23,0-.43.08-.52,0a.32.32,0,0,0,.22-.06l-.24,0c-.22-.12.33,0,.33-.13a9,9,0,0,1-1.4.1c-.08-.11.86,0,.37-.14l.57.05c-.44-.19.34,0-.06-.19-.74,0-.83.06-1.58,0-.16.06.06.09-.11.16-1.06.11-.83-.29-1.61-.14a1.1,1.1,0,0,1-.84.15l.19-.13c-.72,0-.41.18-1.17.1.14,0,.57,0,.46-.06-.49-.1-.35.07-.72.07l-.08-.11c-.77,0-1.62.1-2.47.12,0,0,.19-.07,0-.11A28.32,28.32,0,0,1,32,62.65l-.4.1c-.09,0-.17,0-.07-.06-.4,0,0,.06-.21.1s-.31-.06-.16-.09a13.53,13.53,0,0,1-2.78.08l.14,0c-.58,0-.66.2-1.2.11l.1,0c-.63,0-1.3,0-1.93,0H25a2.22,2.22,0,0,1-.38,0,1.6,1.6,0,0,1-.6-.29c-.11,0-.33-.12-.49-.3s-.28-.37-.4-.36a1.33,1.33,0,0,1-.08-.52v-.24l0-.48c0-.25-.13-.38-.16-.69h.12L23,59.48l.13-.23,0-.29c0,.12-.05.25-.08.23a2.37,2.37,0,0,1,.14-1.11L23,57s.06.2.09.34c-.11-.57.12-.1,0-.63,0,.07-.07,0-.09,0a5.77,5.77,0,0,0,0-1.29l.07.08c0-.79,0-1.67,0-2.56,0,.32-.17.24-.19,0l.12-.1c-.07-.17,0,.27-.13-.08s.13-.22.17,0l0-.4s.06.07.1.09c-.07-.16.12-.7,0-.94l0,0c0-.89,0-1.3-.05-2-.1,0-.08-.3-.16-.52,0-.53.11-1.12.1-1.76,0-.46-.09-.14-.15-.34.1,0,.09-.67.16-.34,0-.77,0-1-.1-2,0,.1,0,.22-.09.16s0-.4.09-.38v0c-.14-1.1.28-2.53.08-3.4v0L23,40c0-.41.07.25.13-.05-.15-1,0-1.55-.08-2.35.28-.62,0-2.21.16-3l-.07,0c-.06-.21,0-.26.06-.42-.05,0-.06.24-.1.1a7.14,7.14,0,0,1,0-1.32,1.79,1.79,0,0,1,.66-1,2,2,0,0,1,1.14-.38l1.51.05c.75,0,.43-.31,1.37-.17l-.26.11c1.51-.13,3.1,0,4.59-.11a.46.46,0,0,1-.24.06,2.59,2.59,0,0,0,.75,0,.85.85,0,0,0,.43-.06l-.19,0c.1,0,.17,0,.17-.05.23,0,0,.06.2.09.31.05.79-.1,1,0s-.09,0-.15,0c.2,0,1,0,.76-.08.56,0,1.07,0,1.51,0,.29-.1,1,.05,1-.09,0,.15,1,.12,1.33.05-.12,0,.31,0,.17.11.4,0,.77,0,.7-.11.74.18,1.49-.15,1.91.09,1.19-.09,2.3-.14,3.37-.18,0,.16-1.19,0-1.14.18a23.17,23.17,0,0,1,2.62-.16c.26,0-.15.07-.24.09.44,0,.85,0,1.26,0l.11,0,.11,0a12.82,12.82,0,0,0,1.4-.05s-.1,0-.2.05c.18,0,.42,0,.4-.05l-.17,0c-.29-.1.71-.21.74-.27-.31.2.89.05.41.31.12,0,.27-.05.24-.1.17,0,.23,0,0,.1a7.81,7.81,0,0,1,1-.11s-.12,0-.18.08a3.59,3.59,0,0,1,1.08-.1s0,.05-.12.05c.84,0,1.43-.18,2.36-.12-.28.15.31.05.36.18l.45,0-.16-.08a1.88,1.88,0,0,1,1,.23c-.09,0-.19-.05-.28-.08a2.08,2.08,0,0,1,.62.34,1.93,1.93,0,0,0-.3-.27c.37.16.07-.17.48.18C56.67,31.73,57.06,32.08,57.09,32.3ZM34.31,62.76h.45s0,.08-.11.07C34.71,62.81,34.46,62.79,34.31,62.76Zm1,0h0Zm22.22-8.89a.55.55,0,0,1-.09-.27l.09-.14Zm0,2.83-.1-.4c0-.07.06-.11.1-.09Zm0-13.09s-.07-.11-.09-.33a.13.13,0,0,1,.09,0ZM37.39,16.9l-.13.06s0-.07,0-.08S37.34,16.89,37.39,16.9ZM37.1,17l-.07,0,.07,0Zm-.17-1.16-.27.14h0Zm-.88.47c.06,0,0,.07-.07.13.05-.05-.21.07-.38.15C35.72,16.55,35.89,16.46,36.05,16.35ZM58.2,45.9a.09.09,0,0,1-.09,0v-.38S58.18,45.65,58.2,45.9Zm-.09-11.76v-.48a.76.76,0,0,1,.09.32Z"/><path class="cls-5" d="M24.46,27.15l.17,0Z"/><polygon class="cls-5" points="27.89 27.08 27.89 27.11 28 27.09 27.89 27.08"/><path class="cls-5" d="M58.32,42.9s0,0,0-.08Z"/><path class="cls-5" d="M58.34,40.09l0-.4C58.36,39.86,58.35,40,58.34,40.09Z"/><path class="cls-5" d="M58.39,37.92l0,0h0Z"/><path class="cls-5" d="M48.05,64h0Z"/><path class="cls-5" d="M57.88,62.14a2.3,2.3,0,0,1-.15.32C57.85,62.31,57.93,62.17,57.88,62.14Z"/><polygon class="cls-5" points="36.6 64.12 36.6 64.11 36.53 64.11 36.6 64.12"/><path class="cls-5" d="M57.73,62.46l-.32.39A1.38,1.38,0,0,0,57.73,62.46Z"/><polygon class="cls-5" points="58.37 57.67 58.43 57.38 58.34 57.24 58.37 57.67"/><path class="cls-5" d="M40.38,50.12s0,.06,0,.08a.29.29,0,0,0,.06-.28c0,.12-.06.07-.1.22s-.07,0-.07-.09-.06,0-.08.06S40.31,50.2,40.38,50.12Z"/><path class="cls-5" d="M40.89,49.84l0,0,0,0Z"/><path class="cls-5" d="M37.34,48.89c0-.07.13,0,0-.1Z"/><path class="cls-5" d="M40.92,49.85h0v0A.06.06,0,0,1,40.92,49.85Z"/><path class="cls-5" d="M42.8,42.45a.17.17,0,0,0,0-.1h0Z"/><polygon class="cls-5" points="40.56 50.02 40.57 50.01 40.56 50.01 40.56 50.02"/><path class="cls-5" d="M40.57,50.12s0-.08,0-.1l-.05.06Z"/><polygon class="cls-5" points="36.02 44.63 36 44.63 36.02 44.65 36.02 44.63"/><path class="cls-5" d="M42.13,49.45l0,0h0Z"/><path class="cls-5" d="M44.17,44.33h0S44.15,44.31,44.17,44.33Z"/><path class="cls-5" d="M44.57,46.09a.21.21,0,0,1,0-.06S44.51,46.09,44.57,46.09Z"/><polygon class="cls-5" points="43.1 42.74 43.11 42.74 43.1 42.73 43.1 42.74"/><path class="cls-5" d="M40.54,49.88v0l0,0Z"/><path class="cls-5" d="M40.48,49.94l0,0A0,0,0,0,0,40.48,49.94Z"/><path class="cls-5" d="M41.21,49.8s-.11-.06-.15,0v0C41.07,49.75,41.19,49.87,41.21,49.8Z"/><path class="cls-5" d="M44.32,46.85l-.07,0,.07,0Z"/><path class="cls-5" d="M40.43,40.27s0,.06,0,.08a.27.27,0,0,0,.1-.27c-.06.12-.07.07-.14.2s-.08,0-.07-.08-.08,0-.11,0S40.34,40.35,40.43,40.27Z"/><path class="cls-5" d="M41.11,40.14l0,0h0Z"/><path class="cls-5" d="M36.44,41.26l.09,0C36.48,41.26,36.56,41.15,36.44,41.26Z"/><path class="cls-5" d="M41.13,40.16h0v0S41.12,40.16,41.13,40.16Z"/><path class="cls-5" d="M43.85,49.92a.2.2,0,0,0-.11,0v0Z"/><polygon class="cls-5" points="34.55 46.85 34.58 46.85 34.55 46.83 34.55 46.85"/><path class="cls-5" d="M42.65,40.71l0,0h0Z"/><path class="cls-5" d="M45.47,47.21v0C45.48,47.28,45.48,47.25,45.47,47.21Z"/><path class="cls-5" d="M45.43,45l.06.07S45.49,45,45.43,45Z"/><polygon class="cls-5" points="44.28 49.51 44.27 49.51 44.26 49.52 44.28 49.51"/><path class="cls-5" d="M40.67,40.06h0Z"/><path class="cls-5" d="M40.58,40.11l.05,0A0,0,0,0,0,40.58,40.11Z"/><path class="cls-5" d="M41.5,40.25s-.1-.1-.17-.1v0S41.44,40.31,41.5,40.25Z"/><path class="cls-5" d="M45.33,44l0-.08h-.09A.41.41,0,0,1,45.33,44Z"/><path class="cls-5" d="M50.65,30.82c-.12.27,0-1.08-.15-1.78a.72.72,0,0,1,0,.22,6.85,6.85,0,0,1,.13-.94c-.19-.06-.23-.82-.35-1.23.18-.6.22.36.4.17-.15,0-.15-1-.28-.83.11-.46.05-.39.2-.64-.25-.08-.06-.46-.24-.84,0-.7.19-.21,0-1,0-.32.16.11.2.25-.14-.72-.24-.29-.37-.43-.3-.89,0-.45,0-.79-.26-.54-.56-.91-.77-1.29,0,0,0-.12.06-.05a9.11,9.11,0,0,0-1.63-2,.17.17,0,0,1,0-.1c0,.14,0,.21-.11.23-.25-.25-.53-.39-.54-.56a.6.6,0,0,0,.29.19,3.4,3.4,0,0,0-.3-.23c-.12-.34.41.31.49.24-.54-.5-1.3-.91-1.73-1.26,0-.2,1.1.72.58.18.23.18.42.4.63.59-.33-.61.4.36.12-.23a5.11,5.11,0,0,0-1-.75c-.28-.18-.57-.32-1.07-.63-.28-.06,0,.15-.27.1a4.26,4.26,0,0,1-1.26-.65,1.55,1.55,0,0,0-1-.39,2.4,2.4,0,0,1-1.34,0l.32-.13a1.74,1.74,0,0,0-.91,0,2.86,2.86,0,0,1-.95,0c.21-.1.9,0,.73-.07-.78-.18-.55.09-1.14.11l-.14-.15a11,11,0,0,0-3.71,1.11c0-.08.24-.21-.07-.13a13.15,13.15,0,0,0-4.1,3.13,3.57,3.57,0,0,0-.23.57c-.08.11-.2.18-.14,0-.38.5.06.07-.05.35s-.29.36-.23.15l-.35.88c-.1.35-.25.7-.33,1.07-.19.74-.32,1.49-.42,2.05l0-.22c-.11.88.24,1,.11,1.74l0-.14c0,.8,0,1.64,0,2.45A10.68,10.68,0,0,1,29.57,31l1.55-1.31c-.16-.25.2-.59,0-.94s-.23-.37-.31-.6v-.06c.07,0,.15.09.15.09a.48.48,0,0,0,0-.42s.08,0,.13-.05-.17-.08-.1-.23a.62.62,0,0,1,.19.11c-.05-.14-.13-.27-.18-.42s.13.09.18.14c0-.16-.07-.42-.2-.47l-.05.11c0-.06.11,0,.14,0s-.05.2-.1.21l0-.11c-.27.11,0,.42,0,.62l-.16-.07V26L31,26a.06.06,0,0,0,0,.07l.16.05,0-.12h0a.39.39,0,0,0,.28-.21l-.12-.22.11-.07v.18c.1-.1,0-.16,0-.24a.15.15,0,0,0,.12-.08l-.2-.23c.09,0,.16.11.23,0s-.21.07-.25-.1c.12-.09.2-.05.13-.18a.09.09,0,0,1,.11.07c-.05-.12,0-.28-.09-.36.13-.08,0-.36.25-.31a.51.51,0,0,1-.1-.32c.2.24.11-.35.36-.23-.18-.19.08-.48,0-.74,0,0,0,.05,0,.07s.14-.13.22-.19c-.16-.09-.11-.29-.16-.44.24-.07.15.18.34.2-.15-.05,0-.31-.15-.32.16-.06.1-.07.27-.06-.21-.12,0-.12-.05-.27.2-.1.22.07.26-.14.12,0,.09.15.09.15.12-.17-.09-.17-.16-.25.09-.24.17,0,.3-.06s0-.32.06-.41,0,0,.06,0c0-.2.28-.39.29-.63h0a.47.47,0,0,1-.21-.13c.06-.07,0-.2.15-.15s0,.07,0,.12l0-.11c.19,0,0,.14,0,.21.09-.17.15-.42.29-.5.14.09-.2.29,0,.24l-.2.12c.31,0-.11.09.2.15.24-.17.16-.3.43-.45,0-.11-.11-.08-.13-.19.23-.39.52.07.63-.27,0-.13-.1-.3.15-.35l0,.19c.24-.15,0-.3.3-.38,0,.08-.15.18-.1.17.24,0,0-.17.18-.24l.12.11a8.82,8.82,0,0,1,.8-.61c0,.05,0,.12.07.12a2.68,2.68,0,0,1,1.3-.37l.11-.17s.09,0,.06.08c.17,0,0-.09,0-.15s.14,0,.1.09a1.42,1.42,0,0,1,1.09-.3l0,0c.24,0,.24-.31.48-.2l0,0c.26,0,.54,0,.8,0a1.68,1.68,0,0,1,.7.16c.1-.2.5.15.57-.12.28.18.19.2.57.37.1,0,.2-.12.35-.11l0,.13.23-.09,0,.18a.66.66,0,0,1,.14,0s-.09-.09-.07-.13c.22,0,.44.25.41.32.16,0,.33,0,.5,0,0,.05-.12,0-.19.05.29-.05,0,.15.24.12,0,0,.06-.07.07-.09a.93.93,0,0,0,.5.28l-.08.07c.29.18.67.3,1,.52a.12.12,0,0,1,.15-.18l0,.15c.11,0-.07-.12.13-.12s0,.19-.13.18l.18.06s-.07,0-.11.08c.12,0,.15.28.33.22l0,0c.28.26.47.32.69.53.1-.08.17,0,.31,0,.13.2.24.44.41.66s.13,0,.25,0c-.09.08.09.29-.07.23a7.36,7.36,0,0,0,.58.63c0-.06,0-.12.06-.11s.05.17,0,.19l0,0c.41.34.17,1.1.52,1.35h0a2,2,0,0,1,.26.32c0,.17-.12-.08-.16.07.31.34.16.62.34.93-.17.16-.11.38-.07.62a1.05,1.05,0,0,1,0,.66l.08,0c.09.09,0,.11-.06.18s.07-.1.12,0a12.82,12.82,0,0,1-.2,2.53c0,.31.44.18.24.56L48.57,29a3.37,3.37,0,0,1,.09.95Z"/><circle class="cls-3" cx="40.4" cy="45.83" r="4.29"/><path class="cls-6" d="M44.91,45.74c0-.09-.09-.17-.06-.25l0,.07,0-.18,0,.1c-.06-.09-.14,0-.12-.1s0-.09.06-.15h0c0-.05-.09-.09-.07-.16s.13,0,.15,0-.06-.21-.17-.24a.16.16,0,0,0,.1,0l-.09,0s0-.06.07-.06-.13.07-.11-.09l0,0c0-.16-.12-.27-.13-.41s.07.11.14,0c-.09-.19-.27-.35-.34-.54v0c-.16,0,0-.17-.1-.22s.1,0,.08,0a1.13,1.13,0,0,0-.34-.37h0c0-.09-.1-.18-.14-.26s-.07,0-.1,0c0-.36-.42-.29-.46-.59,0,0,.08,0,.06,0l-.17-.11c0,.07,0,0,0,.12a.12.12,0,0,1-.14,0c.09,0,.07-.09.07-.14s0,0,0,0c0-.16-.1.1-.16,0l0,0c-.06,0-.12,0-.16,0s.06,0,.11-.05-.22,0-.23-.07l.12,0c0-.13,0-.11-.07-.15h0l-.09-.11v0c-.2.14-.19-.08-.38,0,.18-.07,0-.06.11-.14s-.06-.09,0-.11-.08-.1-.21,0-.06,0,0-.1,0,.06,0,.09-.24-.23-.47-.16-.22.09-.35.12h0c0-.05.07-.09.07-.09a.21.21,0,0,0-.21,0s0,0,0-.08-.06.1-.13,0a.76.76,0,0,1,.08-.11l-.23.08c0-.06.05-.07.08-.1s-.22,0-.25.1l.05,0s0-.07,0-.09.1.05.1.08h0c0,.19.21,0,.31,0l0,.1a4.15,4.15,0,0,0-.79-.07h0a1,1,0,0,0,0-.16,0,0,0,0,0,0,0l0-.11-.07,0h0a.2.2,0,0,0-.12-.17l-.12.1L40,41h.1c-.06-.07-.09,0-.13,0a.17.17,0,0,0-.06-.08l-.11.15c0-.06,0-.12,0-.14s.07.12,0,.17-.06-.11-.12,0a.08.08,0,0,1,0-.09c-.06.06-.16,0-.18.13-.08-.08-.2,0-.22-.08a.31.31,0,0,1-.13.15c.05-.18-.21,0-.23-.13,0,.16-.25.16-.35.28s0,0,0,0a.47.47,0,0,1-.17,0c0,.12-.05.2-.08.29-.13-.07,0-.15-.08-.24,0,.08-.11.16,0,.22-.1,0-.07,0-.15-.08.06.14,0,.05-.06.16s-.09-.11-.17,0,0-.11,0-.11,0,.12,0,.19-.1,0-.17-.06-.06.2-.11.23,0,0,0,0c0,.13-.22.17-.23.32h0a.65.65,0,0,1,.12.11s0,.12-.09.07,0,0,0-.07v.06c-.11-.05,0-.07,0-.13-.05.09-.08.24-.16.27s.11-.15,0-.15l.12,0c-.18-.06.06,0-.12-.12-.14.09-.11.16-.24.26s.07,0,.09.12c-.08.24-.33,0-.34.18s.13.18,0,.23l-.07-.11c-.11.12.08.18-.08.26s0-.12,0-.11,0,.1,0,.17l-.1-.05a4.12,4.12,0,0,0-.18.53s0-.07-.09,0a2.12,2.12,0,0,1-.36.66l.06.11s0,0-.06,0,0,0,.08.07a0,0,0,0,1-.09,0,.94.94,0,0,1-.06.62l0,0c-.05.12.17.17.07.27l0,0c-.06.27,0,.57-.11.79.14,0,0,.29.15.28-.06.17-.1.13-.13.37,0,.06.13.06.17.13l-.1,0,.13.08-.1.08,0,.06s0-.07.06-.07a.28.28,0,0,1,0,.29l.17.22s-.07,0-.11-.06c.14.1-.08.07,0,.15s.05,0,.07,0,0,.21.1.29h-.07a4,4,0,0,0,.34.54.09.09,0,0,1,.13-.09l-.07.08c.07,0,0-.07.11,0s-.07.11-.12.09l.08.06s0,0-.08,0,0,.2.14.18l0,0a2.9,2.9,0,0,0,.36.35c.06-.06.1,0,.18,0a1.21,1.21,0,0,0,.26.36c.11,0,.07,0,.14-.05s.08.15,0,.15a1.12,1.12,0,0,0,.44.2s0-.06,0-.08a.07.07,0,0,1,0,.11h0c.27,0,.43.5.7.43h.22c.09,0-.08,0,0,.11.27,0,.36.12.57.09.1.26.53.08.72.23v-.06s.06,0,.1.05-.06-.05,0-.08c.44,0,.92.06,1.4,0,.17,0,0-.3.26-.23l0,.12c.28-.22.66-.24.91-.49,0,0,0,.06,0,.07s.22-.13.19-.18,0,0,.08,0,.1-.17.17-.13,0,0,0,0,.18-.12.1-.16c.12,0,.16-.17.27-.19s.19-.11.11-.23c.09.11.25-.06.25-.17,0,.05.07,0,.1.05s.09-.15,0-.19c.24,0,.1-.34.33-.28.1-.25.17-.5.25-.71.13.07-.11.23,0,.29.08-.22,0-.4.14-.58s0,.06.06.08c0-.22.17-.4.16-.61,0,0,0,0,0,0s0-.08,0-.1v.05c-.11,0-.15-.21-.2-.22.16.11.09-.18.3,0,0,0,0-.07-.07-.07s0,0,.08,0c0-.15-.08-.11-.06-.24s0,0,.08,0-.11-.14-.06-.24,0,0,0,0c0-.19-.14-.32-.07-.52.14.07.05-.06.17-.07a.49.49,0,0,0,0-.11Zm-8.08,1.65s0,0,0-.08a.13.13,0,0,0,0,.07S36.84,47.4,36.83,47.39Zm.11.08h0l0,0Zm3.29,2.24a.77.77,0,0,0,0-.15s0,0,0,0l0-.11-.06,0h0a.23.23,0,0,0-.09-.18l-.09.08,0-.07h.08c0-.07-.07,0-.11,0s0-.07,0-.08l-.11.13c0-.06.06-.11,0-.15s0,.14,0,.17,0-.12-.08-.08a.08.08,0,0,1,0-.07c-.05,0-.12,0-.16.07s-.16,0-.13-.14c0,0-.1.09-.15.08.12-.14-.15-.05-.08-.21-.1.13-.21,0-.34,0s0,0,0,0S38.9,49,38.88,49s-.15.1-.23.14c0-.13.1-.11.13-.22,0,.09-.15,0-.17.12,0-.09,0,0,0-.15-.08.13-.06,0-.14.06,0-.11.05-.14,0-.14s.08-.07.08-.07-.09.08-.14.12,0-.09,0-.16-.17,0-.21,0,0,0,0,0-.16-.12-.3-.08v0a.73.73,0,0,1-.09.13s-.11,0-.07-.06,0,0,.06,0h0c0-.11.07,0,.12,0s-.22,0-.24-.09.13.07.13-.06l.05.1c.06-.18,0,0,.1-.13s-.14,0-.2-.16-.06.07-.12.09S37.7,48,37.5,48s-.19.09-.19,0l.12,0c-.06-.1-.18,0-.19-.1s.09.06.09,0-.09,0-.13-.06l.08-.07c-.08-.1-.23-.17-.31-.3a.09.09,0,0,0,.09,0,.8.8,0,0,1-.15-.54l-.11,0s0,0,.06,0-.06,0-.1,0,0-.06.07,0-.25-.3-.17-.44l0,0c0-.1-.2-.09-.13-.19l0,0c0-.22-.08-.46.08-.62-.13,0,.07-.2-.11-.24.11-.11.14-.07.23-.22s-.1-.09-.11-.15l.1,0-.08-.1h.12v-.06a.07.07,0,0,1-.08,0c0-.09.12-.17.17-.16v-.21s0,.06,0,.09c-.06-.13.1,0,0-.1s0,0-.07,0a.23.23,0,0,0,.13-.2l.05,0c.07-.12.12-.27.2-.41-.06,0-.15,0-.13-.09l.09,0c0-.06,0,0-.08-.07s.12,0,.12.07l0-.07.06.06c0-.06.15,0,.09-.14l0,0c.09-.13.12-.2.2-.3s0-.09,0-.17A1.05,1.05,0,0,0,38,43c0-.09,0-.07,0-.14s.15,0,.13.07a1.44,1.44,0,0,0,.25-.28s-.06,0-.07,0,.09,0,.1,0h0c.11-.22.51,0,.58-.22h0l.12-.14c.08,0,0,.08,0,.1.12-.19.27,0,.38-.18.16.21.4-.09.57.06l0-.06s.05,0,.08,0,0,0,0-.08a1.6,1.6,0,0,1,1,.23c.11,0,.14-.26.25-.1l-.07.09c.28,0,.47.18.73.2,0,0,0,0-.06,0s.16.1.2,0,0,.05,0,.09.17,0,.14.06,0,0,0,0,.12.11.14,0c0,.08.17.07.19.16s.09.14.19,0c-.1.1.05.19.13.19s0,.07-.06.09.11.07.16,0c-.05.19.26.11.13.29a1.55,1.55,0,0,1,.44.4c-.13,0-.11-.17-.24-.09.14.11.28.15.33.32s-.06,0-.09,0,.11.31.22.43l0,0s0,.07.06,0l0,0c.08-.08.22.06.27.06-.19,0,0,.16-.25.13a.07.07,0,0,0,.09,0s0,0-.08,0,.11.05.13.15,0,0-.08,0,.13.08.12.17,0,0,0,0c0,.14.19.23.14.4-.14,0,0,.06-.16.07a.2.2,0,0,1,0,.08l.05,0c0,.07.08.14,0,.2l-.05-.06,0,.15L44,46c.05.08.15,0,.11.1s0,.08-.08.11h0s.06.09,0,.14-.12,0-.15,0,0,.18.09.24a.19.19,0,0,0-.09,0l.07,0s0,0-.09,0,.15,0,.06.11l0,0c-.06.11,0,.25-.09.35s0-.1-.1-.1c0,.16,0,.37-.09.51l0,0c.14.09-.13.07-.1.18s-.06-.07,0-.06-.08.22-.13.39l0,0c-.07,0-.12.12-.18.17s0,.07.06.09c-.33,0-.18.41-.48.39,0,0,0-.06,0-.05l-.1.14c.06.05,0,0,.11,0a.15.15,0,0,1,0,.13c0-.09-.08-.09-.13-.1s0,0,0,.06c-.15,0,.08.12-.07.12l0,0s0,.11-.07.13,0-.06,0-.12,0,.21-.12.17.05-.05.06-.09-.11,0-.16,0h0l-.12,0h0c0,.23-.12.13-.16.3,0-.17,0-.08-.06-.16s-.09,0-.09-.05-.1,0-.12.11-.05,0-.07,0,0,0,0,.08-.27,0-.36.16-.11.18-.2.26h0s0-.11,0-.11-.12,0-.18,0,0,0,0-.08,0,.12-.08.08a.69.69,0,0,1,0-.13,1.07,1.07,0,0,1-.16.14s0-.08.05-.12a.42.42,0,0,0-.14.09c0-.06.09,0,.09,0l0,0c.07.17.18-.06.27-.06l0,.11a4,4,0,0,1-.7.06Zm.81-.08-.08,0,0-.1A.11.11,0,0,1,41,49.63Zm.42-.11a.18.18,0,0,1,0-.09l.05.06Zm1.59-1a.09.09,0,0,1,0-.09l.06,0Zm.43-5.9a.12.12,0,0,1,0,0s0,0,0,0A.07.07,0,0,1,43.48,42.64Zm-1.8-1.14v.08l-.07,0S41.64,41.52,41.68,41.5Zm-.54-.16a.14.14,0,0,1,0,.09l-.1,0Zm-5,2.23v0h0Zm-.06.17s0,0,0,0-.05,0-.09,0A.56.56,0,0,0,36.06,43.74Z"/><path class="cls-5" d="M24.26,59.15l0,0,.07.14a.72.72,0,0,0-.26,0,1.21,1.21,0,0,1,.19,0,2.75,2.75,0,0,1-.72.08c0-.07-.16-.08-.39-.08a1,1,0,0,0-.4,0,.59.59,0,0,0-.27.31.47.47,0,0,0,.36.49c.21,0,.28,0,.44,0s.55,0,.85,0c-.21-.1.18,0,.14-.11h.21l.43.07c.1,0-.13,0-.12.05.31,0,.13,0,.34.07-.05,0,.1-.06.28,0l-.25-.05c.43-.06.38.09.81,0l-.13,0a5.22,5.22,0,0,0,1-.09s.1,0,0,0c.53,0,1.19-.09,1.61,0l0,0a.72.72,0,0,1,.3,0s0,0,0,0a2.1,2.1,0,0,1,.4,0l-.11,0a7.85,7.85,0,0,0,1.24-.09c0,.08.41.1.62.12h0c.61,0,1-.07,1.6-.1.35.09,1.19,0,1.75.09-.09,0,0-.06.11-.07s.37-.06.35,0h0a1.58,1.58,0,0,0,.58.06l0-.1c.55.14,1.45-.05,1.75.08.14,0,.3,0,.44,0v0c.37,0,.56,0,1,0l-.09,0c.26,0,.33-.14.56-.15l.08.08a10.14,10.14,0,0,0,1.35,0s0,0-.09,0c.21,0,.82,0,.74,0,0,.07.47,0,.71,0l0,0a1.16,1.16,0,0,1,.24-.07s0,0,.07,0l.1-.06h0l0,0h0c.23,0,.18-.05.45,0l-.1,0a.86.86,0,0,0,.34-.05,1.08,1.08,0,0,1,.48.05.69.69,0,0,1,.28-.05h0s0,0,0,0a3,3,0,0,0,.44,0h.42l0,0h-.53s.25,0,0,.11a3.84,3.84,0,0,1,.79-.08h.36s.29,0,.41,0,.15,0,0-.09c0,0,0,0-.11,0H45a.63.63,0,0,1,.34,0l.12-.06h.2a1.59,1.59,0,0,1,.4.11c.31,0,.7,0,1-.08,0,0,.09.05.51.05l.55,0h0c.73.11,1.2-.16,2,0l-.09,0c.93.06,1.92-.06,2.84,0a1.11,1.11,0,0,0,.45,0l.06,0,.27-.06a10.12,10.12,0,0,0,1.16,0l-.06,0c.17,0,.56,0,.53,0a.15.15,0,0,1,.12,0v0l.43-.05c.34,0,0,.11.44.12.18,0,.51-.08.45-.1s-.19,0-.2-.05h.17v0h0a.26.26,0,0,0,.27-.26.27.27,0,0,0-.27-.27H55.29l.08,0c-.19,0-.17,0-.33,0,0,0,0,0,0,0l-.18,0s0-.06.08,0c-.32,0-.52.06-.64,0h0c-.34,0-.2,0-.25.07h-.21l-.15-.09,0,.06s-.13,0-.12,0c-.17,0,0,0-.07.06s-.61,0-.66-.06.21,0,0,.06c-.07-.1-.27,0-.48,0,.07,0,.26,0,0-.07s-.39,0-.56,0c0,0-.05,0-.1,0a.23.23,0,0,1,.1,0l0,0s-.07,0-.09.07-.36,0-.56,0c0,0-.54,0-.81-.06h0c-.05.07-.33.05-.53.07,0,0,0-.06.15-.07h-.19a.51.51,0,0,1-.22,0l.05,0a7.41,7.41,0,0,1-.84,0s.11.08.08.11h-.17l.07,0a.71.71,0,0,1-.16,0l.14,0c-.15,0-.08,0-.2,0s-.09,0-.07,0,.1,0,.15,0a1.24,1.24,0,0,1-.35-.06s0,0-.1.06-.08-.05-.23-.06-.22,0-.23,0-.08,0-.11,0-.61,0-.46.06h0c-.43,0-.89,0-1.31,0v0a7.41,7.41,0,0,0-.75.05c-.07,0-.18,0-.14-.05a2.06,2.06,0,0,1-.5,0c.2,0-.07,0,.2,0a1.89,1.89,0,0,0-.58,0c.09,0-.19-.06-.31,0l.18,0a2.28,2.28,0,0,1-.37,0l.06-.06h-.09a.31.31,0,0,0,0-.1m-11.11.1M39,59.13s0,0,0,.06,0,0,0,0c-.17,0-.32,0-.43,0l.15,0h-.24l.09,0c-.09,0-.17,0-.17,0s.07.07-.11.11-.35,0-.4,0c.37,0,0,0,.28-.06H38s0,0,0,0c-.35,0-.16.07-.53.06.05,0-.08-.05-.14-.05.14,0,.07.05-.07.08a2.05,2.05,0,0,0-.38,0H37s-.16,0-.33,0c0,0,.15,0,.09,0s-.41,0-.66,0,0-.05-.11-.07c-.29,0-.31,0-.61,0,.08,0,.1,0-.11.07l.49,0-.32.06c.15,0,.32,0,.41,0l-.11,0h-.08l-.12,0-.21,0h-.18v-.1c-.35-.05-.62,0-1.08,0l.15,0h-.44s-.08,0-.14-.07-.33,0-.37.07l-.21,0a1.27,1.27,0,0,0-.48.06,1.08,1.08,0,0,0-.2,0l.09,0h-.12l-.07,0m12.95.93h0l0,0c-.09,0-.12,0-.13,0Zm-6-.92h0v.05C39.15,59.26,39.17,59.25,39.22,59.23Zm-7.82.05,0,0s0,0,0,0h0l0,0,0,0-.11,0A.18.18,0,0,0,31.4,59.28Zm11,0h0l0,0h0Zm.18-.09h0c0,.07,0,0-.07,0h0l0-.05,0,0h0l0,0-.08,0h0s0,0,0,0h0l0,0L42,59.25l0,0h-.23a.33.33,0,0,0-.14,0,0,0,0,0,0,0,0h-.07s0,0,0,0,0,0,0,.05h-.06l0,0s0,0,0,0,0,0-.08-.07,0,0-.06,0l.05,0c-.09.06-.08-.09-.18,0l0,0s-.19,0-.24.09,0,0,0,0a1.17,1.17,0,0,0-.27,0s0,0,0,0h-.07v0s0,0,0,0,0,0,0,0-.06,0-.08,0l0,0c-.09-.05-.16,0-.26,0m-9.73,0h-.07l0,0-.06,0c0-.07-.12,0-.25,0a.71.71,0,0,1-.37-.05,9.67,9.67,0,0,1-1.07,0c.07.05,0,.05,0,.05h-.16s0-.05,0-.06c.09,0,0,0-.06.07l-.22,0h0s.09,0,.09,0c-.21,0-.09,0-.22-.07s-.07,0-.19,0l.16,0c-.28.06-.24-.09-.53,0l.09,0a2.27,2.27,0,0,0-.68.09s-.06,0,0,0a9.94,9.94,0,0,1-1.05,0l0,0c-.06,0-.11,0-.17,0s0,0,0,0a.31.31,0,0,1-.21,0l.07,0m5.09,0,8.44,0h0l0-.06S39.12,59.18,39.13,59.22Zm15.84.2h0ZM39,59.2l0,0h0S39,59.21,39,59.2Zm-6.51.13a.31.31,0,0,1-.12,0l.19,0Zm-8.22,0,0,0-.38,0A2.15,2.15,0,0,1,24.3,59.3Z"/><path class="cls-7" d="M58.7,22.81h0l0-.06c0-.07,0,0,.1,0s.14,0,.13-.12,0-.13.11-.08,0,0,0-.07h0l.15,0a.81.81,0,0,0,.44-.4c.11,0,0-.14.14,0a.57.57,0,0,0,.64-.26h0a.27.27,0,0,1,.23.09c.1.11.11,0,.12.05a.52.52,0,0,0,.06-.16l.07-.19,0-.08a.1.1,0,0,0,.1,0l.17-.17s0-.18,0-.15.1,0,.16,0,0,0,0-.08l0-.07s.1,0,.12-.05,0-.1,0-.11.22,0,.23-.19h0c.16.06.16,0,.17-.19s.13,0,.08,0,.24-.14.34-.11,0-.2.07-.18h0l.07,0,.08,0,0-.15s.13.05.13-.08A.56.56,0,0,1,63,20a.23.23,0,0,1,.18-.14.57.57,0,0,0,.28-.75,1,1,0,0,0-.13-.18.53.53,0,0,0-.58-.07l0,.11h0c-.13-.18-.23-.29-.26-.23s-.1.24-.22.24-.05.13-.13.1-.22-.08-.25.11a.36.36,0,0,1-.22.32l-.57.38s0,.07-.08,0-.06.16-.27,0h0l0,.14c0,.06-.08,0-.09,0a.89.89,0,0,0-.06.15c0,.05,0,.09-.11,0s-.06,0,0,.1,0,.24-.06.15a.3.3,0,0,0-.2-.07.92.92,0,0,0-.18,0h0l0,.08a.21.21,0,0,0-.33.27,1,1,0,0,0,.12.34h0l-.19-.17,0,.13s-.17-.07-.15,0l-.17-.07s-.07,0,0,.13h0s-.21-.08-.2.18c-.1,0,0,.11-.2,0s-.13,0-.15.11a2,2,0,0,0-.12.31c0,.06-.14,0-.07.17-.09,0,0,.07,0,.1s0,.07-.13.08h0v.32c0,.06.07.12.1.18l.31.25a.28.28,0,0,0,.1.12Zm1.93-1.38Z"/><path class="cls-7" d="M59.68,26.79h0c.09.15.18.07.27,0h0s.37.06.56.07.26-.09.4.07h0s0-.08.11-.08a1.53,1.53,0,0,0,.49,0c.16-.06.07,0,.12.05h0c-.07,0,0-.11.09-.05s.07,0,.07,0a.78.78,0,0,1,.19-.12l.33-.06.11-.27h0l0,.07c0,.08-.06.15,0,.17a.5.5,0,0,0,.37,0,2.29,2.29,0,0,0,.86-.11.61.61,0,0,0,.55-.16.87.87,0,0,0,.18-1A.77.77,0,0,0,63.6,25c-.11,0-.23.09-.33-.12h0s-.12-.05-.18.22h0l-.3-.11c-.08,0-.25.15-.41-.07a.51.51,0,0,0-.13.34h0l0-.07c-.06-.14-.11-.27-.16-.25s-.14.05-.22-.08,0,.13-.1,0h0l-.06.16s-.28,0-.41,0-.08,0-.14-.05l-.08,0s-.12.12-.2,0a.14.14,0,0,0-.25,0c0,.1,0,.08,0,0s-.11-.14-.17,0,0,.08,0,.09l-.27,0a.18.18,0,0,1-.2-.08l-.14-.05a.87.87,0,0,0-.53.22.67.67,0,0,0-.19.25l0,.09a.42.42,0,0,0,.21.16l.23.09h0l-.09,0-.11,0s.09,0,0,.1a.31.31,0,0,0-.14.37.52.52,0,0,0,.31.35C59.37,26.85,59.56,27,59.68,26.79Z"/><path class="cls-7" d="M55.73,20.28a.21.21,0,0,0,.26-.15h0c0-.08.1-.08.06-.16s0-.08.13-.08,0-.07,0-.12-.06-.14,0-.13,0,0,0-.06h0s.13.05.16,0a1.1,1.1,0,0,0,.19-.5c.12.05-.06-.13.11-.08a.44.44,0,0,0,.13-.34h0s.1-.22.22-.17.09,0,.12,0a.3.3,0,0,0,.05-.15.59.59,0,0,0-.1-.17l0-.08s.06,0,.09-.05l.05-.13s-.12-.14,0-.14a.13.13,0,0,0,.13-.08l0-.07,0-.08c0-.07.11,0,0-.09s0-.08,0-.11.16-.11.09-.25h0s.12-.09.08-.19.12,0,0-.08,0-.07.12-.08-.12-.16,0-.17h0s.09,0,0-.08,0,0,0-.07,0-.14.06-.15.11,0,0-.11a.16.16,0,0,1,0-.22c0-.05,0-.12.07-.2a.56.56,0,0,0-.3-.73l-.13,0a.54.54,0,0,0-.48.23l0,.09h0l-.32-.13s.07.26-.1.27c.09.11,0,.15-.06.15s-.2.06-.14.19a.39.39,0,0,1,0,.35l-.22.58,0,.07a.19.19,0,0,1-.22.14h0l0,.12,0,.08c0,.07.05.1.06.14s0,.07,0,.1l0,.08c0,.07.17.17,0,.16s-.2,0-.2.08,0,.08-.14.09h0l0,.07a.16.16,0,0,0-.06.13,1.12,1.12,0,0,0,.28.24h0l-.17-.07c.07,0,.06.12,0,.11s-.17,0-.05.11l-.16.07,0,.09h0a.2.2,0,0,0-.13.06.19.19,0,0,0,.06.21c-.12,0,0,.15-.06.16s-.1.06,0,.12l0,.27s-.11.11,0,.18c-.1,0,0,0,0,.1l0,.07.1.18a.17.17,0,0,1,.1.15c0,.11.14.05.21.08S55.62,20.25,55.73,20.28Zm1.14-2.17-.07,0h0Z"/></svg>