<svg xmlns="http://www.w3.org/2000/svg" width="22.948" height="29.209" viewBox="0 0 22.948 29.209"><defs><style>.a,.b{fill:#0f5dd9;}.a{stroke:#0f5dd9;}</style></defs><g transform="translate(0.5 0.5)"><path class="a" d="M280.594,43.779l-.185-.29c-.508-.774-2.035-1.206-4.537-1.287l-.283-.014c-6.016-.679-5.969-5.674-5.969-5.724V16h21.947V36.466c0,.043.048,5.038-5.966,5.717a2.587,2.587,0,0,0-.285.014c-2.5.081-4.036.513-4.537,1.289Zm-10.52-27.3V36.466c0,.192-.031,4.625,5.56,5.259h.249c.928.031,3.642.116,4.708,1.256,1.068-1.137,3.78-1.225,4.71-1.256h.249c5.606-.636,5.563-5.209,5.558-5.254v-20Z" transform="translate(-269.62 -16)"/><path class="b" d="M323.326,85.091H321.56V83.78h1.766Zm-1.686-.071h1.607V83.856h-1.61Z" transform="translate(-309.228 -67.687)"/><path class="b" d="M324.659,94.235a1.019,1.019,0,0,1-.375-.085v-.074h.021a.817.817,0,0,0,.456.069.18.18,0,0,0,.119-.076.159.159,0,0,0,.019-.119.149.149,0,0,0-.055-.081l-.043-.047a.145.145,0,0,1,.033-.188l.062.045c-.045.062-.04.083-.031.1a.255.255,0,0,0,.033.038.229.229,0,0,1,.045.3.254.254,0,0,1-.166.107Zm.99-.014a.259.259,0,0,1-.154-.043c-.128-.081-.095-.216-.071-.323a.581.581,0,0,0,.021-.126l-.026-.019.036-.069c.014,0,.069.038.069.074a.535.535,0,0,1-.026.161c-.026.116-.04.19.038.237a.287.287,0,0,0,.183.026h.074a.392.392,0,0,0,.337-.209l.069.033a.458.458,0,0,1-.406.237.3.3,0,0,0-.066,0Zm-1.375-.358h-.2v-.078h.057a.769.769,0,0,0,.3,0,.206.206,0,0,0,.145-.121.375.375,0,0,0,.014-.071c.017-.081.033-.171.121-.209a.2.2,0,0,1,.2.05.214.214,0,0,0,.142.055v.076a.263.263,0,0,1-.195-.064c-.057-.036-.09-.062-.133-.043s-.062.071-.074.152a.717.717,0,0,1-.017.076.268.268,0,0,1-.2.176.747.747,0,0,1-.178.021Zm1.491-.036-.045-.057a.332.332,0,0,0,.064-.237.13.13,0,0,0-.055-.069c-.04-.024-.081,0-.138.014a.321.321,0,0,1-.161.036v-.078a.237.237,0,0,0,.124-.028.216.216,0,0,1,.2,0,.176.176,0,0,1,.093.116.333.333,0,0,1-.033.214h0a.268.268,0,0,0,.145-.052l.05-.04a.211.211,0,0,0,.069-.062l.062.043a.3.3,0,0,1-.088.085l-.043.033a.361.361,0,0,1-.183.071.474.474,0,0,0-.083.014Z" transform="translate(-311.142 -75.004)"/><path class="b" d="M325.4,93.673H322.65V92.21H325.4Zm-2.669-.076h2.612V92.286h-2.612Z" transform="translate(-310.059 -74.116)"/><path class="b" d="M324.5,85.941l-.069-.019a.506.506,0,0,1-.278-.131v.036a.985.985,0,0,0-.475.074l-.045-.074a1.064,1.064,0,0,1,.475-.083h0a.444.444,0,0,1-.066-.268.328.328,0,0,1-.237-.2l-.026.014a.311.311,0,0,0-.187.15l-.071-.026a.378.378,0,0,1,.223-.195.72.72,0,0,0,.074-.036l.057-.033v.069c0,.1.107.157.195.183a.218.218,0,0,1,.093-.114.237.237,0,0,1,.256.024.344.344,0,0,1,.069.423l-.062-.045a.268.268,0,0,0-.064-.323.145.145,0,0,0-.2.024.16.16,0,0,0-.031.071.338.338,0,0,0,.05.237.4.4,0,0,0,.271.147l.069.017Zm-.833-.192h-.019v-.076a.126.126,0,0,0,.119-.057V85.58a.126.126,0,0,0-.126,0l-.036-.069a.2.2,0,0,1,.214.021.1.1,0,0,1,.017.123.192.192,0,0,1-.178.1Zm.674-.109h-.074a.138.138,0,0,0-.031-.09l.062-.043a.2.2,0,0,1,.043.14Z" transform="translate(-310.723 -68.732)"/><g transform="translate(6.337 17.717)"><path class="b" d="M313.58,94.849a.1.1,0,0,1,.024.045.193.193,0,0,1,.119.062h0a.171.171,0,0,1,.081-.045A.283.283,0,0,0,313.58,94.849Z" transform="translate(-309.48 -93.843)"/><path class="b" d="M317.682,95.069c-.043.014-.052.057-.062.121a.45.45,0,0,1-.031.114c-.029.05-.09.036-.138.024h-.033a.038.038,0,0,1,0,.021.352.352,0,0,1-.029.069.342.342,0,0,0,.4,0l.038-.024c.052-.024.1-.043.107-.093a.173.173,0,0,0-.052-.169A.2.2,0,0,0,317.682,95.069Z" transform="translate(-312.385 -94.008)"/><path class="b" d="M296.31,90.62v2.272h9.407V90.62Zm2.453,1.216a.351.351,0,0,0,.071-.062l.062.043a.294.294,0,0,1-.088.083l-.043.033a.342.342,0,0,1-.183.071l-.083.019-.045-.057a.332.332,0,0,0,.064-.237.135.135,0,0,0-.057-.069c-.04-.021-.078,0-.14.019a.326.326,0,0,1-.157.038v-.078a.238.238,0,0,0,.119-.031.207.207,0,0,1,.207,0,.19.19,0,0,1,.093.116.316.316,0,0,1-.033.214h0a.29.29,0,0,0,.145-.052.316.316,0,0,1,.05-.047Zm-2.123.9h-.1V90.9h2.137V91H296.63V92.74Zm.221-.152h-.1V91.142h1.809v.1h-1.712v1.344Zm1.038-.318a.259.259,0,0,1-.166.114.561.561,0,0,1-.126,0,1.054,1.054,0,0,1-.38-.085v-.074h.017a.8.8,0,0,0,.475.069.171.171,0,0,0,.116-.076.147.147,0,0,0,.014-.119.2.2,0,0,0-.047-.078.5.5,0,0,1-.045-.055c-.036-.04-.026-.112.029-.188l.062.045c-.024.036-.045.078-.029.1a.289.289,0,0,1,.038.045.237.237,0,0,1,.04.292Zm-.083-.634c-.055-.036-.09-.057-.131-.04s-.064.074-.074.154v.069a.282.282,0,0,1-.209.178.192.192,0,0,1-.171-.026.3.3,0,0,1-.1-.237h.076a.223.223,0,0,0,.066.169.109.109,0,0,0,.107.014.209.209,0,0,0,.15-.121v-.059c.012-.081.026-.18.116-.218a.211.211,0,0,1,.2.05.188.188,0,0,0,.142.05l.012.078a.271.271,0,0,1-.192-.064Zm.712.774h-.062a.406.406,0,0,1-.076,0,.283.283,0,0,1-.157-.04c-.128-.081-.1-.216-.071-.325a.74.74,0,0,0,.024-.126l-.029-.019.033-.069c.017,0,.071.038.071.071a.7.7,0,0,1-.024.159c-.028.119-.04.192.038.237a.3.3,0,0,0,.188.024h.069a.4.4,0,0,0,.342-.211l.067.036a.475.475,0,0,1-.416.254Zm.8.292h-.1V90.71h2.521v.1h-2.438v1.9Zm.237-.154h-.1v-1.6h2.106v.1h-2.032v1.5Zm.776-.285a.126.126,0,0,0-.052-.028.193.193,0,0,1-.093-.064.292.292,0,0,0-.062.028l-.055.045a.624.624,0,0,1-.185.126l-.026-.074a.544.544,0,0,0,.164-.112l.057-.045c.019-.014.121-.076.166-.017a.128.128,0,0,0,.062.038.2.2,0,0,1,.078.045Zm.062-.266c-.012-.045-.062-.074-.119-.1a.475.475,0,0,1-.126-.088l-.024-.026v.017a.257.257,0,0,1,.021.119h-.076a.212.212,0,0,0-.017-.085.376.376,0,0,1-.019-.074v-.038h.038a.126.126,0,0,1,.135.047.372.372,0,0,0,.107.074c.066.038.135.074.157.152Zm1.548-.078a.221.221,0,0,1-.145.145l-.033.019a.413.413,0,0,1-.475,0,.677.677,0,0,1-.491.169V92.17c.192,0,.437-.05.5-.237a.238.238,0,0,0,0-.15.324.324,0,0,0-.064-.085.178.178,0,0,0-.221-.019c-.04.024-.055.05-.026.116h0l-.069.033h0a.273.273,0,0,0-.173-.069.123.123,0,0,0-.114.05l-.021.033-.031-.019-.045-.036a.13.13,0,0,0-.074-.043h0a.062.062,0,0,1-.064-.048.044.044,0,0,0,0-.019.355.355,0,0,1-.038-.045.045.045,0,0,0-.045-.031H300.3c-.029-.019-.057-.038-.088-.055-.1-.028-.2-.055-.268.017s-.057.273,0,.451l-.074.024c-.05-.152-.128-.382.017-.529a.323.323,0,0,1,.349-.031c.033.017.064.036.095.055a.135.135,0,0,1,.064.031.359.359,0,0,1,.378.119h0a.4.4,0,0,1,.138.038.133.133,0,0,1,.076-.107.252.252,0,0,1,.311.026.433.433,0,0,1,.081.114.238.238,0,0,1,.019.1.306.306,0,0,1,.045,0,.159.159,0,0,0,.057,0,.323.323,0,0,0,.017-.083.2.2,0,0,1,.114-.188.273.273,0,0,1,.268.064.237.237,0,0,1,.074.237Zm3.637.784h-3.312V90.8h3.291Z" transform="translate(-296.31 -90.62)"/></g><path class="b" d="M314.222,68.7c-.033,0-.1.021-.071.071s.093.021.119,0-.043-.033-.047-.064Z" transform="translate(-303.573 -56.188)"/><g transform="translate(5.271 3.627)"><path class="b" d="M316.45,41.65Z" transform="translate(-310.602 -39.187)"/><path class="b" d="M315.16,79.136l.014-.076A.193.193,0,0,0,315.16,79.136Z" transform="translate(-309.618 -67.715)"/><path class="b" d="M332,42.21Z" transform="translate(-322.46 -39.614)"/><path class="b" d="M294.45,37.15Z" transform="translate(-293.825 -35.755)"/><path class="b" d="M303.062,31.362a.931.931,0,0,0-.7.057.437.437,0,0,0-.112.582c.15.154.069.551.1.712a1.107,1.107,0,0,1-.028.375c-.055.076.033.363-.014.425a.337.337,0,0,0-.05.285,1.66,1.66,0,0,0-.048.188,2.7,2.7,0,0,0-.017.309,1.11,1.11,0,0,1-.038.363,4.784,4.784,0,0,1-.166.534c-.062.131.026.192-.126.4,0,0-.062.268-.1.389a2.987,2.987,0,0,0-.318.375s-.185.259-.268.4c0,0-.069.093-.2.311,0,0-.408.164-.475.335-.031.078-.387.195-.634.413a3.086,3.086,0,0,1-.475.188.9.9,0,0,0-.411.123,5.046,5.046,0,0,0-.527.135s-.116.031-.223.055a2.325,2.325,0,0,0-.036-.359.4.4,0,0,0,.026-.183h.017a2.572,2.572,0,0,0,.62-.192,1.158,1.158,0,0,0,.689-.285c.252-.04.264-.154.264-.154a2.025,2.025,0,0,0,.344-.133c.14-.021.275-.3.275-.3.038-.033.183-.188.183-.188.2-.095.366-.456.416-.522a2.608,2.608,0,0,0,.192-.359,3.972,3.972,0,0,0,.285-.8,2.666,2.666,0,0,0,.133-.556c.057-.4.081-.909.081-.909a2.239,2.239,0,0,1,.024-.418,1.441,1.441,0,0,1-.047-.335,1.747,1.747,0,0,1,.188-.8c.15-.237-.1-.5-.375-.518a.95.95,0,0,0-.615.192c-.152.076-.34.43-.188.584s.147.475.178.624a3.92,3.92,0,0,1,.047.411.579.579,0,0,0-.062.309,1.218,1.218,0,0,1-.043.237.861.861,0,0,0-.012.271c.024.135.04.285.04.285-.152.038-.076.442-.076.442a2.652,2.652,0,0,0-.28.556,2.61,2.61,0,0,1-.237.456.475.475,0,0,0-.154.088,1.113,1.113,0,0,0-.453.43,1.042,1.042,0,0,0-.387.268.978.978,0,0,0-.4.161s-.475.254-.556.28a.382.382,0,0,1-.09.019,4.934,4.934,0,0,0-.031-.648,2.474,2.474,0,0,0,1.187-.475c.145-.154.071-.192.183-.226s.237-.385.356-.5a2.138,2.138,0,0,0,.237-.548,2,2,0,0,0,.171-.75c.147-.192-.038-.494-.038-.494s.038-.347.038-.5a4.805,4.805,0,0,1,.071-.823c.062-.266.076-.418-.183-.513a1.327,1.327,0,0,0-.81-.021c-.145.076-.475.437-.332.594a1.881,1.881,0,0,1,.382.639c.036.154.074.589.074.589-.052.076.024.116.024.192v.142s-.064.5-.169.577-.076.264-.076.264c-.15.038-.237.4-.237.4a3.123,3.123,0,0,1-.328.313.881.881,0,0,1-.522.171l-.145.028v-.294a2.817,2.817,0,0,0,.021-.306c0-.154-.076-.171-.076-.171l.076-.171a.145.145,0,0,0,.076-.114.183.183,0,0,0-.076-.133,2,2,0,0,0,0-.475,1.486,1.486,0,0,0-.038-.271,1.352,1.352,0,0,0-.029-.534.629.629,0,0,1-.024-.418c.055-.114.264-.461.34-.577s.147-.342-.415-.534a1.033,1.033,0,0,0-1.007.154c-.188.093-.114.38-.114.5s.356.385.356.5-.038.209-.038.325-.021.209.014.264c0,0-.128.076-.128.133s.074.114.114.192-.021.076-.021.076-.109.133-.093.209.038.211.112.237-.062.093,0,.171a.3.3,0,0,0-.074.192.474.474,0,0,0,.131.237s-.114.038-.095.114a.713.713,0,0,0-.057.237,4.117,4.117,0,0,0,.026.475h0a.931.931,0,0,1-.672-.328.607.607,0,0,0-.237-.223s-.076-.363-.237-.4c0,0,.038-.192-.076-.268s-.183-.475-.183-.475a.309.309,0,0,0,.055-.15c0-.076.017-.1-.038-.176a4.813,4.813,0,0,1,.038-.667,1.958,1.958,0,0,1,.37-.648.33.33,0,0,0,0-.475l-.038-.031a2.36,2.36,0,0,0-1.095-.064c-.264.093-.453.285-.3.51a1.716,1.716,0,0,1,.237.748c0,.15.038.5.038.5a.475.475,0,0,0,.038.456,3.085,3.085,0,0,0,.207.864c.112.252.085.475.188.575s.237.4.354.437.038.071.188.226a1.8,1.8,0,0,0,1.132.529.286.286,0,0,0,0,.119.437.437,0,0,1,.076.192c0,.038-.052.138-.078.278a1.087,1.087,0,0,1-.192-.069c-.126-.055-.494-.237-.494-.237a.95.95,0,0,0-.4-.145.876.876,0,0,0-.363-.237,1.6,1.6,0,0,0-.237-.28c-.029-.038-.254-.275-.254-.275a3.4,3.4,0,0,1-.328-.475,2.575,2.575,0,0,0-.28-.458s.038-.475-.114-.518a.427.427,0,0,1-.038-.249.845.845,0,0,0,0-.268,1.232,1.232,0,0,1-.047-.237c0-.078.024-.1-.038-.176a4.191,4.191,0,0,1,.028-.546c.031-.154-.083-.589.062-.743a.385.385,0,0,0-.066-.541h0a1.071,1.071,0,0,0-.748-.055c-.266.093-.453.285-.3.51a1.716,1.716,0,0,1,.237.75v.406a2.288,2.288,0,0,1,.017.423s.05.43.107.831a2.952,2.952,0,0,0,.131.556,2.743,2.743,0,0,0,.3.608c.04.05.078.176.195.351.047.066.237.544.432.639l.216.152s.161.3.3.313a1.24,1.24,0,0,0,.33.192.51.51,0,0,0,.356.209.615.615,0,0,0,.475.209,2.552,2.552,0,0,0,.757.211.384.384,0,0,0,.036.126s-.045.292-.052.475c-.135-.017-.359-.069-.359-.069a4.9,4.9,0,0,0-.52-.133.968.968,0,0,0-.342-.164,2.166,2.166,0,0,1-.42-.209c-.254-.221-.624-.375-.653-.446-.069-.176-.366-.259-.366-.259a2,2,0,0,0-.382-.43,1.561,1.561,0,0,0-.237-.29,4.533,4.533,0,0,1-.237-.408,2.466,2.466,0,0,1-.081-.389.966.966,0,0,1-.164-.387c-.086-.209-.226-.532-.226-.532a1.607,1.607,0,0,1-.017-.385.824.824,0,0,1-.112-.252.981.981,0,0,1,0-.264.18.18,0,0,0-.026-.209c-.05-.062-.024-.154-.076-.237a2.843,2.843,0,0,1-.05-.567c.031-.154-.086-.589.064-.743a.387.387,0,0,0-.066-.539h0a.95.95,0,0,0-.686,0,.356.356,0,0,0-.256.437.366.366,0,0,0,.069.135.983.983,0,0,1,.076.632c0,.154-.012.351-.012.351s.012.287,0,.556c0,0,.028.313.085.712a3.263,3.263,0,0,0,.076.456c.04.154.029.556.114.672a2.546,2.546,0,0,0,.195.351c.047.062.126.506.339.677a1.269,1.269,0,0,0,.347.594s.166.287.237.275c0,0,.166.325.268.347,0,0,.088.325.339.363a.713.713,0,0,0,.411.325.729.729,0,0,0,.475.3s-.081.221.392.221l.05.021a.577.577,0,0,0,.278.116,2.334,2.334,0,0,0,.563.171l.451.052v.52s.237.055.237.19,0,.188.09.211c0,0,.076.055.021.19a.354.354,0,0,0-.062.188.359.359,0,0,0-.188.349h-.131v.411h.237a.212.212,0,0,1,.021.093c0,.064.057.287.017.347s-.112.133-.15.188a1.37,1.37,0,0,0-.539,1.114c-.021.207-.28.264-.522.34h3.889c-.28-.076-.394-.133-.415-.34a1.351,1.351,0,0,0-.537-1.116c-.038-.055-.114-.133-.15-.188s.014-.285.014-.347a.185.185,0,0,1,.021-.095h.237v-.4h-.131a.351.351,0,0,0-.188-.347.366.366,0,0,0-.052-.188c-.064-.138.017-.192.017-.192.09-.024.09-.076.09-.209s.249-.192.249-.192v-.529c.188-.047.453-.123.539-.14a3.8,3.8,0,0,0,.394-.093c.128-.04.112-.116.237-.116.458,0,.475-.159.475-.159a.508.508,0,0,0,.394-.309,1.08,1.08,0,0,0,.56-.363c.211-.033.318-.342.318-.342.1-.021.33-.347.33-.347.076,0,.18-.273.18-.273a1.472,1.472,0,0,0,.351-.712c.216-.169.192-.394.237-.475a1.846,1.846,0,0,0,.18-.475,3.275,3.275,0,0,0,.166-.689,2.781,2.781,0,0,0,.076-.461c.055-.4.088-.712.088-.712a4.445,4.445,0,0,0-.059-.532v-.351a.973.973,0,0,1,.074-.634.408.408,0,0,0-.078-.575.42.42,0,0,0-.067-.062Zm-1.9,4.226c-.048.088-.128.2-.2.109s-.147-.055-.171-.109.081-.066.1-.142.119.047.188.055S301.184,35.543,301.162,35.588Zm.3-1.341a.18.18,0,0,1-.171,0c-.169-.1.019-.237.066-.368a.454.454,0,0,1,.014-.195c0-.017,0-.05.026-.055a.083.083,0,0,1,.1.024.449.449,0,0,1-.038.594Zm-.442-2.339a2.417,2.417,0,0,0,.313-.057.11.11,0,0,0,.1-.043c.026-.043.062-.133.114-.166a.1.1,0,0,1,.133.043V31.7a.406.406,0,0,1,0,.226c-.024.081-.093.15-.119.237a.767.767,0,0,0,0,.237,3.37,3.37,0,0,0,.043.8.176.176,0,0,1-.074.164.712.712,0,0,1-.335.074c-.04,0-.05-.05-.04-.088h0c.026-.021.057-.031.074-.064a.5.5,0,0,0,.028-.131.779.779,0,0,0-.062-.475.123.123,0,0,0,.14-.1c.055-.169.062-.4-.095-.5a1.564,1.564,0,0,0-.252-.064c-.066,0-.033-.088.028-.1Zm-.071,2.557h.033c.01,0,.043.028.038,0a.6.6,0,0,1,.432.116c-.055.15-.038.33-.145.446-.05.05-.164,0-.223-.038s-.062-.107-.017-.126c.109-.055.185-.133.131-.237s-.178.026-.237-.05a.09.09,0,0,1,0-.107Zm-.166.731c.157-.081.325.045.475.095.014,0,.043.038.029.05a.142.142,0,0,1-.171,0c-.1-.062-.209-.05-.3-.109-.014,0-.069-.017-.043-.036Zm-.37.843c.038-.021.1,0,.145-.045l.026-.019c.064,0,.017,0,.055-.028s-.043-.159.047-.171a.321.321,0,0,1,.275.147.142.142,0,0,1,0,.176c-.031.057-.116.052-.166.095s-.031.093-.069.121-.071.038-.076.021-.059-.038-.076-.071-.1-.055-.128-.088-.116-.088-.04-.138Zm-.356.38a.207.207,0,0,1,.1-.05c.052-.021,0-.062,0-.109.017,0,0-.028.017-.033.1-.04.14.093.183.169v.074a.159.159,0,0,1,.05.135.086.086,0,0,1-.038.033c-.109.033-.161-.093-.237-.147h-.055c-.017,0-.05-.043-.029-.064Zm-.292.427c.033-.043.028.033.1,0l.038-.026c.152,0,.047-.123.076-.237.088.095.188.216.14.335-.031.078-.145.078-.221.107s-.19-.121-.126-.2Zm-4.827-4.829a.112.112,0,0,1,.019-.157.085.085,0,0,1,.036-.019.95.95,0,0,1,.539-.017.807.807,0,0,1,.166.026.159.159,0,0,1,.131.18v.024c-.052.126-.152.226-.209.351-.069.164.024.347,0,.527a.377.377,0,0,1-.3.325c-.052,0-.112,0-.138-.038-.109-.183.145-.2.209-.325.017-.033.021-.088,0-.1a2.035,2.035,0,0,1-.2-.311c-.062-.1.029-.237-.043-.318s-.142-.083-.192-.145Zm.09,1.529V33.5a.888.888,0,0,1,.335-.028h-.076c.119.017.237-.038.349.028.012,0,.012.038,0,.047-.085.095-.2.024-.318.05s-.2.05-.285-.05Zm.522.463c0,.083-.161.093-.237.109v-.059c.1,0,.237-.154.252-.038Zm-.214.451a.057.057,0,0,1-.055,0h0c0-.047-.036-.088,0-.131a.155.155,0,0,1,.09-.057.791.791,0,0,1,.387-.017c.05,0,.114.05.069.078-.145.1-.34-.031-.475.121Zm.328.534c-.038,0-.055.062-.071.055-.057-.024,0-.064,0-.116.033,0,.028-.076.062-.066a.2.2,0,0,1,.161-.218.2.2,0,0,1,.076,0,.107.107,0,0,1,.076.133.392.392,0,0,1-.3.228Zm.2.285c-.043-.055.019-.138.083-.188s.133-.133.221-.066c.014,0,0,.057,0,.088-.026.1-.135.083-.192.15A.09.09,0,0,1,295.858,35.28Zm1.187.786h0a1.484,1.484,0,0,1-.743-.2c-.178-.088-.375-.237-.263-.437.048-.088.107.062.157.133.2.311.565.292.862.446a.455.455,0,0,0,0,.057Zm-3.507-4.086a.145.145,0,0,1,.038-.159h.026a3.739,3.739,0,0,0,.432-.033c.024,0,.114.05.131.05a1.679,1.679,0,0,0-.055.375,2.163,2.163,0,0,0,.017.594,4.547,4.547,0,0,1-.017.475h-.017c-.021.121,0,0-.062.109a.081.081,0,0,1-.1.028.126.126,0,0,1-.076-.138c.062-.237.107-.221.081-.461a.352.352,0,0,0-.135-.237.254.254,0,0,1-.062-.062c-.055-.121,0-.266-.048-.385-.029-.076-.116-.1-.154-.171Zm.378,1.662c-.1.024-.216.05-.3-.05v-.05a.84.84,0,0,1,.335-.026h-.076c.119.017.237-.038.356.026a.062.062,0,0,1,0,.05c-.083.095-.207.024-.316.05Zm.081.589c.1-.026.081-.138.126-.18.081-.083.14.062.154.138.033.152-.138.188-.264.142-.029-.014-.064-.083-.014-.1Zm.237.886a.066.066,0,0,1-.095-.024h0c0-.033.014-.071.031-.062.057,0,.116.04.074.095Zm-.069.325c-.038.017-.076-.017-.107-.038s0-.038,0-.05a1.079,1.079,0,0,1,.221-.1.069.069,0,0,1,.038,0c.066.093-.074.154-.15.18Zm.114.359c-.021,0-.076-.04-.05-.083s.081-.038.126-.062v-.033a.144.144,0,1,1-.074.178Zm3.768,2.533a.124.124,0,0,1-.031.014.733.733,0,0,0-.183.014.4.4,0,0,1-.076-.021c-.131-.05-.109-.237-.161-.366,0-.038-.064-.052-.093-.071-.09-.043-.209-.043-.275-.142.028,0,.047.017.076.017a6.173,6.173,0,0,0,.838.045c-.021.166.093.408-.093.51Zm.161-.878a.712.712,0,0,0,.237-.04c.09-.031.178-.043.264-.081a6.087,6.087,0,0,0,.75-.4c.038,0,.216.2.169.237a8.292,8.292,0,0,1-.831.361,1.529,1.529,0,0,1-.582.131c-.527.031-.214-.019-.712-.1.15-.183.712-.074.712-.114Zm1.557-2.256a.083.083,0,0,1-.119.014.019.019,0,0,1-.017-.014.1.1,0,0,1-.026-.055c0-.028-.038-.064-.033-.069.083-.071.183-.076.261-.159.066.112,0,.2-.064.283Zm.093-.539c-.045-.017-.14-.062-.207-.095s0-.071.024-.081c.069-.064.15-.05.192-.133s.017-.142.071-.159c.062.043.171.017.171.076,0,.154-.119.439-.249.392Zm.328-.624c-.021,0-.031.017-.038.017-.114,0-.2-.083-.316-.1-.017,0-.081,0-.057-.05s.126-.076.178-.121.173.028.183.138a.378.378,0,0,1,.045.045c.012.017,0,.045,0,.074Zm.081-.551c.033.071,0,.237-.047.237-.171-.064-.411-.107-.349-.183a2.179,2.179,0,0,0,.278.017c.036-.052.074-.161.121-.069Zm-.829-1.4a.078.078,0,0,1,0-.109.081.081,0,0,1,.028-.014c.237-.05.458,0,.689-.038.085,0,.062.055.062.064,0,.145-.161.292-.085.439.116.237.05.475.1.712a.237.237,0,0,1-.064.2c-.116.116-.306.055-.43-.038-.062-.045-.017-.116.062-.133a1,1,0,0,0,.147-.017.29.29,0,0,0,.1-.33c-.028-.093-.147-.093-.237-.083.085-.031.209-.152.123-.214s-.161-.055-.223-.1-.04-.1-.076-.154-.135-.1-.195-.176Zm-.411,3.257c.048-.017.119,0,.157-.012a1.316,1.316,0,0,0,.152-.152c.062-.064.166.017.209.1a.121.121,0,0,1-.021.123c-.038.045-.062.112-.107.138a1.5,1.5,0,0,1-.135.071c-.135.057-.249-.093-.28-.218a.059.059,0,0,1,.031-.052Zm-.886.6a2.637,2.637,0,0,0,.354-.133c.062-.033.133-.095.2-.126s.1-.1.161-.071c.1.043.126.188.064.237a1.788,1.788,0,0,1-.738.3h0c.038,0-.791.195-.843-.147a1.875,1.875,0,0,0,.819-.055Zm-.344-1.6c.081-.083-.047-.138,0-.178.114-.093.214.188.157.275-.093.138-.292.078-.449.062-.047,0-.085-.093-.038-.109a1.308,1.308,0,0,1,.332-.017.2.2,0,0,1,0-.031Zm.131-.463a1.662,1.662,0,0,1-.563,0c-.014,0-.059-.071-.031-.1a.427.427,0,0,1,.34-.045c.107,0,.3-.021.256.135Zm-.283,1.073a.527.527,0,0,1,.05-.283c.026-.038.107-.043.157-.038s.048.062.048.09c.014.185.1.4,0,.532s-.385.076-.577.028c-.064-.017-.081-.142-.033-.166a3.181,3.181,0,0,0,.37-.161Zm-.463-2.994c-.014,0-.062-.043-.036-.083h.069c.157-.047.209.026.339-.024.047-.024.071-.083.128-.083,0-.05.05-.055.055-.093a.539.539,0,0,0-.017-.195.406.406,0,0,1,.373.451.238.238,0,0,1,0,.059.508.508,0,0,1-.147.211.61.61,0,0,0-.123.318c-.062.264.133.494.1.76a.4.4,0,0,1-.109.237.142.142,0,0,1-.161,0c-.109-.047-.259.028-.325-.123a.423.423,0,0,0,.351-.252.783.783,0,0,0,0-.475c-.047-.2.028-.413-.078-.563-.083-.109-.28-.095-.423-.157Zm-.052,4.373c.017-.017.062,0,.085,0a.159.159,0,0,1,.057,0c.133,0,.261.019.318.019h.069a.7.7,0,0,0,.418-.024,1.085,1.085,0,0,1,0,.494.206.206,0,0,1-.081.119h-.3c-.15-.135-.173-.373-.354-.489a.534.534,0,0,0-.161-.038c-.024,0-.085-.028-.052-.062Zm-2.339,0s-.052,0-.059-.045a.14.14,0,0,1,.1-.166h.029a.128.128,0,0,0-.038-.024c.074-.017.154-.071.207-.047s-.154.325-.237.287Zm.551.237s-.038.033-.045.043a.264.264,0,0,1-.138.178c-.064.033-.131-.066-.109-.138a.279.279,0,0,1,.055-.064c.1-.076.183-.275.292-.159.019.026-.036.093-.052.142Zm.069.363c-.021-.064.029-.1.086-.109h-.052c.1-.095.183-.283.332-.271a2.43,2.43,0,0,1-.216.489c-.055.081-.123-.036-.145-.107Zm1.643.608a3.039,3.039,0,0,1-1.249-.366c-.036-.017-.1-.074-.09-.121s.085-.064.128-.04a2.628,2.628,0,0,0,1.1.437h.1c.171.031.119.047.119.062s-.04.043-.109.021ZM292.2,33.283c.2-.126.157-.408.226-.613h.017c.021-.04.045-.081.069-.119.078-.126,0-.237-.062-.351s-.145-.078-.195-.145.033-.119.076-.131a.693.693,0,0,0,.287-.2c.036-.033.076.047.062.1v-.019a.926.926,0,0,0-.055.4,4.48,4.48,0,0,1-.036,1.187c-.121.026-.38.1-.387-.112Zm.169.924c.048-.071.154-.109.237-.176s.043-.237.123-.325c.017-.026.045.017.071.012a1.265,1.265,0,0,1-.017.475c-.04.081-.249.116-.237.121l-.071-.017c.021,0-.145,0-.095-.088Zm.166,1.1c.038,0,.031-.066.076-.038,0-.142.107-.093.128-.176s-.052-.121-.107-.154c0,0,0-.028.017-.033a.147.147,0,0,1,.145.038c.017.024.055.04.043.078.071,0,.064.076.081.114a.261.261,0,0,1-.178.375.2.2,0,0,0-.014-.05c-.078-.052-.2-.026-.188-.152Zm.15.712c.017-.017,0-.045,0-.055.157-.095.323-.145.475-.237.026-.017.081-.033.107,0a.083.083,0,0,1-.021.095c-.138.154-.38.325-.572.192Zm.4.686a.237.237,0,0,1-.112-.076c-.029-.045,0-.078.052-.09a.8.8,0,0,1,.169,0c.055,0,.069-.055.119-.083a.4.4,0,0,1,.145-.064c0,.021.033.033.017.055-.112.133-.214.325-.387.271Zm.14.259c-.038-.055.076-.093.131-.121s.161-.093.249-.138a.283.283,0,0,1-.043.171c-.038.071-.1.1-.169.147s-.133-.012-.166-.057Zm.7.4c-.062.033-.062.145-.135.176s-.081-.052-.123-.093,0-.031,0-.055c-.071.024-.114-.021-.147-.078s.012-.071.04-.088.128,0,.161-.047V37.1c0-.009.109-.055.135,0s.1.09.152.138a.086.086,0,0,1,0,.083.272.272,0,0,1-.1.057Zm.351.634a.271.271,0,0,1-.237-.166c-.021-.05,0-.081.047-.121s0-.055,0-.088.043,0,.052-.038a.211.211,0,0,1,.033-.083.093.093,0,0,1,.133,0,.052.052,0,0,1,.017.021c.028.038-.036.114.012.135.138.057.209-.131.316-.209.033-.021.1.05.064.1-.135.178-.195.444-.442.463Zm.548.368c0,.05-.081.021-.114,0-.1-.033-.237-.107-.237-.221a.076.076,0,0,0,.064-.064c.021-.114.062-.237.157-.237.145,0,.408-.218.392,0s-.285.268-.271.5Zm.544.375a2.649,2.649,0,0,1-.278-.18l-.026-.024c-.017-.033-.093-.04-.064-.066.081-.107.081-.237.183-.325,0,0,.05-.043.064-.021.081.093.085.214.154.318a.591.591,0,0,0,.131.112,3.124,3.124,0,0,0,.95.335c.169.036.337,0,.508.026.1.021.309,0,.32.1s-.342.031-.347.055a1.2,1.2,0,0,1-.261,0,4.4,4.4,0,0,1-1.337-.323Zm2.011,3.96c0,.017-.026.038-.033.031-.055-.014-.116-.014-.166-.026-.088-.026-.033-.188-.038-.292a.066.066,0,0,1,.038-.055.126.126,0,0,1,.176.019h0a.313.313,0,0,1,.021.237.293.293,0,0,1,0,.078Zm.4.268c-.123,0-.128-.133-.188-.209-.014-.017-.047.028-.062-.021a.75.75,0,0,1,.012-.4.1.1,0,0,1,.14-.055.107.107,0,0,1,.047.038c.119.2.033.43.055.646Zm.375.15a1.735,1.735,0,0,0-.209-.188v.062a3.786,3.786,0,0,1,0-.594.126.126,0,0,1,.088-.109c.076-.024.166,0,.178.078.055.29.069.515.119.774a.237.237,0,0,1-.157-.019Zm.427-1.023c.052,0,.081.062.107.116a4.855,4.855,0,0,1,.361.969,1.631,1.631,0,0,1-.475.031.109.109,0,0,1-.071-.088c-.047-.2-.109-.489-.183-.8a.273.273,0,0,1,.1-.2.216.216,0,0,1,.161-.028Zm-.131-.214c-.128-.024-.3.062-.387-.045-.031-.038.062-.095.026-.145s-.095-.069-.112-.031,0,.176-.028.237a.158.158,0,0,1-.249-.05c.085-.024.192-.045.157-.15a.209.209,0,0,0-.216-.1.511.511,0,0,1-.029.28c-.036.074-.128,0-.192,0v-.095c.062.017.133,0,.107-.1s-.114-.237-.209-.154,0,.271-.114.359a.135.135,0,0,1-.178-.033.081.081,0,0,1,0-.047c.04-.05.1-.028.147-.05.081-.045.045-.166.045-.237s-.09-.078-.133-.05-.069.021-.062.071a.238.238,0,0,1,.014-.3c.14-.1.342-.038.513,0a6.7,6.7,0,0,0,.817.04,1.321,1.321,0,0,0,.088.591Zm0-1.035c.135.021.29.164.211.3-.024.04-.109-.017-.171-.024s-.185.055-.283.064c-.026,0-.036-.028-.052-.055a.078.078,0,0,0-.024-.026c-.1-.085-.183-.221-.287-.157a.252.252,0,0,1-.214.033c-.017,0-.038-.05-.017-.066s.064-.121.131-.138a.577.577,0,0,1,.451.1c.081.05.178-.043.261-.026Zm-.057-1.064c-.017.062-.038.15-.107.152-.114,0-.055.209-.119.237a1.009,1.009,0,0,1-.5.055.208.208,0,0,1,0-.055.159.159,0,0,0,.071-.216v-.014c-.017-.04-.093-.033-.116,0-.057.088,0,.221-.057.292-.024.033-.1.021-.157,0s-.085-.064-.047-.1.085,0,.116-.017,0-.055,0-.088c0,0-.062-.133-.145-.112-.045,0-.071.074-.119.088a.171.171,0,0,0-.147-.147c0,.066-.085.045-.1.026-.064-.038.014-.1,0-.166.335-.055.672.04,1.009-.043.017,0,.028-.05.045-.066a.208.208,0,0,1,.128-.076c0-.064.043-.071.076-.095a.1.1,0,0,1,.119.024.361.361,0,0,1,.045.311Zm1.838-1.339c-.026.2-.264.237-.432.292-.413.133-.824.221-1.254.33l-.192.04c-.164.04-.641.071-.667-.031s.648-.074.643-.095a5.5,5.5,0,0,0,.8-.237,2.867,2.867,0,0,0,.4-.226c.031-.017.081,0,.107-.026a1.187,1.187,0,0,1,.437-.2c.1-.04.171.09.161.145Zm.446-.176c-.026.083-.09.183-.178.15-.171-.064-.214-.237-.323-.4,0,0,0-.028.024-.033a.1.1,0,0,1,.052,0c.045.028.038.1.114.116s.045-.093.081-.126.052.045.1.064a.2.2,0,0,1,.131.237Zm.475-.359h-.031c0,.1-.062.119-.078.216,0,.05-.1.028-.128,0a2.787,2.787,0,0,1-.33-.451h.107c.126.121.275.033.394.09a.109.109,0,0,1,.069.135Zm.361-.323c-.017.076-.119.147-.188.1-.114-.078-.328-.138-.264-.264.026-.057.14.036.237,0l.024-.047v-.05c-.014-.055-.031-.047-.047-.1s.062-.083.081-.066a.475.475,0,0,1,.169.43Zm.354-.359c-.036.045-.062.169-.133.138s-.152-.159-.237-.237c-.021-.021.021-.045.033-.05.069-.017.15.062.2-.012s-.045-.142,0-.2.059,0,.09.012v-.017c.081.05.195.121.188.209s-.085.109-.14.159Zm.363-.527c-.012,0-.017.062-.048.026-.033.062,0,.154-.076.209-.017-.038-.05-.055-.064-.093a.181.181,0,0,0-.123-.088c-.064-.017-.071-.1-.128-.145.09-.114.29-.062.425-.033.059,0,.052.1.017.123Zm.2-.589a.221.221,0,0,1-.3.076h0c-.031-.021-.1-.028-.1-.088V36.03c.069-.074.178.021.249-.045a.057.057,0,0,0,0-.055c-.047-.057-.2-.133-.119-.166.159-.059.373.178.271.354Zm.34-.5c-.038.1-.178.133-.318.093-.081-.026-.147-.1-.1-.152s.161-.095.114-.176c-.017-.028-.012-.074-.05-.083s-.083.026-.114-.024a.08.08,0,0,1,0-.047.437.437,0,0,1,.444.154.237.237,0,0,1,.024.237Zm.161-.836a1.009,1.009,0,0,0-.166.309.074.074,0,0,1-.1.033h0c-.1-.074-.237-.05-.3-.133,0-.017-.038-.062-.024-.066.114-.021.237.028.325-.038s.059-.171.131-.237c.014-.012.04,0,.069,0h.055c.05.031.028.093.012.123Zm.033-.446c-.14,0-.266-.093-.415-.1-.033,0-.1-.021-.093-.081,0-.012.017-.033.024-.033.112-.062.226.017.349,0,.088-.017.128.055.161.116s0,.1-.024.1Zm.047-.34c-.021.038-.069-.017-.081-.024-.093-.081-.221-.055-.325-.123-.043-.028-.09-.112-.038-.116.119,0,.195-.083.318-.093a.12.12,0,0,0-.021.038c.069-.033.085-.1.119-.171a.043.043,0,0,1,.055-.019.058.058,0,0,1,.021.019.762.762,0,0,1-.048.487Zm.131-2.1c-.081.237-.271.51-.173.781.062.154.157.347.062.475a.237.237,0,0,1-.328.052h0c-.033-.017-.029-.064-.017-.088.062-.116.216-.192.152-.347s-.033-.347-.088-.491-.268-.237-.311-.394c-.064-.287.344-.237.546-.211.088.012.207.093.164.216Z" transform="translate(-291.819 -31.276)"/></g><path class="b" d="M292.506,103.29v-1.137c.047-.237.071-.475.2-.572.055-.038.064-.15-.076-.131a1.95,1.95,0,0,1-.776-.05l-.123.66s.392-.038.076.237a2.677,2.677,0,0,1,.021.437,6.41,6.41,0,0,1-.076,1.3h1.588c.076.017.093.057.093.188s.1.461-.166.556a1.425,1.425,0,0,1-.522.093l-.109.651a6.051,6.051,0,0,0,.9-.363c.183-.133.449-.237.449-.624a4.466,4.466,0,0,1,.09-1.244h-1.567Zm1.3,1.095c0,.337,0,.423-.1.5a4.37,4.37,0,0,1-.734.359l.062-.2c.1-.033.237-.1.475-.192s.131-.748.131-.864-.017-.142-.076-.157h-1.448a5.483,5.483,0,0,0,.062-1.061c0-.292.017-.634.017-.634.268-.237-.14-.171-.14-.171l-.024-.415c.028.069.335.062.394.047.119-.017.112.083.062.116-.107.071-.069.15-.107.359-.012.045-.021,1.474-.021,1.474v.083h1.491c-.1.119-.047.423-.047.769Z" transform="translate(-286.48 -81.124)"/><path class="b" d="M305.089,110.538c-.078-.038,0-.169,0-.169a2.62,2.62,0,0,0,.237-.171.313.313,0,0,0,.1-.237v-.672c0-.095.021-.133-.09-.152a4.855,4.855,0,0,0-.492-.019.8.8,0,0,1-.223-.038c-.021.133-.237.712-.237.712a.9.9,0,0,0,.259.062c.1.017.038.017.076.076a1.034,1.034,0,0,1,0,.342,10.533,10.533,0,0,1-1.363-1.066c-.076-.062-.15-.04-.171.017-.09.157-.19.311-.3.461,0,0,.114.532.131.76a6.211,6.211,0,0,1-.114.95h.95l.237-.624h-.518v-.43c0-.076.038-.076.038-.076s1.349,1.028,1.444,1.09.109.017.109.017l.285-.6a3.526,3.526,0,0,1-.363-.235Zm-.237-1.187a.6.6,0,0,0,.171.028h.147c.086,0,.076.116.076.188v.138a.645.645,0,0,1-.045.292,1.274,1.274,0,0,1-.178.138,1.959,1.959,0,0,0,.024-.408c-.031-.043,0-.043-.062-.062s-.188.021-.237,0a1.655,1.655,0,0,0,.1-.3Zm.237,1.74a.569.569,0,0,0-.112-.088c-.078-.045-1.553-1.095-1.553-1.095v.169c0,.059.017.826.017.826h.425l-.131.214h-.506a6.355,6.355,0,0,0,.055-.672c-.017-.2-.062-.712-.062-.712a.6.6,0,0,0,.083-.123c.019-.05.078-.066.131-.017a6.251,6.251,0,0,0,1.795,1.254Z" transform="translate(-294.991 -86.981)"/><path class="b" d="M316.31,108.874h-1.223a.52.52,0,0,1-.313-.164l-.2.712a.216.216,0,0,0,.237.2h1.011V111.1s.57-.237.6-.237.047-.028.047-.154v-1.633S316.488,108.874,316.31,108.874Zm-.038.42v1.227c0,.1-.017.109-.04.119a1.137,1.137,0,0,1-.176.05v-1.3h-.909a.173.173,0,0,1-.18-.164h0l.045-.188a.392.392,0,0,0,.249.133h.893a.119.119,0,0,1,.128.1Z" transform="translate(-303.898 -86.698)"/><path class="b" d="M326.228,109.042l-.188.655.2.04a1.337,1.337,0,0,1-.014.4.43.43,0,0,1-.18.237,4.8,4.8,0,0,1-.52.109s.382-1.375.387-1.448h-.679l-.226.62.214.062a8.96,8.96,0,0,1-.37.831.874.874,0,0,1-.1-.75c.055-.221.121-.439.2-.653.038-.064-.069-.1-.14-.1a1.135,1.135,0,0,1-.617-.112l-.268.636a.359.359,0,0,0,.249.164c.183.038.033.183,0,.209a.28.28,0,0,0-.074.209c0,.093-.024,1.118-.024,1.118s1.885-.261,2.021-.287c.1-.017.1-.04.152-.088s.354-.42.382-.458.026-.05.038-.142.076-1.249.076-1.249h-.525Zm.34,1.073a.83.83,0,0,1-.059.252c-.021.033-.309.3-.351.342a.219.219,0,0,1-.123.062c-.109.021-1.681.237-1.681.237s.017-.819.017-.9a.446.446,0,0,1,.047-.214c.033-.024.2-.252.1-.275a.89.89,0,0,1-.221-.071l.128-.287a2.31,2.31,0,0,1,.237.05c.059,0,.145.026.112.081s-.112.385-.154.529a2.819,2.819,0,0,0,0,.812c.026.062.451,0,.451,0,.055-.052.475-1.14.475-1.14h-.254l.114-.237h.34c0,.062-.415,1.358-.415,1.358s.734-.1.8-.133a.907.907,0,0,0,.3-.311,4.7,4.7,0,0,0,.062-.605H326.3l.085-.311h.254s-.071.681-.086.76Z" transform="translate(-311.035 -86.866)"/><path class="b" d="M337.55,108.711a4.137,4.137,0,0,1-.475.021,1.288,1.288,0,0,1-.264-.093l-.3.859c.076.076.453.038.453.038l-.076.624.617-.169a2.95,2.95,0,0,1,.185-.992C337.737,108.811,337.664,108.711,337.55,108.711Zm-.135.539a2.567,2.567,0,0,0-.09.551l-.152.043.057-.475a.487.487,0,0,1-.318,0l.107-.287a.784.784,0,0,1,.166,0,.778.778,0,0,0,.166,0c.081,0,.109,0,.064.142Z" transform="translate(-320.629 -86.645)"/><path class="b" d="M279.285,42.941s-1-.259-1.076-.791a1.351,1.351,0,0,1,.14-.727s.29-.062.316-.176a.268.268,0,0,0-.15-.335c-.157-.062-.221-.033-.325.093a.2.2,0,0,0-.043.216s.185.237-.135.475a3.82,3.82,0,0,1-.2-.964,8.151,8.151,0,0,1,.608-1.375c.145-.237.463-.712.463-.712a3.737,3.737,0,0,1-.712,1.987,2.747,2.747,0,0,0,1.066-2.2,5.733,5.733,0,0,0-.119-.776A14.465,14.465,0,0,0,278.238,39a7.356,7.356,0,0,0-.437,1.083s-.026-.852,0-.95a3.117,3.117,0,0,1,.415-.6.237.237,0,0,0,.237-.1c.062-.121.081-.311-.074-.375s-.33.112-.33.112a.432.432,0,0,0,.014.309l-.256.237v-.864a8.74,8.74,0,0,1,.608-1.3c.145-.237.475-.712.475-.712a3.777,3.777,0,0,1-.712,1.987A2.694,2.694,0,0,0,279.19,35.6c0-.209-.062-.738-.062-.738a11.16,11.16,0,0,0-.921,1.268,6.717,6.717,0,0,0-.4,1.061s-.026-.772,0-.869a2.932,2.932,0,0,1,.415-.594.249.249,0,0,0,.237-.1c.062-.123.081-.313-.076-.375s-.328.109-.328.109a.425.425,0,0,0,.014.306l-.256.237v-.888a8.721,8.721,0,0,1,.61-1.3c.145-.237.475-.712.475-.712a3.747,3.747,0,0,1-.712,1.99,2.734,2.734,0,0,0,1.068-2.2,6.188,6.188,0,0,0-.121-.776,10.711,10.711,0,0,0-.883,1.251,7.567,7.567,0,0,0-.437,1.1s-.026-.769,0-.869a3.029,3.029,0,0,1,.415-.594.249.249,0,0,0,.237-.1c.064-.121.081-.313-.074-.375s-.33.109-.33.109a.432.432,0,0,0,.017.309l-.259.237v-.753a6.282,6.282,0,0,1,.556-1.315c.147-.237.351-.584.351-.584a3.087,3.087,0,0,1-.582,1.771,2.084,2.084,0,0,0,.95-1.9c0-.214-.029-.912-.029-.912a7.974,7.974,0,0,0-.9,1.154,7.478,7.478,0,0,0-.373,1.142s-.026-.75,0-.852a4.191,4.191,0,0,1,.264-.539s.185.062.254-.045a.238.238,0,1,0-.368-.3.33.33,0,0,0,0,.268l-.161.2V29.8a4.448,4.448,0,0,1,.475-1.32l.425-.7a2.811,2.811,0,0,1-.546,1.7,2.782,2.782,0,0,0,1.014-1.971c0-.209-.062-.84-.062-.84a8.93,8.93,0,0,0-1,1.258,3.5,3.5,0,0,0-.323,1.216s-.026-.845,0-.95a3.658,3.658,0,0,1,.2-.463.171.171,0,0,0,.233-.081.237.237,0,0,0-.1-.313h0c-.15-.081-.216.033-.216.033a.458.458,0,0,0,.012.309l-.123.1-.012-.624a6.317,6.317,0,0,1,.549-1.277c.145-.237.518-.712.518-.712a2.574,2.574,0,0,1-.56,1.662,1.824,1.824,0,0,0,.888-1.759,2.408,2.408,0,0,0-.062-.727,6.439,6.439,0,0,0-1.049,1.187,8.727,8.727,0,0,0-.427,1.282v-3.83a1.662,1.662,0,0,1,.318.973,8.807,8.807,0,0,1,0,1.173,6.265,6.265,0,0,0,.237-1.085,1.885,1.885,0,0,0-.316-1.1,6.183,6.183,0,0,1-.264-.7,2.244,2.244,0,0,1-.259.712,2.389,2.389,0,0,0-.28,1.128,5.268,5.268,0,0,0,.42,1.491c.043.093.017,1.334.017,1.334a3.379,3.379,0,0,1-.765-.774,3.345,3.345,0,0,1-.342-1.085s.254.3.4.458a7.074,7.074,0,0,1,.513.776c.074-.843-1.187-1.921-1.187-1.921a4.43,4.43,0,0,0,.34,2.118,2.849,2.849,0,0,0,1.083.8v.532l-.188-.121a.42.42,0,0,0-.017-.309s-.188-.152-.34-.076-.107.268-.038.385.249.076.249.076a1.527,1.527,0,0,1,.318.392c.038.093.017,1.453.017,1.453a2.937,2.937,0,0,1-.712-.826,4.063,4.063,0,0,1-.392-1.011s.3.249.451.4a4.772,4.772,0,0,1,.427.712c.074-.843-1.187-2.047-1.187-2.047a4.843,4.843,0,0,0,.34,2.123,2.612,2.612,0,0,0,1.083.907v.522l-.285-.214a.461.461,0,0,0-.017-.309s-.188-.15-.337-.078-.114.271-.04.387a.238.238,0,0,0,.237.076,3.226,3.226,0,0,1,.415.534c.038.093.017,1.451.017,1.451a2.947,2.947,0,0,1-.712-.819,4.261,4.261,0,0,1-.394-1.011,5.262,5.262,0,0,1,.453.4,4.745,4.745,0,0,1,.425.712c.076-.843-1.187-2.047-1.187-2.047a4.839,4.839,0,0,0,.34,2.123,2.612,2.612,0,0,0,1.092.914v.556l-.292-.2a.461.461,0,0,0-.017-.309s-.188-.15-.337-.071-.114.264-.04.38a.238.238,0,0,0,.237.076,3.241,3.241,0,0,1,.418.534c.038.095.014,1.453.014,1.453a3.056,3.056,0,0,1-.712-.819,4.232,4.232,0,0,1-.392-1.011,5.135,5.135,0,0,1,.453.4,4.83,4.83,0,0,1,.425.712c.074-.843-1.187-2.047-1.187-2.047a4.839,4.839,0,0,0,.34,2.123,2.657,2.657,0,0,0,1.083.919v.712l-.285-.235a.454.454,0,0,0-.017-.306s-.188-.15-.337-.078-.114.268-.04.385a.238.238,0,0,0,.237.078,3.466,3.466,0,0,1,.418.532c.036.095.014,1.455.014,1.455a3.065,3.065,0,0,1-.712-.821,4.154,4.154,0,0,1-.392-1.011s.3.252.453.4a4.744,4.744,0,0,1,.425.712c.074-.843-1.187-2.047-1.187-2.047a4.843,4.843,0,0,0,.34,2.123,2.51,2.51,0,0,0,1.083.9v.712l-.285-.218a.439.439,0,0,0-.017-.3s-.188-.154-.337-.078-.114.264-.04.38a.238.238,0,0,0,.237.076,3.6,3.6,0,0,1,.418.534c.038.1.017,1.453.017,1.453a3.015,3.015,0,0,1-.712-.819,4.066,4.066,0,0,1-.394-1.011,5.145,5.145,0,0,1,.453.4,4.83,4.83,0,0,1,.425.712c.074-.836-1.187-2.042-1.187-2.042a4.85,4.85,0,0,0,.34,2.118,2.647,2.647,0,0,0,1.123.919c.04.38.114.883.114.883-.339-.195-.263-.349-.263-.349a.3.3,0,0,0-.076-.268c-.107-.109-.221-.188-.375-.109s-.074.223-.036.34.226.192.226.192a5.722,5.722,0,0,0,.651.572,2.676,2.676,0,0,0,1.7,1.683Zm-.154.254c-.017.116-.038.138-.152.064a1.521,1.521,0,0,1-.5-.52,3.325,3.325,0,0,0,.541.347C279.13,43.105,279.156,43.084,279.13,43.2Z" transform="translate(-274.555 -20.766)"/><path class="b" d="M344.708,28.969a4.908,4.908,0,0,0,.332-2.123s-1.273,1.2-1.187,2.044a4.415,4.415,0,0,1,.43-.712c.152-.154.449-.4.449-.4a4.085,4.085,0,0,1-.394,1.014,2.952,2.952,0,0,1-.712.824s-.017-1.358.021-1.453a1.47,1.47,0,0,1,.316-.389s.169.038.237-.076.114-.309-.04-.387-.337.078-.337.078a.44.44,0,0,0-.017.306l-.188.121v-.529a2.863,2.863,0,0,0,1.085-.8,4.457,4.457,0,0,0,.335-2.118s-1.273,1.08-1.187,1.921a7.541,7.541,0,0,1,.506-.769c.152-.154.4-.446.4-.446a3.35,3.35,0,0,1-.332,1.085,3.738,3.738,0,0,1-.772.776,12.569,12.569,0,0,1,.021-1.337,5.714,5.714,0,0,0,.43-1.5,2.524,2.524,0,0,0-.28-1.128,2.136,2.136,0,0,1-.261-.712,6.2,6.2,0,0,1-.264.7,1.965,1.965,0,0,0-.318,1.1,6.272,6.272,0,0,0,.237,1.085,7.724,7.724,0,0,1,0-1.173,1.619,1.619,0,0,1,.318-.973l-.012,3.83a8.747,8.747,0,0,0-.43-1.282,6.538,6.538,0,0,0-1.052-1.187,2.409,2.409,0,0,0-.062.727,1.833,1.833,0,0,0,.921,1.738,2.591,2.591,0,0,1-.563-1.662s.375.475.525.712a6.174,6.174,0,0,1,.544,1.275v.624l-.135-.109a.42.42,0,0,0,0-.309s-.062-.116-.214-.033a.237.237,0,0,0-.116.318h0a.176.176,0,0,0,.2.081,2.981,2.981,0,0,1,.2.475c.026.1,0,.95,0,.95a3.347,3.347,0,0,0-.323-1.216,8.748,8.748,0,0,0-.992-1.261s-.062.634-.062.843a2.769,2.769,0,0,0,1.007,1.968,2.813,2.813,0,0,1-.537-1.7s.287.458.427.712a4.364,4.364,0,0,1,.475,1.32l.012.615-.169-.2a.313.313,0,0,0,.012-.268s-.161-.145-.309-.057-.145.216-.055.359.252.043.252.043a3.417,3.417,0,0,1,.261.539,7.314,7.314,0,0,1,0,.855,6.208,6.208,0,0,0-.358-1.125,7.552,7.552,0,0,0-.9-1.156s-.028.712-.028.914a2.08,2.08,0,0,0,.95,1.9,3.086,3.086,0,0,1-.57-1.795s.211.342.356.584a6.377,6.377,0,0,1,.556,1.311v.755l-.259-.237a.458.458,0,0,0,0-.313s-.171-.169-.33-.107-.133.252-.074.373.237.1.237.1a2.942,2.942,0,0,1,.408.6c.026.1,0,.867,0,.867a6.46,6.46,0,0,0-.42-1.1A11.161,11.161,0,0,0,342.042,32a5.752,5.752,0,0,0-.126.776,2.728,2.728,0,0,0,1.066,2.194,3.744,3.744,0,0,1-.712-1.985s.318.475.475.712a9.026,9.026,0,0,1,.61,1.313V35.9l-.256-.237a.46.46,0,0,0,0-.309s-.173-.171-.33-.112-.133.254-.076.375.237.1.237.1a2.908,2.908,0,0,1,.411.594c.026.1,0,.869,0,.869a6.012,6.012,0,0,0-.4-1.061,11.178,11.178,0,0,0-.917-1.287s-.062.529-.062.736a2.7,2.7,0,0,0,1.007,2.234,3.768,3.768,0,0,1-.712-1.985s.316.475.463.712a9.282,9.282,0,0,1,.615,1.3V38.7l-.259-.237a.447.447,0,0,0,0-.309s-.171-.171-.33-.112-.133.252-.074.375.237.107.237.107a2.862,2.862,0,0,1,.408.594c.026.1,0,.95,0,.95a6.087,6.087,0,0,0-.4-1.076,14.422,14.422,0,0,0-.878-1.349,6.075,6.075,0,0,0-.126.776,2.741,2.741,0,0,0,1.066,2.2,3.749,3.749,0,0,1-.712-1.985s.316.475.475.712a8.071,8.071,0,0,1,.615,1.372,3.926,3.926,0,0,1-.207.95.33.33,0,0,1-.128-.475.209.209,0,0,0-.047-.214.237.237,0,0,0-.313-.1h-.012a.273.273,0,0,0-.145.335c.021.116.311.176.311.176a1.285,1.285,0,0,1,.14.727c-.081.532-1.071.791-1.071.791l-.237.831a2.673,2.673,0,0,0,1.7-1.681,6.044,6.044,0,0,0,.658-.572s.183-.078.221-.192.114-.266-.038-.342-.261,0-.37.112a.3.3,0,0,0-.078.268s.078.152-.264.347c0,0,.076-.5.116-.881a2.683,2.683,0,0,0,1.123-.919,4.925,4.925,0,0,0,.335-2.118s-1.273,1.2-1.187,2.042a4.44,4.44,0,0,1,.43-.712c.152-.154.449-.4.449-.4a4.078,4.078,0,0,1-.4,1.049,3.017,3.017,0,0,1-.712.819s-.017-1.353.021-1.453a3.2,3.2,0,0,1,.4-.525.237.237,0,0,0,.237-.076c.078-.116.116-.3-.036-.382s-.335.078-.335.078a.446.446,0,0,0-.021.3l-.278.207V38a2.557,2.557,0,0,0,1.085-.9,4.89,4.89,0,0,0,.335-2.137s-1.273,1.2-1.187,2.047a4.426,4.426,0,0,1,.432-.712c.152-.15.449-.4.449-.4a4.313,4.313,0,0,1-.389,1.028,3.049,3.049,0,0,1-.712.819s-.017-1.358.021-1.453a2.793,2.793,0,0,1,.408-.534.237.237,0,0,0,.237-.078c.076-.114.114-.306-.038-.382s-.332.076-.332.076a.44.44,0,0,0-.024.306l-.278.209V35.18a2.692,2.692,0,0,0,1.087-.921,4.905,4.905,0,0,0,.332-2.123s-1.27,1.2-1.187,2.047a4.277,4.277,0,0,1,.432-.712c.152-.152.449-.4.449-.4a4.2,4.2,0,0,1-.4,1.028,3.007,3.007,0,0,1-.712.819s-.017-1.358.021-1.453a2.849,2.849,0,0,1,.408-.532s.169.038.237-.078.114-.311-.038-.38a.376.376,0,0,0-.332.071.439.439,0,0,0-.021.311l-.275.209v-.556a2.657,2.657,0,0,0,1.1-.912,4.959,4.959,0,0,0,.332-2.125s-1.27,1.2-1.187,2.047a4.613,4.613,0,0,1,.432-.712c.152-.147.449-.394.449-.394a4.2,4.2,0,0,1-.415,1.014,3.006,3.006,0,0,1-.712.819s-.017-1.358.021-1.453a2.853,2.853,0,0,1,.4-.529.238.238,0,0,0,.237-.078c.076-.114.114-.306-.038-.385s-.332.078-.332.078a.425.425,0,0,0-.021.306l-.28.209v-.522A2.5,2.5,0,0,0,344.708,28.969Zm-2.526,14.288c-.114.076-.131.055-.152-.064s0-.093.114-.109a3.365,3.365,0,0,0,.546-.347,1.479,1.479,0,0,1-.508.52Z" transform="translate(-324.548 -20.766)"/><path class="b" d="M301.57,82v2.047H308.5V82Zm.34,1.852h-.1V82.159H303.2v.1H301.91Zm.237-.152h-.1V82.411h.985v.1h-.888V83.7Zm.9-.375a.133.133,0,0,0,.126.064v.078a.214.214,0,0,1-.2-.1.1.1,0,0,1,.014-.119.2.2,0,0,1,.216-.021l-.036.069a.121.121,0,0,0-.126,0v.024Zm.185-.173c-.028-.083-.119-.121-.2-.161h0a.316.316,0,0,1-.237.2.444.444,0,0,1-.062.273,1.019,1.019,0,0,1,.475.085l-.024.074a.926.926,0,0,0-.487-.076v-.031a.567.567,0,0,1-.275.128l-.069.019-.021-.074a.272.272,0,0,0,.071-.021.421.421,0,0,0,.223-.14.359.359,0,0,0,.045-.252.143.143,0,0,0-.071-.1.152.152,0,0,0-.166,0,.285.285,0,0,0-.045.325l-.062.045a.354.354,0,0,1,.069-.423.223.223,0,0,1,.256-.024.214.214,0,0,1,.1.109c.09-.024.2-.081.195-.178v-.062l.057.026.055.026a.37.37,0,0,1,.237.207Zm-.75.2a.216.216,0,0,1,.045-.14l.059.05a.126.126,0,0,0-.029.09Zm1.038.522h-.1v-1.7h2.514v.1H303.5v1.6Zm.221-.154h-.1V82.43h2.106v.1h-2.011v1.187Zm.712-.3a.169.169,0,0,0-.188-.088c-.028,0-.04.026-.062.059a.178.178,0,0,1-.1.088l-.019-.074c.024,0,.038-.026.057-.057a.171.171,0,0,1,.114-.093.237.237,0,0,1,.268.133Zm.912,0-.074.017a.206.206,0,0,1,0-.126.617.617,0,0,1-.686-.157.1.1,0,0,0-.074-.033h0c-.017.081.095.173.207.218l-.026.071c-.14-.055-.28-.173-.256-.306a.093.093,0,0,1,.064-.071.166.166,0,0,1,.147.057.582.582,0,0,0,.764.059l.043.062c-.093.069-.131.128-.116.195Zm.5-.048a.476.476,0,0,1-.095-.04.218.218,0,0,0-.085-.031c-.04,0-.062.04-.1.1l-.021.04-.062-.038c0-.014.014-.026.019-.038.033-.064.076-.147.166-.147a.238.238,0,0,1,.119.04.3.3,0,0,0,.076.031Zm.083-.216c-.05,0-.2,0-.237-.1V83.04c-.019-.066-.033-.121-.085-.152a.211.211,0,0,0-.138,0,.42.42,0,0,0-.116.074c-.029.021-.057.043-.088.062a.66.66,0,0,1-.674-.116.2.2,0,0,0-.152-.033.18.18,0,0,0-.081.071.316.316,0,0,1-.081.078.273.273,0,0,1-.1.019.176.176,0,0,0-.078,0c-.024.014-.026.043-.029.083a.162.162,0,0,1-.04.114l-.05.038-.048.036c-.024.017-.017.078-.012.107h-.076c0-.052-.014-.135.043-.178l.05-.038.047-.033c.012,0,0-.033.012-.062a.157.157,0,0,1,.062-.14.2.2,0,0,1,.116-.029.178.178,0,0,0,.062,0,.238.238,0,0,0,.059-.062.249.249,0,0,1,.119-.1.294.294,0,0,1,.214.043.6.6,0,0,0,.6.116l.078-.057a.453.453,0,0,1,.138-.083.287.287,0,0,1,.195,0,.273.273,0,0,1,.123.2h0c0,.019.031.047.157.047v.078h0Zm2.405.712h-2.21V82.207h2.21Z" transform="translate(-293.984 -66.33)"/></g></svg>