<svg xmlns="http://www.w3.org/2000/svg" width="21" height="15.091" viewBox="0 0 21 15.091"><defs><style>.a{fill:rgba(0,104,245,0.03);stroke:#0068f5;}.b{fill:#0068f5;}</style></defs><g transform="translate(-111.735 -163.711)"><path class="a" d="M131.817,166.411a2.513,2.513,0,0,0-1.768-1.78c-1.56-.421-7.814-.421-7.814-.421s-6.254,0-7.814.421a2.513,2.513,0,0,0-1.768,1.78,28.293,28.293,0,0,0,0,9.69,2.513,2.513,0,0,0,1.768,1.78c1.56.421,7.814.421,7.814.421s6.254,0,7.814-.421a2.513,2.513,0,0,0,1.768-1.78,28.295,28.295,0,0,0,0-9.69Z"/><path class="b" d="M303.3,267.961v-5.947l5.227,2.974Z" transform="translate(-183.114 -93.731)"/></g></svg>