<svg xmlns="http://www.w3.org/2000/svg" width="20" height="20" viewBox="0 0 20 20">
  <g id="outline_checkmark-circle-2" data-name="outline/checkmark-circle-2" transform="translate(-2 -2)">
    <path id="_-Icon-Сolor" data-name="🎨-Icon-Сolor" d="M11.971,2a10.977,10.977,0,0,1,2.381.278,1,1,0,0,1-.469,1.945A8.817,8.817,0,0,0,11.977,4,8,8,0,0,0,12,20h.023A8,8,0,0,0,20,11.977a1,1,0,0,1,1-1h0a1,1,0,0,1,1,1A10,10,0,0,1,12.029,22H12A10,10,0,0,1,4.909,4.949,9.935,9.935,0,0,1,11.971,2Zm6.277,4.341a1,1,0,0,1,1.5,1.318h0l-7,8a1,1,0,0,1-.719.341H12a1,1,0,0,1-.707-.293h0l-3-3a1,1,0,0,1,1.414-1.414h0l2.244,2.244Z" fill="#298807"/>
  </g>
</svg>
