<?xml version="1.0" encoding="UTF-8"?>
<svg width="24px" height="24px" viewBox="0 0 24 24" version="1.1" xmlns="http://www.w3.org/2000/svg" xmlns:xlink="http://www.w3.org/1999/xlink" fill="currentColor">
    <!-- Generator: Sketch 63.1 (92452) - https://sketch.com -->
    <title>person-add</title>
    <desc>Created with Sketch.</desc>
    <g id="person-add" stroke="none" stroke-width="1">
        <path d="M10,13 C6.141,13 3,16.14 3,20 C3,20.552 3.447,21 4,21 C4.553,21 5,20.552 5,20 C5,17.243 7.243,15 10,15 C12.757,15 15,17.243 15,20 C15,20.552 15.447,21 16,21 C16.553,21 17,20.552 17,20 C17,16.14 13.859,13 10,13 M8,7 C8,8.103 8.897,9 10,9 C11.103,9 12,8.103 12,7 C12,5.897 11.103,5 10,5 C8.897,5 8,5.897 8,7 M6,7 C6,4.794 7.794,3 10,3 C12.206,3 14,4.794 14,7 C14,9.206 12.206,11 10,11 C7.794,11 6,9.206 6,7 M22,7 C22,7.55 21.55,8 21,8 L20,8 L20,9 C20,9.55 19.55,10 19,10 C18.45,10 18,9.55 18,9 L18,8 L17,8 C16.45,8 16,7.55 16,7 C16,6.45 16.45,6 17,6 L18,6 L18,5 C18,4.45 18.45,4 19,4 C19.55,4 20,4.45 20,5 L20,6 L21,6 C21.55,6 22,6.45 22,7" id="🎨-Icon-Сolor"></path>
    </g>
</svg>