<svg xmlns="http://www.w3.org/2000/svg" width="50.375" height="50.375" viewBox="0 0 50.375 50.375"><defs><style>.a,.c{fill:#fff;}.a{stroke:#202020;stroke-miterlimit:10;stroke-width:0.75px;opacity:0;}.b{fill:#f3f8ff;fill-rule:evenodd;}.d{fill:#ff7e94;}.e{fill:#22557b;}.f{fill:#063f6a;}.g{fill:#8adaf4;}.h{fill:#2d82f7;}</style></defs><g transform="translate(0 0.375)"><path class="a" d="M0,0H50V50"/><path class="a" d="M0,0H50V50"/><path class="a" d="M0,0H50V50"/><g transform="translate(6.759 4.836)"><path class="b" d="M14.1,24.4C13.06,33.364,21.6,48.968,32.283,48.523S49.52,38.485,50.642,28.66,47.024,9.011,36.949,7.842,15.157,15.44,14.1,24.4Z" transform="translate(-14.014 -7.737)"/><path class="c" d="M44.886,18.4H27.378V47.618c.13,0,.464.269.584.325h18.36c0-.278-.269-1.42-.269-1.708l.522-26.108A1.69,1.69,0,0,0,44.886,18.4Z" transform="translate(-18.006 -10.923)"/><g transform="translate(16.563 34.286)"><path class="d" d="M41.734,58.158H38.2c-.19,0-.344-.22-.344-.492v-.224c0-.272.154-.492.344-.492h3.537c.19,0,.344.22.344.492v.224C42.078,57.938,41.924,58.158,41.734,58.158Z" transform="translate(-37.698 -56.724)"/><path class="e" d="M43.386,58.524c0,.013,0,.043.011.036l.006-.05Z" transform="translate(-39.35 -57.19)"/><path class="e" d="M43.49,58.586a.16.16,0,0,0,0-.116c0,.052-.008.033-.013.094-.012.011-.025-.01-.024-.028,0,.013-.019-.006-.024.025.018.036.044.033.059-.007A.066.066,0,0,1,43.49,58.586Z" transform="translate(-39.363 -57.178)"/><path class="e" d="M43.088,56.849l.009.006A.018.018,0,0,0,43.088,56.849Z" transform="translate(-39.262 -56.694)"/><path class="e" d="M41.892,56.805a.011.011,0,0,0,.009-.011C41.9,56.8,41.89,56.8,41.892,56.805Z" transform="translate(-38.904 -56.678)"/><path class="e" d="M41.688,56.73l.008,0S41.69,56.727,41.688,56.73Z" transform="translate(-38.844 -56.658)"/><path class="e" d="M43.078,56.842l-.022-.016C43.055,56.843,43.068,56.839,43.078,56.842Z" transform="translate(-39.252 -56.687)"/><path class="e" d="M43.651,58.327a.057.057,0,0,0,0,.019l0-.013Z" transform="translate(-39.43 -57.136)"/><path class="e" d="M43.657,56.88l.008.005.013-.013Z" transform="translate(-39.432 -56.701)"/><path class="e" d="M43.953,57.407c0-.012-.03,0-.043,0a.023.023,0,0,1,.024.014A.065.065,0,0,0,43.953,57.407Z" transform="translate(-39.507 -56.859)"/><path class="e" d="M43.835,58.385v0Z" transform="translate(-39.485 -57.153)"/><path class="e" d="M43.325,56.771l0-.015A.055.055,0,0,0,43.325,56.771Z" transform="translate(-39.332 -56.666)"/><path class="e" d="M42.918,58.389V58.4S42.92,58.389,42.918,58.389Z" transform="translate(-39.211 -57.154)"/><path class="e" d="M43.385,58.689l0,0v.024Z" transform="translate(-39.349 -57.244)"/><path class="e" d="M41.314,56.652h0C41.322,56.649,41.318,56.649,41.314,56.652Z" transform="translate(-38.732 -56.635)"/><path class="e" d="M37.806,57.087c.041-.018,0,.093.049.058C37.842,57.143,37.847,57.051,37.806,57.087Z" transform="translate(-37.684 -56.763)"/><path class="e" d="M43.66,58.32l.006-.009A.014.014,0,0,0,43.66,58.32Z" transform="translate(-39.433 -57.131)"/><path class="e" d="M37.876,57.172h0l.005,0Z" transform="translate(-37.705 -56.79)"/><path class="e" d="M40.453,56.69a.056.056,0,0,0,.006.018A.045.045,0,0,0,40.453,56.69Z" transform="translate(-38.475 -56.647)"/><path class="e" d="M41.089,56.774l-.011-.006A.033.033,0,0,0,41.089,56.774Z" transform="translate(-38.661 -56.67)"/><path class="e" d="M40.112,56.773c-.006,0-.008-.009-.016,0l0,0C40.1,56.769,40.106,56.766,40.112,56.773Z" transform="translate(-38.368 -56.67)"/><path class="e" d="M39.773,56.776l0,.009.008,0Z" transform="translate(-38.271 -56.672)"/><path class="e" d="M41.864,58.418a.147.147,0,0,1,.011.038C41.872,58.426,41.907,58.415,41.864,58.418Z" transform="translate(-38.896 -57.163)"/><path class="e" d="M43.664,58.342a.029.029,0,0,1-.006-.018l0,.008S43.662,58.342,43.664,58.342Z" transform="translate(-39.432 -57.135)"/><path class="e" d="M40.089,57.25l-.039-.006A.114.114,0,0,0,40.089,57.25Z" transform="translate(-38.354 -56.812)"/><path class="e" d="M39.377,58.425l.008-.006S39.379,58.42,39.377,58.425Z" transform="translate(-38.153 -57.163)"/><path class="e" d="M39.876,57.24a.08.08,0,0,0-.022-.029.042.042,0,0,0,0,.011Z" transform="translate(-38.294 -56.802)"/><path class="e" d="M41.881,58.473h0Z" transform="translate(-38.901 -57.179)"/><path class="e" d="M40.866,57.821c-.036,0-.017.055-.025.087-.044.015-.02-.041-.036-.069-.027.015-.048.066-.069.064,0-.01-.006-.013,0-.025-.029.045-.086,0-.12.058a.029.029,0,0,1,0-.014.338.338,0,0,1,0,.076c-.017,0-.031.036-.037,0,.011,0,.011-.014.016-.025l-.018.016c-.015-.053.024-.018.024-.058-.034.018-.073.061-.1.046-.006-.051.06-.017.026-.062l.04.02c-.031-.081.024.006,0-.081-.053-.015-.058.026-.111.011-.012.029,0,.042-.008.071-.074.051-.058-.129-.113-.061-.015.034-.02.1-.059.065l.013-.058c-.051-.006-.029.083-.083.044.01-.022.04-.019.032-.026-.034-.046-.025.033-.05.033l-.006-.051c-.055.008-.114.045-.174.055,0-.015.013-.032,0-.048a.348.348,0,0,1-.235-.036l-.028.044c-.006,0-.012-.02,0-.029-.028-.017,0,.029-.015.046s-.021-.025-.011-.039c-.05.038-.144.081-.2.034l.011-.013c-.041-.018-.047.091-.085.05l.007-.008c-.089-.02-.188.021-.257-.046-.013.064-.088-.029-.094.06-.051-.044-.036-.06-.109-.09-.019,0-.029.055-.053.065v-.047l-.032.049-.018-.056-.022.012a.037.037,0,0,1,.018.034c-.034.021-.085-.032-.086-.056l-.082.039c0-.018.015-.025.026-.037-.043.048-.008-.049-.048-.006,0,.011,0,.028,0,.037a.089.089,0,0,0-.1-.016l.006-.032a1.828,1.828,0,0,0-.2.015c.025.015.019.071,0,.076l-.008-.05c-.013.031.021.019-.006.056-.026-.006-.018-.056,0-.072l-.031.018c0-.015.006-.022.007-.041-.013.031-.053-.05-.072,0v-.015c-.068,0-.1.017-.154.019,0,.042-.015.033-.029.065-.029-.019-.049-.063-.076-.082-.027,0-.019.026-.038.039.013-.034-.014-.059.011-.066-.031-.032-.039-.038-.083-.088-.008.014-.008.027-.018.028a.034.034,0,0,1,.013-.043h0c-.032-.028-.021-.091,0-.134a.234.234,0,0,0,0-.174l0,.006a.863.863,0,0,0-.029-.09c.006-.031.02.021.037,0-.038-.081.022-.1.018-.164.073.036.077-.117.138-.066l-.007-.025c0-.029.015.011.022.015,0-.021-.014-.02-.011-.036.032-.029.119-.013.189,0s.147.041.22.053c.053.007.03-.14.1-.075l-.019.05c.107-.06.219,0,.323-.049-.006.012-.006.027-.017.027.022.036.082,0,.082-.028.017,0,0,.027.014.042s.055-.046.067-.011c0,.006-.006.012-.01.015.014-.018.067,0,.053-.037.039.02.075-.019.107.006.02-.046.067.023.074-.043,0,.069.069.055.094.023-.008.02.021.022.012.05.028,0,.054-.013.049-.048.052.081.105-.066.135.039a1.244,1.244,0,0,1,.238-.077c0,.068-.084.006-.081.078.072-.028.114-.086.184-.07.019.01-.011.03-.017.041.072-.028.14.006.2-.031a.034.034,0,0,1-.014.018c.013,0,.029.011.028-.02L40.084,57c-.02-.046.05-.094.053-.118-.022.088.063.022.029.135a.05.05,0,0,0,.017-.041c.012.006.016.018,0,.041.045-.017.029-.05.07-.049,0,.015-.008.021-.013.039.02-.029.041-.058.076-.046,0,.009,0,.02-.008.02.06,0,.1-.078.166-.05-.019.065.022.022.025.078L40.538,57l-.014-.027c.031,0,.058-.04.084-.022l-.022.023.058-.011-.033-.021c.032-.029,0-.072.038-.056-.008.006.03,0,.046.034h0c.015-.018.031-.037.053-.023.006.018,0,.062,0,.074.015-.047.072-.013.09-.063a.1.1,0,0,0,0,.048l.013-.039c.014.013.016.018.014.042.042.007-.014-.072.037-.041,0,0,0,.008-.011.015.05.015.1-.025.145-.006.013.057-.041.014-.025.062.067-.011.14-.068.2-.055l-.012-.006c.009-.08.048.039.081,0a.064.064,0,0,0-.008.035c.045.013.092-.02.159-.045l-.008.021c.027.018.069.011.1.02.008-.02.025-.017.015-.047.087.119.175-.072.222.056-.008,0-.021.011-.015.013a.214.214,0,0,1,.054.01c.007-.034,0-.023,0-.055a.035.035,0,0,1,.048-.006c-.032,0-.018.05-.018.073,0-.01.011-.017.013-.027,0,.076.034-.055.051.021l-.011.011c.017.008.04.008.05.032-.017.034-.022-.007-.04.015.016.02.074.008.062.059-.012-.007-.02-.026-.033-.03-.013.054-.007.05,0,.073v0a.5.5,0,0,1,0,.055l.006-.017c.079,0,.032.069.082.119-.05-.052-.027-.006-.059-.006-.008.015-.018.034-.027.029.027.022-.02.048.018.09-.01,0,0,.032-.027.025.008.04.018-.009.031-.006.034.065-.039.143,0,.211a.522.522,0,0,1,.028.172c-.022.008-.025-.043-.025-.043a.1.1,0,0,0-.038.076c0-.013-.013-.015-.026-.02-.009.02.02.05-.009.057a.6.6,0,0,1-.015-.059.433.433,0,0,1-.023.095c-.014-.018,0-.042-.006-.062a.213.213,0,0,0-.036.1l.019,0c-.008.008-.015-.029-.011-.039.007-.04.029-.008.036,0l-.01.02c.047.062.051-.065.071-.092l.022.058c0-.025,0-.049,0-.072a.037.037,0,0,1,.03.043c.033-.011,0-.039.034-.046,0,0,.006,0,.006.007l0-.042c0,.013.029.015.015.032.049-.049,0-.121.04-.13v.006c0-.1-.029-.022-.057-.1a.4.4,0,0,0,.082-.036l-.032-.011c0-.01,0-.028.017-.025-.022-.034-.014.006-.034-.014.029-.043-.014-.121.037-.131-.025-.015-.019.042-.036,0,.055-.014-.008-.053.015-.1.029.011.015.055.039.008-.048-.022,0-.091-.013-.13-.036.013-.032-.074-.067-.12.015-.007-.028-.118-.055-.172l0-.006c-.032.033-.06-.011-.092-.023.013-.028.022-.036.043-.034l-.027-.023a.04.04,0,0,1-.043.008l.018-.034c-.042-.022-.089.006-.139-.028,0,.039.028.111-.018.133,0-.021,0-.057.012-.065,0,0-.016.016-.024.006l.021-.034c-.022-.017-.013.028-.029.025,0-.029-.012-.021-.01-.045,0,0,.013.012.021,0a.076.076,0,0,1-.048-.046c0,.017,0,.04-.013.044-.035,0-.012-.036-.032-.051-.008.02-.031,0-.031.043-.011,0-.013-.021-.016-.033-.018.02-.084.006-.064.053l0,0,0,0h0c-.059.044-.122-.025-.181-.006v-.015c-.034.017-.077.01-.1.042-.011,0-.025-.027-.02-.045-.027.011-.03.028-.069,0,.027-.027-.009-.023.028-.02-.035-.013-.043-.036-.08,0A.029.029,0,0,0,41,56.723l.025.027a.1.1,0,0,1-.051,0l.009-.05c-.072-.061-.128.1-.182,0-.019.035.039.025.022.066-.032-.007-.067-.079-.076-.079-.045-.028-.042.074-.089.055.006.018.012.066-.023.083-.032-.007-.04-.076-.02-.09a.009.009,0,0,1,.011.01c.011-.006.025-.014.012-.034l0,.018c-.016-.018-.061-.016-.05-.046-.025.017-.011.029.008.039-.042-.026-.066,0-.109-.018.007.01.013.031.006.031-.063-.022-.028.034-.071.042-.025-.027.008-.066-.034-.043-.027-.018-.006-.048,0-.062-.039.035-.074-.022-.1-.029l.021-.015a.048.048,0,0,1-.033.008l.012.036c-.013-.006-.022-.006-.022-.021-.013.023.01.06-.015.092-.016-.018-.049.02-.055-.028.051.016-.006-.048.037-.055a.028.028,0,0,1-.03,0,.011.011,0,0,1,0-.013c-.049-.042-.022.054-.073.053.006-.027-.012-.051-.02-.046.02,0,.01.045-.008.065-.033-.02-.036.016-.053.013l.02.01c-.006.027-.023.023-.046.032,0-.02.02-.014.013-.023-.025.047-.057-.049-.092-.018-.016-.018,0-.05-.015-.062-.039.035-.043-.036-.084-.008.012.036.014.027-.015.062l.068-.026-.043.053c.02,0,.043-.022.055-.016-.021.029-.019.02-.009.05-.028-.054-.055.032-.088,0v-.089c-.048-.04-.086.046-.149.023l.02.015c-.008.036-.039,0-.06.02a.1.1,0,0,0-.02-.06c0,.022-.046,0-.052.058l-.028-.039c-.051-.016-.058.086-.107.075.015-.032-.007-.053.025-.076-.016,0-.031-.006-.031.015-.01-.019-.046.04-.06.012-.007.013-.009.044-.028.042a.039.039,0,0,1,0-.015c0,.015-.029.02-.013.053-.05-.093-.14.007-.184-.073a.617.617,0,0,1-.111.022c0-.009,0-.015.006-.012-.045-.027-.028.086-.079.055-.026-.048.027-.026.011-.044-.007-.1-.061.013-.1-.044l.008-.006c-.027-.034-.064.037-.107.03a.031.031,0,0,0,0-.015.212.212,0,0,1-.126.081c.013-.039.018-.02.011-.06-.018.006.006.063-.031.074a.159.159,0,0,1-.042-.081l.034,0c-.018-.054-.045,0-.063-.007l0-.024c-.053.008-.054.067-.111.063l.006.018c-.031.059-.026-.033-.058.011l-.009-.06a.467.467,0,0,1-.109.069c.021-.044.065-.067.091-.093-.02,0-.069,0-.08.034.008-.006.018-.02.027-.011a.108.108,0,0,1-.1.069c.006-.114-.1-.034-.153-.111-.085.061-.189.064-.27.189.072.022-.02.036.033.09-.011.029-.016.038-.021.037a.374.374,0,0,0-.07.061c-.025.013,0-.04-.016-.047-.029.073-.036.013-.067.06.025,0,.022.043.006.088a.451.451,0,0,1,.043-.053c.011.119-.075.081-.048.21l-.019-.04c.008.078,0,.173.05.224-.008.008-.025.018-.03,0a.611.611,0,0,0,.033.2.949.949,0,0,1,.053.184l-.018,0c.014.02.041.017.042.056-.006,0-.018,0-.013.015s.052.03.062.063l-.027,0c.058.127.145.088.213.107-.018.065.056.115.1.128v.009c.107.013.149-.054.232-.079.048.072.163.03.241.07-.012-.012,0-.051.015-.058.018.013.05-.046.048.015h-.006c.013.06.051.043.08.046l0-.08c.076.116.2-.043.242.061.018-.02.041-.02.06-.039v.043a.309.309,0,0,0,.14.006l-.013.031c.036,0,.046-.123.078-.126l.011.064c.062,0,.125.055.186,0,0,.01,0,.028-.013.031.029,0,.113.043.1-.045,0,.057.065.006.1-.02l0,.043c.028-.054.029-.069.069-.083.01,0,.008.034,0,.022.032.022.025-.04.062-.018l-.014.027c.032,0,.029-.011.047-.043s.061.011.066.049c0-.024.022-.055.041-.043a.031.031,0,0,1-.008.027c.054.029.08-.049.117-.008a.042.042,0,0,0,.006.025.223.223,0,0,1-.074-.006c0,.039.034.046.007.1.028-.029.075-.093.109-.075a.059.059,0,0,1,0,.013l0,0a.018.018,0,0,0,.021-.006.053.053,0,0,0,.028.011c0,.032.039.018.057.019,0-.042.021-.036,0-.071,0,0,0,.006-.015.007l-.008,0v0l-.043,0c.013-.022.027-.039.047-.016l.024-.069c.023.06.069.092.075.128.053-.024.123-.016.157-.1.015-.01.017.023.022.036s-.019.007-.024.018c.03-.02.088-.008.1-.064.037.025-.021.051.03.042l-.007.018c.1.089.166-.142.278-.028-.008-.007-.012-.011-.013-.02.128.05.265-.048.392.032.036.016.04-.019.062-.046l.008.046.038-.053c.053-.039.092.112.16.039l-.009-.031c.025.006.077-.018.073.017,0-.006.008-.032.018-.015v.024l.06-.041c.046.018-.007.1.06.1.025-.009.072-.069.062-.086a.038.038,0,0,1-.027-.039l.023-.013c0-.07.022-.142-.034-.191l-.039.043-.013-.034.033,0c-.019-.032-.031,0-.044.015a.064.064,0,0,0-.016-.038l-.039.067c0-.027.018-.055-.008-.069-.018.031.018.062-.013.082-.019-.032-.013-.058-.035-.031a.037.037,0,0,1,.01-.037c-.02.022-.052.009-.062.046-.02-.039-.066.011-.065-.056-.006.015-.034.052-.053.055.033-.08-.067,0-.058-.09-.025.072-.088.032-.131.072,0-.006.007-.018.011-.014-.025-.006-.032-.027-.047-.041,0,.059-.041.073-.062.109-.029-.058.018-.07.009-.125,0,.048-.052.048-.042.088-.022-.036-.019-.018-.031-.067,0,.074-.021.013-.04.058-.033-.036-.008-.069-.045-.047C40.834,57.848,40.866,57.821,40.866,57.821Zm-.86.128h0l.018,0Zm-.072,0h.032c0,.015,0,.03-.008.029S39.945,57.962,39.934,57.95Zm.153.295c-.011.006-.015,0-.017-.011l.02,0v-.006A.127.127,0,0,1,40.086,58.244Z" transform="translate(-37.632 -56.628)"/><path class="e" d="M41.159,58.848l0,0-.007-.01,0,.013Z" transform="translate(-38.684 -57.287)"/><path class="e" d="M43.1,56.858h0l0,.006Z" transform="translate(-39.266 -56.696)"/><path class="e" d="M39.491,58.4v.011L39.5,58.4Z" transform="translate(-38.187 -57.156)"/><path class="e" d="M43.61,57.161a.038.038,0,0,0,0,.013S43.61,57.167,43.61,57.161Z" transform="translate(-39.417 -56.787)"/><path class="e" d="M43.738,57.38v.032A.188.188,0,0,0,43.738,57.38Z" transform="translate(-39.456 -56.853)"/><path class="e" d="M43.763,57.592h0Z" transform="translate(-39.464 -56.916)"/><path class="e" d="M41.1,57.181l0,0C41.086,57.192,41.094,57.188,41.1,57.181Z" transform="translate(-38.665 -56.793)"/><path class="e" d="M41.99,57.04a.112.112,0,0,1-.02.02C41.981,57.063,41.99,57.064,41.99,57.04Z" transform="translate(-38.928 -56.751)"/><path class="e" d="M40.11,57.254h0Z" transform="translate(-38.371 -56.815)"/><path class="e" d="M41.929,57.066a.022.022,0,0,0,.029,0A.03.03,0,0,0,41.929,57.066Z" transform="translate(-38.916 -56.758)"/><path class="e" d="M43.548,58.428h0l0,.007Z" transform="translate(-39.398 -57.166)"/><path class="e" d="M43.544,58.439l0,.008A.006.006,0,0,0,43.544,58.439Z" transform="translate(-39.397 -57.169)"/><path class="e" d="M43.53,58.467l.008-.017S43.529,58.454,43.53,58.467Z" transform="translate(-39.394 -57.172)"/><path class="e" d="M43.7,58.269l-.008-.011Z" transform="translate(-39.442 -57.115)"/><path class="e" d="M43.713,58.2c-.006.012-.031.014-.032.034l.006.008C43.677,58.221,43.725,58.222,43.713,58.2Z" transform="translate(-39.439 -57.097)"/><path class="e" d="M43.947,57.825l-.008.063c.011-.011.027-.025.029,0C44,57.811,43.943,57.908,43.947,57.825Z" transform="translate(-39.516 -56.986)"/><path class="e" d="M43.967,57.512c.01.04.017,0,.023,0C43.977,57.484,43.974,57.479,43.967,57.512Z" transform="translate(-39.524 -56.885)"/><path class="e" d="M42.656,56.794l0-.039C42.64,56.761,42.659,56.77,42.656,56.794Z" transform="translate(-39.131 -56.666)"/><path class="e" d="M42.386,57.09l.018.024.009-.035Z" transform="translate(-39.052 -56.763)"/><path class="e" d="M42.216,56.7l.008-.006-.031.014Z" transform="translate(-38.995 -56.648)"/><path class="e" d="M39.834,56.721l.006.048C39.852,56.76,39.855,56.707,39.834,56.721Z" transform="translate(-38.29 -56.655)"/><path class="e" d="M38.785,56.779c-.008-.024-.028-.039-.041-.015C38.76,56.768,38.776,56.786,38.785,56.779Z" transform="translate(-37.964 -56.665)"/><path class="e" d="M39.212,58.941l-.015.016.027-.013Z" transform="translate(-38.099 -57.319)"/></g><path class="f" d="M39.235,54.324a.317.317,0,0,0-.121,0,1.08,1.08,0,0,1-.306.035H37.287a1.412,1.412,0,0,1-.306-.046.313.313,0,0,0-.25.046.6.6,0,0,1-.316,0,.414.414,0,0,0-.176,0,2.308,2.308,0,0,1-.631.046H34.532a.26.26,0,0,0-.251.127h-.167a.041.041,0,0,1,0-.029v-.081a10.448,10.448,0,0,0-1.15-.064h-3.98c-.3.011-.533.173-.515.361s.278.332.58.32h1.9a5.527,5.527,0,0,1,1.067.046.24.24,0,0,0,.13,0c.195-.075.417,0,.612-.086a.208.208,0,0,1,.121,0,4.981,4.981,0,0,0,.928.058,5.659,5.659,0,0,1,1.252.041c.111,0,.259,0,.3-.156l-.121-.006h.083v.041a.823.823,0,0,0,.408.116,2.268,2.268,0,0,1,.687.04.384.384,0,0,1,.3,0,.208.208,0,0,0,.121,0,1.068,1.068,0,0,1,.426-.058c.442.014.885.014,1.327,0a1.619,1.619,0,0,1,.371.046.667.667,0,0,0,.316,0,1.223,1.223,0,0,1,.612,0,1.864,1.864,0,0,0,.816,0,.485.485,0,0,1,.241,0,.92.92,0,0,0,.557,0,.953.953,0,0,1,.316,0h.816a2.469,2.469,0,0,1,.621.057,1.189,1.189,0,0,0,.316,0h1.364c.067-.021.109-.063.111-.109a.22.22,0,0,0,.037-.133h0a.326.326,0,0,0,.111-.029l-.111.029a.139.139,0,0,0-.046.046c0,.034,0,.064.1.046a.719.719,0,0,0,.213-.1c.175-.072.241-.21.158-.33a.606.606,0,0,0-.5-.2h-.881a2.511,2.511,0,0,0-.881.052h-.056a2.57,2.57,0,0,0-.816,0q-.093,0-.185,0c-.559-.053-1.123-.084-1.689-.093A7.649,7.649,0,0,1,39.235,54.324Z" transform="translate(-18.332 -21.648)"/><path class="f" d="M40.951,57.523Z" transform="translate(-22.061 -22.609)"/><path class="f" d="M37.8,21.614h1.151L39,21.5c.046,0,.074.112.111.112a4.246,4.246,0,0,0,.482,0h1.067l.065.149H41l.055-.121h.1s.065,0,.093-.093v-.1h0a.269.269,0,0,0,.065.158.483.483,0,0,0,.2-.863h-.1a.342.342,0,0,0-.046-.1l-.093.1h-.213v-.121h-.083l-.056.1h-.176l-.055-.112H37.916a.63.63,0,0,0-.371.083.5.5,0,0,0,0,.844A.466.466,0,0,0,37.8,21.614Z" transform="translate(-20.974 -11.582)"/><path class="f" d="M46.517,21.816a1.981,1.981,0,0,0-.065-.612l-.083-.353a.09.09,0,0,0-.074-.083.343.343,0,0,0-.241-.056,1.72,1.72,0,0,0-.334.093l-.093.167a5.482,5.482,0,0,0,0,.7c0,1.224.121,12.345,0,13.607a8.163,8.163,0,0,1,0,1.966,19.068,19.068,0,0,0,0,3.164c.121,1.438.093,2.885.093,4.332v1.02a2.408,2.408,0,0,1-.083.974A1.255,1.255,0,0,1,45,47.4a2.14,2.14,0,0,1-.928.111H39.986a7.678,7.678,0,0,1-1.15,0c-.928-.139-1.921.055-2.783-.093a3.7,3.7,0,0,0-.844,0c-.575.055-1.16,0-1.707,0H32.369L30.95,47.5a9.291,9.291,0,0,1-1.438,0,3.3,3.3,0,0,0-1.095,0,1.049,1.049,0,0,1-1.243-.808.969.969,0,0,1-.018-.12A19.161,19.161,0,0,0,27.23,44.6c0-.7,0-1.317.055-1.976a3.811,3.811,0,0,0,0-.566,6.631,6.631,0,0,1,0-1.132c0-.658.046-1.354,0-2.022a1.942,1.942,0,0,0-.241-1.1v-.52a1.468,1.468,0,0,0,.13-.928,7.259,7.259,0,0,1-.047-1.428,7.9,7.9,0,0,0,0-1.7l.093-1.79a8.21,8.21,0,0,0,0-1.438,2.729,2.729,0,0,1,0-.556,14.658,14.658,0,0,0,0-3.127,12.1,12.1,0,0,0,0-1.642,9.17,9.17,0,0,0,.046-1.428s-.056-3.628-.056-3.711a1.253,1.253,0,0,1,1.123-1.364,8.817,8.817,0,0,0,1.4,0h6.021a18.792,18.792,0,0,0,2.3-.046c.492-.046,4.462,0,4.954,0h.566c.186,0,.884-.137.884-.338v-.246c0-.461-.94-.427-.94-.427h-.1c-.459-.046-4.457-.046-4.917,0a6.076,6.076,0,0,1-1.688,0,3.54,3.54,0,0,0-.835,0,3.7,3.7,0,0,1-.844,0,8.943,8.943,0,0,0-1.1-.083H28.76a3.522,3.522,0,0,0-.928.074,1.947,1.947,0,0,0-.835.436,2.337,2.337,0,0,0-.863,1.54c-.056.928,0,3.581,0,4.945a2.652,2.652,0,0,1,0,.538c-.112.705,0,1.54-.13,2.273a11.1,11.1,0,0,0-.056,1.132v2a14.031,14.031,0,0,0,.111,1.4,4.928,4.928,0,0,1,0,1.114v2.885a14.315,14.315,0,0,1,.046,1.689,15.7,15.7,0,0,0-.046,1.725,6.419,6.419,0,0,0,0,.853,5.575,5.575,0,0,1,0,1.114,12.445,12.445,0,0,0,0,1.428,14.587,14.587,0,0,1,0,1.68c0,.575-.046,1.159-.046,1.735a4.57,4.57,0,0,0,.055.928,1.975,1.975,0,0,0,.445.863c.065.074.158.149.214.222a1.852,1.852,0,0,0,1.391.668c.492,0,.928-.046,1.41-.083a7.44,7.44,0,0,0,1.113,0,8.589,8.589,0,0,1,1.7.046c.6,0,1.086-.13,1.7-.093h.288a5.009,5.009,0,0,0,1.123,0h1.113a17.367,17.367,0,0,1,1.967,0,8.5,8.5,0,0,0,1.679,0c.928.055,1.7-.083,2.57-.074h1.308A2.434,2.434,0,0,0,45.4,47.8a2.015,2.015,0,0,0,.928-1.039,3.554,3.554,0,0,0,.148-1.354V37.547Zm-20.206,7.66c0-.168,0-.251.056-.26v.7a.741.741,0,0,1-.047-.148A1.518,1.518,0,0,1,26.311,29.476Z" transform="translate(-17.579 -10.51)"/><path class="f" d="M46.23,17.954l.009.019v.009Z" transform="translate(-23.638 -10.789)"/><path class="g" d="M24.912,13.141a.559.559,0,0,0-.594-.149l-.25.083c-.1,0-.176.083-.288.074s-.121.158-.222.158-.084.046-.13.056-.111,0-.13.065a.324.324,0,0,1-.25.195s-.083,0-.093.074-.056.074-.093.112a4.9,4.9,0,0,0-.7.76l-.25.362a.277.277,0,0,1-.093.083c-.046.019-.083.046-.083.093a.9.9,0,0,1-.065.13.178.178,0,0,0,0,.121c0,.065-.046.083-.1.121h0a.129.129,0,0,1,0,.167v.176a.148.148,0,0,1-.1.167c-.1.037-.1.047-.065.083s0,.084,0,.121h0c.056.065,0,.1,0,.149s-.065.055-.055.083.065.112.055.158-.074.083-.1.13a.113.113,0,0,0,0,.074v.38h0a.687.687,0,0,0,.4.631.441.441,0,0,0,.241,0,.111.111,0,0,0,.065-.111.742.742,0,0,0,0-.158.257.257,0,0,0,0-.093h.046a.189.189,0,0,0,0,.074v.112a.464.464,0,0,0,.482-.316.683.683,0,0,0,0-.436v-.065a.445.445,0,0,0,.056-.14,3.88,3.88,0,0,1,.473-1.345A3.422,3.422,0,0,1,24.1,14.264l.306-.186h.121a1.43,1.43,0,0,1,.259-.093.633.633,0,0,0,.371-.288A.548.548,0,0,0,24.912,13.141Z" transform="translate(-16.189 -9.298)"/><path class="g" d="M21.945,9.091l.13.065H22.4a.64.64,0,0,0,.473-.417.54.54,0,0,0-.093-.325.52.52,0,0,0-.566-.436l-.5.074a6.188,6.188,0,0,0-.974.269,5.783,5.783,0,0,0-1.79.928v.2a7.014,7.014,0,0,0-1.1,1.02V10.7l-.223.056c-.139.3-.5.52-.482.928h0c-.176,0-.176.195-.269.3l-.195.1a4.3,4.3,0,0,0-.436,1.5,1.408,1.408,0,0,1,.046.306v.482a.28.28,0,0,0,.093.2v1a.378.378,0,0,0,.231.3.291.291,0,0,0,.167-.055h.056a.67.67,0,0,0,.083.083.428.428,0,0,0,.278-.39.653.653,0,0,0-.121-.139V14.76l.139-.177a6.233,6.233,0,0,1,.158-1.029,5.782,5.782,0,0,1,1.29-2.542,5.182,5.182,0,0,1,.6-.593l.046-.195a4.949,4.949,0,0,1,2.264-1.086C21.731,9.249,21.824,9.249,21.945,9.091Zm-5.214,3.776a6.893,6.893,0,0,0-.222,1.234h0A5.233,5.233,0,0,1,16.731,12.867Z" transform="translate(-14.678 -7.808)"/><g transform="translate(12.351 14.448)"><path class="h" d="M42.307,28.388l.029-.032A2.025,2.025,0,0,0,42,28.344c-.025.034-.079.039-.041.081-.327-.141-.525.2-.809.139.029-.011.062-.05.038-.043a2.238,2.238,0,0,0-.2.1c.036.045.039.02.1.042a.212.212,0,0,1-.11.109c.076-.072-.034-.082-.086-.093.013.013.007.035.017.05-.144-.044.025.105-.141.112l0-.029c-.046.039-.076.1-.135.117-.053-.046.041-.054.022-.1-.079.042-.1.184-.2.168.024-.034.069-.062.1-.094a.2.2,0,0,0-.175.02l.006,0-.149.046.044,0c-.012.2-.176.147-.243.316.064-.163-.013-.062-.043-.128-.044,0-.1.019-.1-.008-.025.089-.124.032-.156.158-.018-.016-.064.042-.086-.014-.062.071.041.019.053.048-.064.149-.326.126-.413.342-.1.135-.083.218-.155.336l-.027.023c-.043-.009-.012-.088-.012-.088a.3.3,0,0,0-.175.158c0-.026-.026-.027-.062-.029-.044.05.025.092-.062.127a.309.309,0,0,1-.016-.113c-.043.069-.067.155-.11.227-.044-.014-.008-.078-.006-.117-.053.076-.143.192-.116.257l.057-.025c-.021.026-.051-.027-.042-.053a.071.071,0,0,1,.115-.05l-.03.051c.138.057.147-.178.24-.251l.027.086c-.224.212-.432.425-.619.624,0,0,0,.008,0,.011-.027-.031-.052-.065-.08-.091a.033.033,0,0,0,.036-.016l-.035-.078-.034.066.006.006c-.038-.022-.154-.017-.219.2a.419.419,0,0,0,.151.264.415.415,0,0,0,.029.1.447.447,0,0,1-.15-.216.25.25,0,0,0,.234.245.154.154,0,0,0,.109.1.414.414,0,0,0,.273-.148c.058.014-.085.151.117.053.043-.071,0-.062-.034-.065s-.032-.024,0-.082c.078-.009.1.032.113-.049.028.013.031.036.02.065.019-.069.1-.13.084-.194.088,0,.137-.163.207-.084a.328.328,0,0,1,.058-.179c.013.163.158-.144.232-.026-.022-.136.168-.226.229-.362,0,.012,0,.036-.011.039a.352.352,0,0,1,.154-.048c-.053-.077.025-.17.038-.257.13.011.025.122.1.17-.053-.057.079-.16.015-.189.091,0,.066-.017.142.022-.061-.1.04-.057.044-.149.118-.013.086.073.157-.021.064,0,.007.09.007.09.093-.065-.006-.1-.016-.156.1-.1.088.015.152.027.057-.065.068-.168.123-.2.011.01.025.008.022.031.041-.107.225-.139.276-.264a.048.048,0,0,1,.022.013.269.269,0,0,1-.071-.1c.046-.025.062-.093.105-.05-.029.013-.021.034-.026.058l.037-.047c.081.052-.053.059-.025.114.079-.073.163-.189.248-.2.047.068-.162.1-.034.123-.042.006-.083.015-.125.025.14.073-.07.026.067.11.151-.048.144-.109.3-.151.018-.053-.035-.058-.017-.111.193-.15.23.13.356-.012.027-.062.02-.169.149-.141l-.021.1c.149-.018.062-.144.231-.109-.024.04-.114.049-.09.056.112.056.064-.066.144-.074l.025.08a2.4,2.4,0,0,1,.513-.086c-.013.023-.045.044-.007.074a1.057,1.057,0,0,1,.642.222l.1-.032c.018.008.02.043,0,.047.066.057.022-.039.071-.048.046.018.04.065,0,.07a.719.719,0,0,1,.531.255h-.038c.082.1.2-.032.254.1l-.025,0c.194.194.461.37.521.6.106-.036.139.235.259.164a1.369,1.369,0,0,0,.072.351c.026.05.12.026.169.082l-.064.038c.039.015.077.031.114.048l-.055.085.046.051c-.006-.026,0-.065.026-.071.078.081.055.253.019.267a2.14,2.14,0,0,1,.133.208c-.031,0-.048-.034-.077-.058.107.1-.068.042.028.135.013-.019.045,0,.06,0a.505.505,0,0,0,.022.288l-.052-.013a2.972,2.972,0,0,1,.013.558.061.061,0,0,1,.118.019l-.081.013c.041.045.039-.058.085.029-.022.075-.1.036-.114-.01l.012.094c-.023,0-.032-.022-.06-.033.045.047-.108.133-.041.2h-.023a3.822,3.822,0,0,1-.121.44c.06.029.02.083.048.153a3.394,3.394,0,0,0-.255.338c-.027.109.032.055.041.118-.056-.025-.13.109-.126.018a3.689,3.689,0,0,0-.215.422c.035-.006.061-.022.069,0-.018.041-.079.064-.1.041v-.013c-.088.272-.518.365-.565.6l0-.013-.1.208c-.077.068.008-.076-.071-.046-.088.245-.271.264-.362.452-.118-.008-.212.09-.306.2l-.071.083a.632.632,0,0,0-.131.191.613.613,0,0,0,.032.509l.015-.053c.119.088.1.149.207.215-.008-.034-.123-.116-.035-.086a.476.476,0,0,0,.426.014.523.523,0,0,0,.149-.109l.063-.061c.086-.081.178-.156.272-.233.188-.151.385-.3.562-.466.128-.123-.1-.222.128-.319l.017.1c.164-.328.476-.56.614-.9,0,.028.022.042,0,.069.092-.027.157-.23.119-.255.034-.043.042.013.081,0,.072-.045.036-.2.106-.206.011,0,0,.028,0,.042,0-.057.124-.2.042-.187.088-.106.093-.241.173-.323-.04-.094.125-.2.036-.259.1.052.162-.2.142-.293.022.038.056-.062.089-.016.023-.1.027-.193-.032-.189.178-.151-.036-.378.147-.456a5.312,5.312,0,0,0-.139-.836c.112-.006.046.289.154.27-.064-.258-.18-.381-.218-.626,0-.066.055.023.078.041a2.553,2.553,0,0,0-.294-.647c.009,0,.029.013.047.029-.022-.038-.032-.1-.073-.072l.031.032c-.033.092-.208-.085-.246-.069.158-.006-.074-.2.135-.191-.022-.02-.062-.039-.086-.016-.014-.04,0-.062.05-.045-.106-.118-.119-.043-.2-.158.02-.013.043,0,.074,0a.356.356,0,0,1-.21-.167c.015,0,.022-.025.043,0-.128-.158-.307-.187-.421-.374.119-.025-.027-.076.029-.147l-.1-.065,0,.064c-.074-.072-.182-.09-.229-.169l.082.025-.156-.116.059.1c-.107-.034-.067.092-.15-.016.027.011-.076-.065-.085-.138h0a.226.226,0,0,1-.162-.079c0-.034.072-.069.072-.093-.083.028-.21-.123-.306-.09a.082.082,0,0,0,.053-.055l-.068.029c-.03-.041-.032-.053-.006-.081-.117-.084-.019.119-.14-.008.014,0,.013-.01.042,0a4.74,4.74,0,0,0-.439-.208c-.008-.1.136.033.117-.057-.221-.081-.481-.072-.689-.139l.038.02c-.056.115-.147-.1-.269-.055.028-.006.046-.065.036-.052A1.276,1.276,0,0,0,42.307,28.388Zm-.822.166a.2.2,0,0,1,.018.055l-.074.018C41.427,28.6,41.44,28.579,41.485,28.554ZM39.414,29.7l.06.024-.072.06A.137.137,0,0,1,39.414,29.7Zm-.471.4a.07.07,0,0,1,.058.034l-.081.076Zm3.686-1.057h0Zm.123.011c0-.024.008-.046.03-.041-.015.013.034.036.063.061C42.819,29.067,42.786,29.06,42.752,29.054Z" transform="translate(-33.518 -28.34)"/><path class="h" d="M31.694,39.246c.128.021-.051.168.025.273-.013-.025-.074-.026-.059-.02a1.2,1.2,0,0,0,.186.511l-.039-.018a1.369,1.369,0,0,0,.082.323c.041.014.058.067.088.018-.048.355.337.449.356.74-.018-.026-.065-.046-.051-.025.049.057.1.109.155.163.034-.048.009-.044.016-.107a.209.209,0,0,1,.132.079c-.088-.054-.069.055-.065.108.008-.016.032-.017.043-.03,0,.15.1-.055.146.105l-.027.013c.05.034.114.048.149.1-.029.063-.062-.026-.1.006.062.066.208.043.216.145-.039-.014-.076-.053-.115-.067a.208.208,0,0,0,.065.164l0-.006.086.129-.014-.041c.194-.043.187.134.372.147-.177-.013-.057.03-.112.079.016.04.048.1.022.1.091,0,.067.112.2.106-.011.022.06.048.013.086.089.039,0-.046.029-.065.161.016.228.276.469.282a2.216,2.216,0,0,0,.385.012l.02.008c.02.047-.074.053-.074.053a.305.305,0,0,0,.224.088c-.023.014-.012.035,0,.068.068.015.069-.066.144-.008a.279.279,0,0,1-.093.069c.085.006.175-.019.259-.019.013.045-.063.049-.1.066.1.008.25.018.288-.043l-.055-.032c.034,0,.008.058-.019.064a.073.073,0,0,1-.109-.068l.06,0c-.029-.143-.231-.029-.345-.076l.065-.067a2.887,2.887,0,0,0,.863.137h.011a.844.844,0,0,0-.013.116.035.035,0,0,0-.038-.017l-.035.079.074-.019v-.008c.01.048.042.092.137.124l.133-.075.049.05-.116.01c.069.046.109,0,.151-.035a.092.092,0,0,0,.065.05l.118-.126c.024.041-.046.095.048.1.054-.058-.076-.086.02-.134.073.04.063.082.128.022.017.025,0,.047-.022.067.06-.05.174-.058.192-.123.085.047.211-.085.238.018a.384.384,0,0,1,.142-.141c-.059.161.215-.083.241.051.034-.133.254-.177.356-.3,0,.012-.008.035-.022.036a.523.523,0,0,1,.171-.022c-.038-.086.062-.17.09-.253.131.022.007.126.078.182-.042-.06.107-.16.044-.194.095,0,.07-.014.146.029-.054-.1.05-.055.06-.151.123-.018.087.073.165-.028.068-.006,0,.093,0,.093.1-.072,0-.1-.012-.161.1-.107.094.012.161.018.059-.076.065-.183.12-.222.013.008.027,0,.026.027.034-.113.22-.187.248-.325a.057.057,0,0,1,.025.007.248.248,0,0,1-.093-.08c.04-.037.038-.108.092-.079-.026.02-.013.04-.013.064l.026-.057c.093.028-.039.073,0,.119.065-.095.117-.23.194-.271.069.048-.128.154,0,.131l-.119.065c.161.028-.066.047.095.087.147-.1.116-.162.26-.263,0-.06-.055-.04-.058-.1.121-.227.281.013.335-.19,0-.072-.064-.157.065-.208l.034.1c.125-.112-.026-.161.141-.24,0,.048-.071.114-.046.1.13-.029.02-.093.081-.154l.07.045.1-.121a.434.434,0,0,0,.083-.324.412.412,0,0,0-.467-.348c.017-.027.1-.056-.012-.074a.485.485,0,0,0-.211.1.392.392,0,0,0-.043.04l-.017.018-.034.035a1.7,1.7,0,0,1-.144.13,3.736,3.736,0,0,1-.31.22l-.015.112c-.015.014-.05,0-.043-.021-.084.044.027.035.015.086-.034.039-.078.018-.069-.02a.94.94,0,0,1-.423.462l.011-.038c-.116.065-.018.2-.154.235l.01-.025c-.236.158-.448.4-.687.429.022.11-.255.11-.2.238-.172.023-.146-.024-.36.037-.054.022-.039.117-.1.161l-.032-.067-.059.111-.081-.06a.508.508,0,0,1-.055.041c.027,0,.066.013.069.033-.088.067-.259.038-.271,0l-.22.122c0-.03.036-.05.062-.076-.108.1-.039-.066-.138.023.018.014,0,.044,0,.06a.531.531,0,0,0-.292.011l.014-.052a2.73,2.73,0,0,1-.557,0,.061.061,0,0,1-.024.118l-.009-.081c-.046.039.055.041-.033.083-.074-.025-.031-.1.015-.113l-.094.008c0-.024.024-.031.036-.059-.048.039-.126-.111-.2-.049l0-.024a3.373,3.373,0,0,1-.422-.147c-.034.059-.083.014-.154.036-.1-.081-.182-.2-.3-.285-.1-.037-.059.027-.121.029.029-.052-.089-.144,0-.128a4.31,4.31,0,0,0-.385-.264c0,.035.013.062-.012.067-.039-.022-.05-.087-.025-.1l.012,0c-.257-.128-.259-.558-.467-.649l.011.006c-.057-.046-.112-.093-.167-.143-.038-.09.067.027.066-.053-.2-.148-.148-.317-.271-.461.119-.181-.142-.478-.032-.68l-.041.013c-.046-.046.021-.06.03-.094-.033.006-.038.053-.061.024a2.006,2.006,0,0,1,.358-1.215c.07-.138-.165-.175.018-.314l.044.087c.062-.335.332-.575.462-.881,0,.026.021.041,0,.067.086-.022.158-.2.122-.23.035-.037.04.017.078.007.069-.032.055-.18.122-.173.011,0,0,.027,0,.039.006-.053.142-.156.064-.166.106-.072.135-.2.233-.243-.01-.1.171-.13.112-.217.072.081.214-.1.236-.187,0,.042.073-.024.083.03.062-.065.109-.136.059-.165a.189.189,0,0,0,.119-.056.353.353,0,0,0,.038-.048.738.738,0,0,0,.071-.107,1.167,1.167,0,0,0,.057-.484.483.483,0,0,0-.463-.222.44.44,0,0,0-.32.2l-.24.3c-.069-.083.189-.2.1-.273-.141.2-.172.358-.354.508-.053.033-.01-.057-.008-.085a5.165,5.165,0,0,0-.419.529c-.008-.007,0-.032.008-.053-.025.034-.076.063-.036.092l.016-.04c.1,0,.006.223.032.252-.063-.144-.16.137-.226-.061-.011.027-.014.069.015.084-.033.026-.055.025-.06-.032-.071.137,0,.126-.081.233-.019-.015-.009-.042-.023-.07a.337.337,0,0,1-.092.247c-.008-.013-.03-.013-.011-.041-.111.166-.088.346-.239.5-.057-.109-.066.047-.149.012l-.036.116.062-.02c-.055.088-.038.2-.1.264V37.24l-.07.18.079-.083c0,.113.106.04.024.149,0-.029-.043.09-.11.119h0a.211.211,0,0,1-.034.177c-.034.008-.086-.05-.109-.045.05.073-.059.237,0,.32a.077.077,0,0,0-.067-.036l.044.057c-.031.041-.041.045-.075.027-.046.137.12-.015.032.137,0-.014-.012-.01-.014-.039-.072.16-.029.33-.083.479-.1.036,0-.14-.083-.1-.017.236.063.483.058.7Zm.536,1.507a.206.206,0,0,1,.048-.032c.012.02.027.041.04.062C32.3,40.791,32.269,40.789,32.23,40.753Zm1.684,1.66,0-.065.082.043A.124.124,0,0,1,33.914,42.413Zm.566.271a.065.065,0,0,1,.01-.066c.034.013.068.021.1.032Zm4.98-2.848h0Zm-.235.116c.022.011.032.034.015.049,0-.02-.05.01-.089.021C39.174,40,39.2,39.978,39.226,39.951Z" transform="translate(-31.627 -30.227)"/><path class="h" d="M41.91,34.854a.08.08,0,0,1,.084-.017.059.059,0,0,0-.05-.086c.02-.008.029-.025.038-.053-.031-.02-.07.048-.081,0a.226.226,0,0,1,.083-.055.3.3,0,0,0-.15.017c0-.042.041-.053.069-.069-.058-.009-.144,0-.153.071l.024.023c-.013,0-.006-.055.008-.066.049-.046.054.032.046.054l-.027.009c-.014.133.086,0,.135.054a.643.643,0,0,0-.068.055.176.176,0,0,0-.237.006l0,0c-.027-.029-.053-.059-.08-.086.01.006.02.009.025,0a.631.631,0,0,1-.038-.072l-.016.043.006.006a.244.244,0,0,0-.119-.066l.02.075-.046-.029.02-.025c-.049-.022-.025.018-.013.048a.136.136,0,0,0-.053-.031l.048.1c-.034-.027-.049-.073-.084-.072.022.048.081.057.083.1-.049-.022-.074-.055-.059-.01a.083.083,0,0,1-.035-.049c.011.038-.025.046.009.095-.058-.03-.034.058-.107-.018.014.022.035.082.025.1-.066-.112-.052.041-.141-.06.063.1-.025.1-.011.17,0-.008-.014-.025-.008-.023-.023.011-.053-.009-.078-.013.064.068.053.109.079.164-.084-.043-.065-.09-.133-.144.055.053.018.089.069.127a.241.241,0,0,1-.1-.053c.08.086,0,.029.037.093-.063-.018-.083-.072-.083-.022-.037-.013-.044-.065-.044-.065-.027.024.049.073.079.114-.013.048-.06-.032-.1-.053,0,.036.041.107.024.119a.082.082,0,0,1-.027-.027c.029.07-.058.062-.018.148l-.019-.013a.754.754,0,0,1,.089.082c-.01.012.018.06-.027.024.008-.006-.008-.023-.017-.039l.006.029c-.069-.048,0-.036-.047-.08,0,.042.017.118-.018.119-.061-.053.022-.061-.053-.088l.05-.006c-.111-.069.023-.011-.093-.088-.053.02-.011.07-.064.09.023.04.049.044.073.084.006.109-.184-.1-.146.011.028.048.1.124.032.113l-.055-.074c-.042.029.073.113-.008.107-.019-.032.006-.049-.007-.052-.074-.027.02.054,0,.072l-.062-.054c-.028.047-.028.13-.059.182-.015-.02-.026-.045-.053-.053-.023.081-.119.105-.2.121l.03.069c-.006,0-.031-.014-.036-.029-.039,0,.03.033.041.062-.008.015-.043-.014-.051-.036.007.076-.008.189-.1.173l-.008-.022c-.048.008.069.134,0,.114l0-.014c-.083.041-.106.154-.228.126.062.081-.093.029,0,.133-.085-.014-.093-.042-.175-.025-.018.008.042.081.036.109l-.053-.052.032.077-.074-.05,0,.029a.076.076,0,0,1,.05.026c0,.048-.095.022-.122,0l-.013.1a.11.11,0,0,1-.023-.06c.022.083-.06-.049-.039.027.015.008.029.033.039.043a.064.064,0,0,0-.087.05l-.032-.04c-.051.033-.072.106-.12.153.034,0,.092.065.084.086l-.061-.05c.025.043.036.006.059.067-.025.011-.074-.05-.082-.079l0,.04a.5.5,0,0,1-.041-.05c.025.043-.093-.018-.046.054l-.018-.015c-.048.047-.05.088-.086.128.046.048.021.053.048.1-.043.013-.112.007-.142.046,0,.048.033.047.051.086-.045-.041-.075,0-.088-.052a.283.283,0,0,0-.06.148c.023.012.037.013.048.032s-.039,0-.059-.019v-.007c.006.123-.26.008-.217.145l0-.007a.715.715,0,0,0-.036.161c-.041.062-.022-.062-.081-.026a1.637,1.637,0,0,1,0,.241.2.2,0,0,0,.076.188c-.049.1.044.2.165.238s.237.02.34.051l-.021-.039c.032-.051.059.008.1,0-.018-.027-.06-.018-.043-.048a.962.962,0,0,0,.173-.134.412.412,0,0,1,.1-.056c.069-.032.147-.056.21-.093.045-.029-.134-.176-.016-.151l.042.069c.007-.14.154-.149.169-.278.008.018.025.034.018.041.055.025.058-.054.025-.088.015-.007.033.027.057.037s-.013-.09.035-.058a.033.033,0,0,1,.009.024c-.01-.029.051-.042,0-.079.05,0,.032-.073.081-.067-.038-.066.072-.021,0-.1.074.079.109.014.09-.039.018.029.039.008.064.047.019-.02.022-.053-.02-.088.128.055,0-.146.137-.049a.905.905,0,0,1,.078-.251c.074.078-.05.065.032.143.018-.081-.018-.175.049-.205.023,0,.026.04.034.057.018-.081.1-.089.106-.175a.054.054,0,0,1,.011.029c.006-.011.032-.009,0-.042v.018c-.064-.036-.07-.14-.095-.168.084.114.068-.018.17.13a.093.093,0,0,0-.034-.058c.015,0,.032.008.049.043.013-.05-.035-.076-.006-.1a.417.417,0,0,1,.034.052c-.018-.047-.036-.094,0-.1.008.011.025.022.017.029.036-.046-.017-.157.06-.17.06.086.039.009.1.069l.006-.043-.041-.021c.022-.02,0-.085.034-.082l.01.041.028-.051H40.79c-.011-.054-.082-.078-.036-.088,0,.012.022-.02.07.006h0c-.009-.031-.02-.062.011-.063.025.016.067.073.083.084-.042-.063.035-.065-.008-.133a.237.237,0,0,0,.05.056l-.034-.052c.023,0,.032.009.056.037.037-.022-.089-.07-.02-.071,0,.006.008.011.009.023.053-.017.041-.095.094-.106.073.053-.013.043.052.086.035-.058.02-.173.081-.2h-.015c-.083-.1.078.011.058-.055a.168.168,0,0,0,.034.046c.046-.017.041-.085.06-.16l.017.029c.039,0,.06-.036.09-.046-.017-.029,0-.036-.042-.062.191.07.046-.186.208-.13-.006.006,0,.035.01.03l.025-.067c-.042-.035-.029-.018-.069-.038-.017-.029-.022-.06-.011-.072,0,.047.062.062.093.076-.013-.011-.024-.027-.036-.039.093.046-.074-.082,0-.068l.019.022c0-.023-.014-.061,0-.069.05.04.008.034.044.072.016-.021-.049-.122.013-.094,0,.02-.006.032,0,.053.071.034.06.019.081.013h0l.055-.008-.022-.006c-.095-.14.025-.069-.02-.177.043.1.037.047.086.1.022.006.05.011.061.028-.027-.056.057.008.018-.073.018.015.018-.015.055.03.006-.032-.034-.024-.053-.046-.008-.049.011-.029.067-.062a.108.108,0,0,0,.053-.154C42.049,34.885,41.96,34.882,41.91,34.854Zm.033-.086a.133.133,0,0,1-.053.047c0-.006,0-.013-.008-.019l-.009,0A.255.255,0,0,1,41.943,34.768ZM40.364,35.8l-.009.015h0Zm-.034.046c.018.015.033.034.027.038-.008-.014-.029-.011-.05-.018A.1.1,0,0,0,40.33,35.849Zm1.106-.352.015-.015a.082.082,0,0,1,.025.055C41.464,35.525,41.448,35.511,41.436,35.5Zm.475-.514c0-.007.006-.013.008-.02a.162.162,0,0,1,.059.039A.558.558,0,0,1,41.91,34.983Z" transform="translate(-33.653 -30.206)"/></g></g></g></svg>