<svg xmlns="http://www.w3.org/2000/svg" width="23.24" height="18.273" viewBox="0 0 23.24 18.273"><defs><style>.a{fill:#a3d4ff;}.b{fill:#2e5bff;}.c{fill:#0068f5;}</style></defs><path class="a" d="M104.324,11.91H90.542A2.048,2.048,0,0,1,88.5,9.868V2.042A2.048,2.048,0,0,1,90.542,0h13.782a2.048,2.048,0,0,1,2.042,2.042V9.869A2.047,2.047,0,0,1,104.324,11.91Z" transform="translate(-83.125)"/><g transform="translate(0 0.544)"><path class="b" d="M20.322,15.817a.716.716,0,0,1,.712.72V27.8a.716.716,0,0,1-.712.72H2.26a.716.716,0,0,1-.712-.72V16.537a.716.716,0,0,1,.712-.72H20.322m0-1.567H2.26A2.276,2.276,0,0,0,0,16.537V27.8a2.276,2.276,0,0,0,2.26,2.287H20.322a2.276,2.276,0,0,0,2.26-2.287V16.537a2.276,2.276,0,0,0-2.26-2.287Z" transform="translate(0 -14.25)"/></g><g transform="translate(5.983 16.861)"><path class="b" d="M142.026,402.162h-9.081a.706.706,0,0,1,0-1.412h9.081a.706.706,0,0,1,0,1.412Z" transform="translate(-132.24 -400.75)"/></g><path class="c" d="M212.842,132.573l-3.828-2.114a.589.589,0,0,0-.874.516V135.2a.589.589,0,0,0,.874.516l3.828-2.114A.589.589,0,0,0,212.842,132.573Z" transform="translate(-199.221 -124.718)"/></svg>