<svg xmlns="http://www.w3.org/2000/svg" width="50.375" height="50.375" viewBox="0 0 50.375 50.375"><defs><style>.a,.c{fill:#fff;}.a{stroke:#202020;stroke-miterlimit:10;stroke-width:0.75px;opacity:0;}.b{fill:#f3f8ff;fill-rule:evenodd;}.d{fill:#202020;}.e{fill:#2d82f7;}.f{fill:#ff7e94;}</style></defs><g transform="translate(0 0.375)"><path class="a" d="M0,0H50V50"/><path class="a" d="M0,0H50V50"/><g transform="translate(5.068 7.69)"><path class="b" d="M27.737,12.3c-8.031,0-20.967,9.2-19.515,18.6s10.7,14.216,19.515,14.216,17.022-5.242,17.022-14.273S35.776,12.3,27.737,12.3Z" transform="translate(-8.109 -12.304)"/></g><g transform="translate(10.199 12.719)"><rect class="c" width="28.877" height="22.924" rx="3.886" transform="translate(0.113 1.199)"/><path class="d" d="M45.861,36.082l-.067-.118c0-.124.007-.368.034-.322-.046-.459-.029.078-.072-.188a15.21,15.21,0,0,1,.078-1.772c-.051-.213-.039.569-.075-.066.115-.181-.019-.733.033-1.276.059.167.028.681.081.138a9.423,9.423,0,0,1,0-1.515,11.821,11.821,0,0,1-.06-1.764c.027.049.044-1.445.072-2.16l.013.021a7.429,7.429,0,0,1-.082-1.413c.048.021.068.118.089.409v-.5a3.419,3.419,0,0,1-.049-.6l.06.127c0-.336-.019-.674-.031-1.036a2.69,2.69,0,0,0-.243-1.21c-.037-.009.012.171,0,.244-.008.031-.015.041-.035.021a1.915,1.915,0,0,0-.221-.406c.025,0,.067.027.141.138-.044-.068-.169-.229-.273-.351a1.8,1.8,0,0,1,.268.267c-.219-.348-.153-.154-.371-.388.038-.031-.163-.179-.108-.174a3.456,3.456,0,0,1,.3.283,2.853,2.853,0,0,0-.768-.617c.021.041-.018.041-.285-.022a2.774,2.774,0,0,1-.434-.083c-.024-.018-.014-.038-.208-.048-.163.03-.591,0-.6.064a.856.856,0,0,1-.309-.048c-.347.028-1.624.008-1.232.077l.089,0-.057,0c-.58.037-1.138.01-1.775.022a.243.243,0,0,0-.167.251.248.248,0,0,0,.212.224l.451.011c.292,0,.581.006.863,0l0,.021c.675-.024,1.5-.014,1.984-.061.2,0,.471.04.386.066a3.612,3.612,0,0,1,.557,0,1.263,1.263,0,0,1,.632.275c-.211-.116-.182-.079-.166-.07a1.881,1.881,0,0,0-.282-.119,1.455,1.455,0,0,1,.569.359,1.837,1.837,0,0,1,.4.58c-.067-.1-.034.016-.007.187a2.37,2.37,0,0,1,.02.288l.006.3c.012-.154.03-.321.033-.456.021.33.007.664,0,.976l-.073-.172c-.089,1.371.151,2.473,0,3.517.051.363.036-.744.1-.42-.01.631-.114,1.288-.115,1.486-.04.864.107.806.079,1.711.026-.116.1-.225.12.451-.009.632-.109.776-.13.378,0-.151.006-.224.015-.218-.01-.2-.021-.471-.049-.221l.026.082c-.026.313-.024,1.182-.066.977.024.478.043.2.056-.149-.038.81,0,1.265-.027,2.1.014-.132.045-.254.045-.122a9.729,9.729,0,0,0,.061,1.366c-.039.471-.1-.169-.061.666-.027.509-.069.108-.091-.095a17.055,17.055,0,0,1-.042,1.854l-.021-.4c.013.239.012.436.012.635l.052-.228a1.711,1.711,0,0,1-.031.429c.034.242.087-.186.133.295a7.248,7.248,0,0,1-.041,1.062c.024-.985-.069.109-.081-.725.008.161.008.357,0,.593-.007.035-.014-.034-.018-.1-.062.943.078.434.076,1.411-.039-.124-.074.226-.066.386,0-.394.065-.188.1.173a9.908,9.908,0,0,0,.019,1.009l.014-.374a5.473,5.473,0,0,1,.046.877c-.03.038-.021-.4-.034-.241a2.783,2.783,0,0,1-.018.793,1.884,1.884,0,0,1-.374.758c-.215.175-.067-.026-.255.111a.953.953,0,0,1-.6.249c-.158.01-.386-.017-.783.007.229.053.269.039-.291.091l.654-.019a2,2,0,0,0,.591-.068,1.416,1.416,0,0,1-.356.088l-.42.039a4.87,4.87,0,0,0,.576-.025,1.949,1.949,0,0,0,.407-.119c-.321.163-.306.12-.119.124a6.914,6.914,0,0,1-.78.056,6.224,6.224,0,0,1-.88.006l.019-.13c-.94-.057-1.67.067-2.89.034l.392.023c-.164.051-.754.007-1.149.028.037-.044-.21-.059-.379-.086a7.633,7.633,0,0,0-1,.084l-.545-.057c-.985-.023-1.124.124-2.071.109.286-.047-.145-.077.489-.111a2.524,2.524,0,0,0-.606.021c-.184-.027-.877.059-1.168.017a1.835,1.835,0,0,1-.532.061c-.039-.009,0-.021,0-.021,0,.021-.556.029-.246.077-.974-.135-2.722.01-3.57-.106l-2.148.032c.04-.013,0-.022.121-.017-.864-.041-.531.124-1.514.079-.5-.07.522-.038.209-.064a14.079,14.079,0,0,0-1.849-.064l.161-.009c-.506-.048-1.234.054-2.061.044,0,0,.04-.013.005-.021-.566.073-1.636.1-2.431.117.248-.056.361-.029.211-.086-.357.008.1.091-.608.107a4.207,4.207,0,0,1-.812-.118l.671,0a2.45,2.45,0,0,0-.608-.03,1.364,1.364,0,0,1-.556-.042l.048-.023a1.59,1.59,0,0,1-.778-.467,1.253,1.253,0,0,1-.33-.934l-.024.112c-.089-.6.047-.505-.017-1.107l.087-.182c-.021-.4-.084-1.4-.1-2.111.064.4.1,1.241.135,1.759,0-.4-.006-1.343-.049-1.549a4.216,4.216,0,0,1,.016.517,14.031,14.031,0,0,1-.1-1.909c.167.139.042-2.052.173-2.623-.062-1.393.026-2.763.016-4.385-.131.576,0-.474-.138-.374a4.5,4.5,0,0,1,0-.553l-.006.077.006-.082h0l.08-1.144c.039-.271.029.359.059.325a4.775,4.775,0,0,1,.092-.9c-.047.113-.069-.287-.05-.759l-.062.664c-.072-1.156.112-1,.042-2.165l.042.369c-.025-.6,0-2.206-.107-2.793.016-.106.052-.246.062.018v-.549a1.459,1.459,0,0,1,.068-.466,1.349,1.349,0,0,1,.586-.74,1.332,1.332,0,0,1,.442-.167,2.878,2.878,0,0,1,.5-.027c.343,0,.661,0,.938.018l-.108.033a4.728,4.728,0,0,1,.8-.028c-.017.013-.108.032.016.034a9.64,9.64,0,0,1,1.062-.038l-.3.037c1.394.042,2.139-.09,3.309-.113a6.648,6.648,0,0,0,1.641.144l-.019.014c1.623.012,2.757-.081,4.261-.118.116.013.253.024.406.032l.242.011.064,0a.611.611,0,0,0,.1,0,.414.414,0,0,0,.281-.167.419.419,0,0,0-.146-.613.426.426,0,0,0-.179-.048h-.082l-.15,0-.629,0c-.861-.006-1.793-.005-2.543-.034.229.018-.037.076-.3.085-.352-.019-.973.067-.917-.021h.126a8.15,8.15,0,0,0-1.553-.066l-.093.116c-1.477-.169-3.871.062-4.677-.089-.356.029-.8.029-1.151.057l.019-.062-.668-.01a2.355,2.355,0,0,0-.675.092,2.185,2.185,0,0,0-1.26,1.015,1.956,1.956,0,0,1,.124-.264,1.43,1.43,0,0,0-.307.831c-.018.237.017.481.024.787l-.093.191c0,1.2-.08,2.417,0,3.6-.013-.019-.04-.054-.044-.249,0,.566-.063,2.188.064,1.983a10.116,10.116,0,0,0,.029,1.889l-.061-.1a7.7,7.7,0,0,1,.121,1.33c-.008.181-.049.159-.033-.082-.032.6.058.471.026,1.2l-.039-.272a3.874,3.874,0,0,0,.062.914,5.48,5.48,0,0,1-.071,1.271,2.738,2.738,0,0,1,.063.791c-.021.049-.034-.084-.041-.151-.041,1.039.071,1.545.011,2.259a.2.2,0,0,0-.037.121c0-.825,0-1.49.009-1.427-.056,0-.066.667-.144.136a19.748,19.748,0,0,1,.108,2.1.538.538,0,0,1-.019.086l-.006-.068a3.623,3.623,0,0,0,.009.411c-.009.208-.016.339-.017.539a7.771,7.771,0,0,0-.028,1.1c.062-.028.052.407.1,0,0,.053-.007-.063-.01-.284l-.006-.142,0,.022,0-.826a3.979,3.979,0,0,1,.023.9c.04.171.081.359.1.464-.086.455-.132,1.332-.186,1.454a2.177,2.177,0,0,0,.771,1.623,1.807,1.807,0,0,0,1.4.427,1.111,1.111,0,0,1,.44.052c-.167.011-.363.011-.457.026a14.892,14.892,0,0,0,1.849-.092c.727.036-.409.074.591.061l-.134.025c1.966.129,3.2-.207,5.376-.041a1.2,1.2,0,0,1-.257-.029c2.485.073,5.121-.069,7.574.048a5.966,5.966,0,0,0,1.2-.068l.151.066.728-.076c1.031-.056,1.786.162,3.092.057l-.169-.045a11.452,11.452,0,0,1,1.408.025.868.868,0,0,1,.337-.023l.014.034,1.152-.059c.893.026-.139.138,1.164.144a5.134,5.134,0,0,0,1.2-.124,1.61,1.61,0,0,1-.514-.056l.443-.018a.255.255,0,0,1,.018-.019h.071a1.922,1.922,0,0,0,1.92-1.92V41.011l.017.053-.017-.158V40.23a.635.635,0,0,1,.029.218c.045-.492-.032-.436.018-.858.008-.046.013-.025.016.018l-.028-.481c.019.094.064-.08.051.215.053-.862-.068-1.39,0-1.715l.006.072c-.022-.894-.049-.516-.093-.643V36.5ZM16.378,40.941a.941.941,0,0,1,.016-.326L16.4,41l.007.026A.261.261,0,0,1,16.378,40.941ZM45.758,39.4a.546.546,0,0,1-.009.059v-.268C45.751,39.258,45.755,39.323,45.758,39.4Z" transform="translate(-16.319 -20.81)"/><path class="d" d="M40.9,24.066l-.094.021c-.014.157-.076.324.013.476-.014,0-.041,0-.046-.029-.006.075-.028.3.094.254-.081.014.015.165.068.239h-.063c.094.054.116.051.161.141,0,.024-.042.032-.034,0-.012.084.071.044.063.144l-.046-.024c.016.079.033.069.091.1a.136.136,0,0,1-.01.178c.035,0,.092.024.094.074a.037.037,0,0,1-.044,0c.005.145.146.154.129.263-.017.011-.024.02-.026.03a1.054,1.054,0,0,1-.073-.172c-.052.022-.022.107-.124.074.071.049.206.118.219.206a.077.077,0,0,1-.013.019l-.009-.005a.067.067,0,0,0,.032.044.217.217,0,0,0,.022.069c-.036.032.031.1.052.139.051-.036.072.018.087-.054,0,.008-.011,0-.028-.026A.04.04,0,0,0,41.4,26.2h.006l-.059-.09c.045.014.086.031.081.089h.116c-.044.1-.021.219-.052.261.111.086.2.245.352.226.036.018,0,.053,0,.076-.023-.008-.039-.029-.059-.026.072.036.159.157.229.114.038.094-.091.015.009.1l-.031.006a.361.361,0,0,0,.274.2.355.355,0,0,1,.289.21c-.009-.02-.014-.029-.01-.043.229.243.588.282.842.49.077.053.1.008.167-.011l0,.07.113-.049c.139-.027.182.226.372.143l-.014-.047c.058.017.191,0,.174.052.007-.007.025-.043.046-.016l0,.034a1.028,1.028,0,0,0,.152-.045c.113.031-.029.136.142.152.065-.01.181-.092.157-.116-.025,0-.063-.025-.064-.06l.056-.015,0-.019h.009a3.671,3.671,0,0,0,.646-.061l0,.018.016-.019c.016,0,.034,0,.05-.008h.026c0,.011,0,.022-.013.029.069.033.046-.044.108-.007a.01.01,0,0,1,0,.016l.052-.042c-.007.022.025.06-.014.057.121.023.153-.11.212-.054l-.007.007c.1-.055.049-.066.049-.114.022-.007.044-.016.066-.024l.086.089L45.96,27.7c.015,0,.046-.009.05.018.038-.062-.019-.024,0-.076.094.034.178-.1.236-.014,0-.058-.08,0-.024-.071.069.094.074-.058.159-.04.008.062-.066.063.021.079-.007-.106.132-.039.173-.089a.045.045,0,0,1,.008-.054.062.062,0,0,1-.008.054.138.138,0,0,0,.028.034c.015-.006-.011-.061-.019-.088.03-.036.1-.063.153-.114.012.03.174-.069.266-.1l.006.012c-.036-.076.052-.116.091-.176a.092.092,0,0,1,.017.1l.049-.044a.108.108,0,0,1,.026-.089l.028.056c.062-.062.083-.166.188-.218-.025-.029-.091-.042-.118-.081.013-.012.024-.027.037-.04a.047.047,0,0,1,.014.047c0-.01.006-.043.028-.049l.006.069c.049-.022-.014-.049.016-.075.031.03.042,0,.064.027,0,.011-.036.014-.034.037a.184.184,0,0,1,.129-.044c-.021-.013-.043-.039-.025-.067.055-.066.059.013.11-.011-.007-.034.05-.059,0-.1.016-.02.042,0,.062,0,0-.054.119-.173.033-.173l-.01.006,0-.007c.039-.148.194-.232.248-.369l.019.011a.677.677,0,0,0,.058-.253c.011-.022.062-.037.081-.016a.218.218,0,0,1,.063-.157c.012.077.039-.009,0,.074.047-.073.087-.081.063-.188.041.049.089-.039.087-.083l-.058.044a.43.43,0,0,1,.045-.119l.062.043c.134-.154-.059-.349.11-.451-.042-.056-.05.089-.1.036.022-.077.138-.145.143-.171.056-.109-.086-.119-.048-.232a.082.082,0,0,1-.117-.067c.014-.078.114-.092.132-.039,0,.019-.007.029-.016.027.008.028.017.063.047.033l-.025-.012c.029-.039.031-.153.073-.124-.021-.064-.041-.028-.057.017a1.057,1.057,0,0,0,.032-.274c-.014.018-.044.034-.044.018.024-.16-.053-.069-.069-.174.036-.063.1.015.057-.091.023-.069.068-.021.091.005-.051-.1.009-.191.012-.251l.029.05a.215.215,0,0,1-.024-.083l-.047.038c0-.032,0-.058.022-.061-.039-.026-.082.037-.137-.016.019-.045-.045-.117.017-.144,0,.132.067-.029.1.079a.122.122,0,0,1-.011-.078c.006-.006.015,0,.02.009.031-.136-.09-.04-.12-.165a.05.05,0,0,0,.051-.066c.013.051-.057.041-.1,0,.009-.088-.044-.08-.051-.122v.051c-.041-.005-.046-.046-.079-.094.027-.014.037.041.043.018-.086-.036.019-.156-.056-.224.011-.048.067-.031.071-.071-.079-.076.006-.122-.076-.2-.034.05-.021.048-.1,0l.108.139-.117-.068c.02.046.079.083.08.116-.058-.032-.046-.031-.075.008.042-.094-.1-.1-.087-.2l.118-.055c0-.141-.159-.164-.214-.316l.008.056c-.055.009-.057-.08-.1-.112.039-.019.035-.056.046-.089-.025.02-.069-.1-.147-.058l0-.091c-.061-.119-.182-.043-.253-.14.06,0,.046-.066.127-.026-.028-.031-.047-.064-.07-.045,0-.036-.119-.045-.115-.1-.025,0-.062.028-.089-.008,0-.01.015-.015.015-.015s-.071-.029-.076.031c0-.178-.255-.231-.274-.379-.081-.041-.174-.1-.242-.139.012-.008.012-.018.023-.006-.074-.092-.126.069-.208-.034-.019-.094.076,0,.056-.041.057-.13-.139-.066-.176-.177l.023,0c-.038-.072-.171-.022-.262-.077a.03.03,0,0,0,.009-.019.822.822,0,0,1-.333-.006c.048-.042.053-.012.054-.073-.046-.008-.018.091-.108.074-.017-.038-.071-.088-.062-.146.028.006.055.017.083.026-.018-.092-.108-.034-.149-.057l.015-.031c-.134-.024-.156.06-.292.019l.009.029c-.091.066-.054-.059-.142-.009l-.009-.089a2.087,2.087,0,0,1-.281.061c.057-.062.168-.074.241-.1-.051-.008-.175-.02-.206.019.021-.006.049-.023.068-.006a.357.357,0,0,1-.252.081c.026-.167-.26-.059-.337-.176-.18.064-.366,0-.58.045.1.117-.061.013-.022.142-.044.016-.061.021-.068.014h0l-.162-.041c-.045-.029.038-.041.026-.069-.109.018-.059-.043-.14-.059.028.042-.019.076-.086.074l.1.037c-.127.1-.161-.068-.287.051l.033-.057c-.068.05-.283.1-.305.239-.019-.008-.051-.033-.024-.057-.186.064-.318.3-.476.318l-.006-.035c-.025.027-.019.081-.073.081-.006-.013-.007-.036-.021-.027s-.042.1-.091.115l.011-.054c-.178.076-.173.243-.265.362-.063-.071-.2,0-.258.046l-.008-.011a1.387,1.387,0,0,0-.274.509c-.164.034-.27.321-.411.472.029-.019.065.039.059.075-.038.033,0,.143-.072.1l.009-.014c-.093,0-.119.092-.144.163l.1.055c-.236.124-.1.5-.267.563a1.424,1.424,0,0,0,.028.161l-.061-.014a1.1,1.1,0,0,0-.057.358l-.042-.037C40.72,23.949,40.9,23.985,40.9,24.066Zm4.381-3.1-.009.016.021-.014h0l.059.022c0,.005-.006.013-.014.015.044.054.054-.021.089.039,0,.009,0,.013-.006.015l.058-.013c-.015.016-.007.065-.035.044.077.074.167-.028.182.048l-.009,0c.1.008.069-.031.1-.068l.059.022.006.123.035-.058c.013.007.036.021.022.044.064-.026,0-.031.046-.061.041.076.182.043.151.148.043-.036-.041-.063.038-.064-.031.112.082.018.114.092-.044.044-.08-.008-.051.065.079-.074.094.069.143.081a.04.04,0,0,1,.046-.021.058.058,0,0,1-.046.021.188.188,0,0,0-.016.041c.01.009.044-.041.063-.061.04.007.091.055.151.07-.016.016.106.128.149.2l-.01.009c.06-.054.119,0,.173.031a.091.091,0,0,1-.09.039l.041.036a.086.086,0,0,1,.081.007l-.05.036c.053.047.159.044.195.141.031-.023.049-.089.087-.115l.033.036a.048.048,0,0,1-.045.014c.009,0,.039.006.042.028l-.064.005c.012.048.046-.013.066.017-.032.029-.005.04-.034.06-.009,0-.007-.035-.028-.033a.148.148,0,0,1,.019.119c.016-.019.043-.039.067-.022.051.052-.023.053-.011.1.036-.007.039.049.09.01.013.018-.009.039-.017.057.044.012.111.135.141.061l0-.011.006,0c.134.061.111.239.2.328l-.019.01c.06.051.086.14.153.168a.056.056,0,0,1-.041.066c.037.044.068.039.062.129-.054-.039-.024.031-.046-.043.007.076-.019.1.063.154-.061-.006-.047.074-.019.1l.02-.06a.306.306,0,0,1,.036.1l-.076.005c-.049.16.217.217.092.359.056.029.024-.086.087-.063,0,.071-.093.157-.089.177-.028.094.121.07.1.17a.08.08,0,0,1,.122.039c-.006.072-.1.092-.127.051,0-.016.005-.024.014-.024-.011-.022-.023-.049-.05-.02l.026.006c-.025.036-.017.127-.061.108.028.049.044.02.056-.018-.036.087.011.134-.022.222.015-.014.046-.026.046-.012-.039.129.046.059.053.15-.042.048-.094-.024-.065.068-.029.052-.069,0-.089-.018.049.085-.053.143-.066.185l-.014-.043a.124.124,0,0,1,0,.066l.055-.016c-.013.023-.016.043-.038.039.03.031.089-.006.127.053-.032.028.014.107-.059.1.042-.1-.069,0-.066-.09a.073.073,0,0,1-.011.06c-.009,0-.013-.006-.016-.014-.083.081.066.059.039.159-.035-.022-.078,0-.074.023.011-.039.068,0,.087.042-.046.056,0,.077-.008.11l.024-.035c.034.024.021.056.015.1-.031-.006,0-.047-.024-.035.046.071-.108.087-.089.17-.036.022-.069-.024-.1,0,.021.094-.083.057-.079.148.058,0,.048-.009.068.067l.027-.141.03.112c.019-.039.011-.093.027-.114.024.056.011.047.061.046-.1.021-.009.124-.087.164L47.46,25.6c-.091.063-.021.188-.119.283l.041-.024c.035.042-.036.072-.04.121-.034-.028-.061-.013-.093-.014.028.016-.058.073,0,.134l-.081.013c-.081.068.028.175-.056.242-.015-.054-.069-.04-.049-.112-.023.024-.049.042-.027.062-.033,0-.02.109-.071.1,0,.024.034.059,0,.085a.035.035,0,0,1-.015-.015c.016.016-.022.063.036.074-.175-.029-.212.217-.364.176a1.469,1.469,0,0,1-.167.164c0-.013-.012-.018,0-.021-.1.014.019.134-.1.153-.083-.031.029-.062-.014-.067-.087-.116-.1.087-.2.045l.011-.014c-.07-.021-.093.1-.179.134a.038.038,0,0,0-.008-.02c-.023.1-.127.156-.2.206.007-.062.027-.041-.007-.089-.034.021.042.081-.028.124-.034-.021-.094-.025-.12-.083.023-.007.045-.018.067-.027-.057-.06-.086.033-.128.028l0-.034c-.1.037-.083.122-.2.146l.018.023c-.048.1-.064-.038-.118.036l-.034-.083a.951.951,0,0,1-.215.132.848.848,0,0,1,.172-.161c-.041.006-.139.028-.157.074.016-.011.035-.036.054-.025a.22.22,0,0,1-.2.116c.007-.169-.226-.028-.284-.169-.151.06-.288-.046-.453-.065.036.137-.05,0-.066.13-.04,0-.054-.006-.057-.014v0h0l-.1-.109c-.017-.045.044-.019.048-.049-.081-.031-.021-.064-.066-.112,0,.049-.047.059-.089.029l.049.076c-.139.04-.064-.138-.2-.11l.049-.027c-.066,0-.209-.076-.308-.01,0-.019,0-.058.028-.055-.126-.071-.349-.054-.415-.174l.028-.022c-.028-.007-.077.028-.086-.021.009-.01.028-.021.018-.03s-.092,0-.111-.035L42.9,26.7c-.091-.118-.234-.062-.341-.134.066-.073,0-.168-.026-.222l.011-.008c-.1-.129-.252-.154-.376-.264.022-.136-.149-.3-.167-.467-.006.029-.069.031-.09.009,0-.041-.106-.064-.022-.1l0,.013c.067-.062.011-.116,0-.174l-.111.034c.1-.2-.187-.374-.06-.5-.04-.029-.046-.075-.079-.106l.061-.009a1.05,1.05,0,0,0-.029-.278l.045.021c0-.069-.183-.076-.19-.144l.092-.024c-.014-.128.083-.248,0-.377.014,0,.04.009.043.029,0-.06.089-.215-.041-.213.083.011.026-.126,0-.2l.057.022c-.062-.072-.083-.079-.083-.164.013-.017.051,0,.03.017.047-.054-.043-.064.007-.132l.031.039c.021-.062,0-.064-.033-.112a.11.11,0,0,1,.114-.106c-.029-.02-.058-.071-.029-.1a.041.041,0,0,1,.032.03c.072-.089,0-.181.088-.226a.053.053,0,0,0,.039,0,.716.716,0,0,1-.075.133c.052.022.091-.036.138.045-.015-.065-.056-.193,0-.244a.087.087,0,0,1,.021,0l0,.009a.048.048,0,0,0,.011-.043.154.154,0,0,0,.044-.04c.045.016.063-.055.083-.083-.054-.03-.022-.064-.088-.054.007,0,0,.009-.007.031a.05.05,0,0,0,0,.016l0,0-.042.077c-.013-.039-.02-.079.03-.094a1.1,1.1,0,0,1-.059-.1c.1,0,.186-.051.24-.029.038-.1.126-.217.089-.34.01-.033.049,0,.071,0,0,.021-.019.036-.013.054.019-.066.114-.143.066-.211.08-.033.022.083.089,0l.006.028c.235-.044.123-.391.419-.4-.019,0-.028,0-.039-.006.259-.087.449-.356.747-.334.078,0,.068-.056.1-.109l.036.058.054-.094c.1-.079.224.1.341-.02l-.026-.041c.052,0,.158-.051.156,0,0-.009.011-.049.034-.029l.006.034A.97.97,0,0,1,44.431,21c.1.02,0,.138.134.138.049-.016.146-.109.126-.131a.061.061,0,0,1-.057-.053l.049-.021,0-.019h.007A3.327,3.327,0,0,1,45.282,20.97Zm-3.245,1.7a.124.124,0,0,1,.022.023c0,.024-.019.025-.032.021a.243.243,0,0,0,.015-.038Zm-.684,3.538a.078.078,0,0,1-.033.006c-.023-.021-.018-.035-.009-.045a.417.417,0,0,0,.033.041Z" transform="translate(-25.473 -20.351)"/><path class="d" d="M46.492,35.836a2.88,2.88,0,0,0-.459-.193c-.042-.026-.085-.091-.055-.1a.692.692,0,0,1-.306-.125c.135.016-.028-.048.134.027a.654.654,0,0,0-.359-.146c.078-.028-.092-.116-.173-.13l.1.082-.234-.083.065-.057c-.314-.176-.638-.043-.863-.229-.1.035.178.066.084.111a2.193,2.193,0,0,1-.347-.174c-.211-.076-.217.072-.437.008.026.033.044.1-.124.107-.155-.018-.184-.119-.082-.135.038,0,.056.009.054.018.052-.007.12-.014.06-.046l-.023.024c-.076-.031-.3-.039-.241-.079-.122.019-.054.04.034.058-.2-.048-.318-.018-.527-.054.033.016.063.048.03.046-.306-.048-.136.036-.342.057-.119-.033.04-.1-.169-.052-.129-.02-.03-.067.021-.092a1.143,1.143,0,0,1-.475-.016l.1-.027a.707.707,0,0,1-.161.021l.063.049c-.061-.006-.111,0-.112-.025-.057.039.056.081-.059.14-.081-.013-.232.069-.27,0,.25-.019-.037-.064.171-.111a.449.449,0,0,1-.149.024c-.011-.006.006-.016.022-.022-.249-.02-.1.1-.342.137.024-.044-.072-.062-.111-.047.1-.016.06.056-.023.1-.164-.005-.162.061-.244.079l.094-.013c-.021.047-.1.064-.2.107-.017-.026.09-.048.049-.05-.1.1-.285.011-.436.1-.085,0-.031-.067-.1-.064-.166.108-.214.029-.388.145.074.025.077.009-.032.113l.291-.166-.167.155c.092-.039.181-.114.239-.129-.078.08-.072.064-.014.086-.153-.019-.229.149-.392.162l-.049-.12c-.25.036-.356.239-.637.368l.1-.031c-.01.066-.161.1-.236.17-.015-.041-.077-.023-.13-.024.018.018-.186.132-.159.218l-.144.036c-.211.137-.162.255-.341.408.022-.084-.078-.034.018-.168-.059.054-.118.1-.1.121-.053.012-.123.194-.205.213-.012.037.012.077-.056.135-.013,0-.015-.016-.015-.016.015.016-.081.115.009.1-.263.085-.451.5-.664.6-.09.149-.2.327-.29.456,0-.015-.017-.012,0-.034-.155.159.034.18-.131.364-.124.072.034-.131-.028-.078-.139-.042-.138.265-.29.37,0-.013.006-.028.011-.04-.1.092-.088.305-.187.487,0,0-.007-.014-.019-.01a3.082,3.082,0,0,1-.123.606c-.031-.077,0-.094-.062-.079-.025.086.094.008.046.178-.05.042-.12.154-.179.152a1.444,1.444,0,0,1,.053-.159c-.109.054-.068.207-.106.288l-.029-.021c-.061.254.014.278-.06.544l.031-.022c.052.167-.073.112-.042.274l-.094.027c0,.1.006.364.009.536a1.393,1.393,0,0,1-.062-.456.8.8,0,0,0-.017.393.276.276,0,0,1,0-.132.978.978,0,0,1,.038.487c-.176-.051-.069.509-.207.651a.414.414,0,0,0,.376.394.4.4,0,0,0,.423-.359c.022-.2.049-.354.052-.552-.14.126.005-.112-.126-.1,0-.087.009-.121.018-.13l0,0h0l.114-.262c.047-.058.018.09.049.086.037-.192.062-.073.122-.193-.052.017-.053-.079-.013-.185l-.093.143c-.012-.285.158-.21.149-.494,0,.031.014.063.021.1.006-.145.145-.5.08-.667.024-.019.07-.038.058.024a3.4,3.4,0,0,0,.153-.519,1.236,1.236,0,0,1,.2-.441l.018.038c.019-.061-.007-.128.057-.184.01.01.018.038.033.013a.481.481,0,0,1,.091-.237l0,.08c.205-.262.176-.488.33-.727.081.057.252-.139.346-.228l.007.012c.258-.279.363-.545.61-.809a2.768,2.768,0,0,0,.431-.268,2.081,2.081,0,0,1,.511-.309c-.056.012-.033-.069.017-.109.082-.025.168-.175.2-.091l-.026.013c.1.044.228-.065.354-.108l-.029-.114a1.484,1.484,0,0,0,.588-.186c.195-.076.374-.151.484-.1a1.421,1.421,0,0,1,.253-.118l.008.061a4.578,4.578,0,0,0,.63-.1.687.687,0,0,0-.053.052c.16-.014.187-.192.341-.206l.051.09c.143-.008.287,0,.431.005a1.268,1.268,0,0,0,.429-.012.058.058,0,0,1-.061.041c.135.01.513.09.478-.039,0,.072.29.053.451.04l-.034.057a.559.559,0,0,1,.337-.068c.042.015.028.054-.026.029.137.055.126-.042.288.04l-.072.019a.261.261,0,0,0,.227,0c.1,0,.27.094.274.152a.2.2,0,0,1,.2,0c0,.025-.029.023-.048.025.214.134.369.079.5.2a.044.044,0,0,0,.012.044,3.374,3.374,0,0,1-.311-.142c-.021.053.12.123-.024.146a1.118,1.118,0,0,1,.5.1.068.068,0,0,1,.009.028l-.016,0a.2.2,0,0,0,.088.04.66.66,0,0,0,.1.079c-.007.05.143.111.21.153.026-.056.111,0,.054-.088.009.01-.017,0-.064-.025a.156.156,0,0,0-.033-.011l.007,0-.173-.1a.245.245,0,0,1,.2.088,1.423,1.423,0,0,1,.149-.029c.056.121.194.288.186.348a3.107,3.107,0,0,0,.649.346c.061.037.036.079.043.11-.037-.019-.071-.052-.1-.055.12.074.309.268.387.24.088.158-.118-.024.048.149l-.039-.007c.209.427.659.466.8,1.01-.009-.037-.014-.056-.006-.069a6.1,6.1,0,0,1,.709,1.684c.022.169.076.171.141.261l-.054.052.121.151c.109.236-.066.455.084.747l.039-.047c.005.114.068.356.015.342.009.011.051.033.032.079l-.034.006c.034.091.05.183.076.275-.016.217-.139-.027-.132.284l.01.057a.331.331,0,0,0,.039.114.31.31,0,0,0,.166.144c.129.041.2-.012.162-.018-.083,0-.167-.09-.138-.117a.19.19,0,0,0,.12.041l.007-.021a.171.171,0,0,0,.018,0,.165.165,0,0,0,.164-.164,7.569,7.569,0,0,0-.074-1.026l.016.009-.019-.031c-.008-.056-.016-.111-.025-.167.013,0,.026.014.037.044.021-.127-.052-.1-.023-.211.006-.013.011-.009.017,0l-.049-.112c.023.019.059-.032.06.042.009-.221-.129-.325-.087-.418l.01.016c-.078-.2-.082-.119-.128-.13-.013-.047-.024-.093-.038-.14l.078-.124-.072-.009c-.006-.031-.017-.09.011-.088-.074-.1-.022.028-.081-.023.011-.159-.163-.371-.074-.439-.066-.032.011.146-.076.011.089-.082-.073-.166-.084-.306.072.015.1.144.089,0-.126-.036-.089-.249-.155-.346-.076.03-.126-.214-.252-.365a3.1,3.1,0,0,0-.208-.5l.014,0c-.088.015-.181-.144-.271-.244.042-.024.071-.015.131.033l-.073-.1a.264.264,0,0,1-.126-.1l.067-.01c-.094-.143-.268-.221-.376-.413-.031.018-.026.1-.063.13-.024-.029-.051-.056-.076-.085a.053.053,0,0,1,.056.009c-.016-.012-.064-.035-.08-.074l.1.035c-.048-.089-.065-.011-.112-.073.033-.028-.015-.065.017-.08.016.013.031.064.064.076a.611.611,0,0,1-.106-.219c-.012.022-.042.041-.093,0-.126-.113-.006-.076-.062-.16-.051-.006-.108-.1-.154-.057-.036-.034-.022-.063-.024-.088-.079-.044-.311-.266-.281-.147l.015.017-.013-.006c-.272-.11-.44-.4-.708-.509ZM46,36.347l.009,0a.078.078,0,0,1-.034.017c-.049-.019-.058-.037-.058-.053Zm3.633,4.467s0,0,0,0l0-.022C49.627,40.8,49.63,40.807,49.633,40.814Z" transform="translate(-23.448 -25.707)"/><path class="d" d="M42.9,36.154l-.055.02-.051.047Z" transform="translate(-26.249 -26.277)"/><path class="e" d="M47.535,45.846c.06-.038.075-.126.1-.171-.006-.025-.005-.044.009-.053s.02.028.026.046c-.032-.063-.022-.267-.077-.212.016-.123-.045-.166-.017-.245-.072-.036.017-.146-.08-.15.1,0,.064-.154.012-.2.032.015.026-.049.07-.033-.008-.06-.033-.113-.082-.1.106-.123-.119-.213.026-.291a3.546,3.546,0,0,1-.166-.493c.1,0,.029.177.131.159-.057-.148-.151-.227-.143-.381.009-.041.045.018.063.029-.056-.148-.022-.3-.09-.426.009,0,.021.013.029.026-.006-.027.008-.064-.036-.056l.015.025c-.061.049-.147-.092-.182-.093.133.032.017-.138.188-.083a.06.06,0,0,0-.063-.029c.006-.027.022-.037.059-.014-.035-.093-.079-.054-.087-.141.022,0,.032.014.058.021-.047-.039-.094-.079-.083-.154.013,0,.029-.007.031.015-.02-.126-.135-.2-.109-.345.1.031.026-.051.106-.066l-.032-.072-.036.034c-.006-.065-.071-.116-.051-.175l.039.045-.029-.121-.023.073c-.049-.061-.1.018-.089-.071.01.016-.006-.066.038-.1h0c-.029-.029-.061-.059-.046-.11.025-.015.091,0,.108-.009-.072-.024-.036-.15-.112-.182a.1.1,0,0,0,.07,0l-.058-.021c.014-.032.022-.037.057-.036,0-.091-.1.04-.067-.073.005.008.013,0,.023.02.012-.111-.057-.2-.041-.307.079-.038.029.085.1.044a2.013,2.013,0,0,1-.126-.426l-.006.027c-.118-.007.046-.109-.016-.174.011.016.067.016.053.013a.867.867,0,0,0-.1-.331l.031.014a1.072,1.072,0,0,0,.007-.211c-.031-.015-.031-.05-.071-.024.149-.2-.129-.346-.006-.526,0,.019.031.044.03.029l-.042-.138c-.049.017-.029.022-.065.056a.117.117,0,0,1-.062-.087c.04.06.081-.009.106-.039-.014.006-.032,0-.048,0,.082-.083-.1,0-.053-.108l.027,0c-.018-.036-.056-.067-.052-.109.056-.022.031.037.079.035-.009-.057-.123-.1-.07-.158.019.022.023.057.042.079.063-.063.044-.068.051-.111v0l.021-.1-.016.026c-.159-.054-.043-.142-.153-.227.1.083.056.009.123.009.016-.026.033-.066.052-.057-.058-.04.034-.081-.051-.136.021,0,0-.049.051-.044-.023-.058-.036.017-.063.016-.082-.083.065-.223-.048-.343-.049-.1-.116-.122-.162-.2l0-.023c.03-.021.071.025.071.025a.151.151,0,0,0-.015-.153c.02.009.034,0,.056-.023-.01-.042-.081-.021-.055-.081a.325.325,0,0,1,.09.034c-.025-.049-.07-.094-.1-.145.036-.018.06.026.086.042-.023-.057-.05-.149-.111-.161l-.017.04c-.006-.021.049-.016.061,0,.051.046-.013.075-.034.081l-.018-.036c-.121.052.036.148.037.224l-.077-.018-.048-.456a.061.061,0,0,1,.006-.018c.007.006.017.046.006.033.027.026,0-.059.03-.034a.078.078,0,0,0,.027.094c-.015.012-.035,0-.049,0a.165.165,0,0,0,.169.034c-.073-.026-.045-.038-.132-.066-.011-.028.018-.054.045-.051-.007,0-.007-.011-.007-.018a.147.147,0,0,1,.021.03c-.009-.032-.015-.078,0-.068a.094.094,0,0,1,.01.039c.049.027.016-.085.061-.039a.148.148,0,0,0,.02.031c-.026.011-.046.016-.046.012.022.052.048.051.062.13,0-.048-.011-.144.021-.13l.012.016v.007c.007,0,.009,0,.008-.014s.018.008.024.005c.026.039.036.007.048,0-.033-.053-.016-.051-.054-.088,0,0,0,.008,0,.013a.012.012,0,0,0,0,.008l0-.005-.021.018c-.008-.032-.014-.059.013-.036l-.04-.092c.057.066.107.089.141.129.007-.049.055-.068-.007-.17,0-.018.029.018.044.029s0,.015.007.03c-.006-.035.034-.047-.02-.107.042.011.043.063.056.031l.015.021c.144.036-.09-.207.079-.158a.069.069,0,0,1-.029-.01c.107-.028.019-.161.151-.187.029-.014-.018-.033-.051-.057l.064.016-.067-.044c-.049-.041.174-.015.076-.079l-.044,0c.011-.013-.019-.048.031-.038-.008,0-.046-.011-.022-.013l.034,0c-.017-.014-.036-.028-.056-.041.026-.025.137.016.146-.028a.213.213,0,0,0-.123-.041c0,.006-.023.014-.057.014l-.017-.013h-.019v0a.778.778,0,0,0-.014-.138h0c0-.006,0-.011,0-.016a.072.072,0,0,1,.029,0c.042-.023-.034,0,.012-.027a.035.035,0,0,1,.016,0l-.029-.007c.019,0,.062-.017.051-.006.044-.038-.074-.021-.012-.049a.147.147,0,0,0-.093.008l0-.011.106-.049-.064.019s0-.012.029-.021c-.047,0-.026.012-.069.021.052-.039-.042-.029.053-.076-.049.016-.029.03-.069.029.1-.053-.027-.01.014-.046s.034.006.074-.033c-.093.038,0-.039-.02-.042a.075.075,0,0,1-.04.014.125.125,0,0,1,.04-.014l.037-.023a.509.509,0,0,0-.077.037c-.018,0-.014-.024-.038-.027.024-.014.012-.059.021-.1l.011-.007c-.067.046-.066.018-.09.018a.208.208,0,0,1,.076-.048l-.011-.012a.084.084,0,0,1-.049.018l.048-.037c-.018-.014-.08.016-.071-.031-.027.028-.062.074-.1.1l-.009-.007a.128.128,0,0,1,.034-.028c-.005,0-.024.013-.018,0l.042-.03c.007-.024-.034.027-.037.018.03-.031.016-.027.041-.051,0,0-.006.019.008.009a.116.116,0,0,1,.023-.069c-.016.019-.039.044-.048.042s.029-.044.034-.069c-.023.019-.014-.013-.055.037-.005,0,.013-.028.022-.043-.026.016-.046-.024-.077.039v0h0c-.061.033-.038-.068-.082-.063l.011-.019c-.029.012-.047-.007-.08.029-.005,0,0-.042.017-.064-.021.008-.031.029-.039-.011.029-.03.007-.033.026-.02-.012-.024-.006-.059-.047-.011.027-.049.008-.072-.008-.059l0,.043c-.013,0-.021,0-.029-.012l.027-.068c-.024-.1-.116.124-.117-.026-.021.048.017.039,0,.1-.016-.013-.021-.119-.028-.121-.025-.044-.041.1-.066.071a.228.228,0,0,1-.024.119.19.19,0,0,1,0-.131c.005,0,.007.007.006.016a.049.049,0,0,0,.011-.049l0,.026c-.008-.028-.037-.026-.029-.068a.041.041,0,0,0,0,.056c-.026-.039-.042,0-.07-.028.005.014.009.044.005.044-.041-.031-.016.05-.04.063-.017-.039,0-.094-.026-.06a.116.116,0,0,1,0-.09c-.021.051-.053-.027-.071-.034l.012-.022a.023.023,0,0,1-.022.015l.016.051c-.01-.008-.017-.007-.02-.029a1.073,1.073,0,0,1,.012.133c-.015-.024-.024.033-.042-.034.037.017-.018-.067.009-.084,0,.009-.011.01-.021,0a.028.028,0,0,1,0-.019c-.047-.052,0,.08-.031.087-.006-.039-.026-.07-.03-.06.014,0,.022.061.019.092-.028-.024-.016.028-.026.027l.016.011c.007.038,0,.036-.013.052-.011-.029.005-.024,0-.035.008.069-.056-.056-.061,0-.019-.021-.028-.067-.043-.081-.006.056-.048-.038-.058.013.03.044.025.032.03.086l.024-.053.006.081c.012,0,.011-.042.022-.036a.1.1,0,0,0,.023.069c-.046-.064-.01.056-.049.016l-.057-.117c-.057-.037-.019.085-.069.077l.023.013c.022.047-.017.019-.017.043a.246.246,0,0,0-.058-.065c.019.026-.027.016.021.088l-.048-.035c-.042,0,.047.118.017.126-.024-.042-.054-.056-.061-.095-.008.006-.021.007,0,.029-.022-.016.018.062-.016.039.01.017.04.05.03.055a.093.093,0,0,1-.015-.016c.014.016.009.032.049.06-.117-.071-.047.063-.151.011a.22.22,0,0,1-.014.073c-.01-.009-.018-.012-.012-.013-.049,0,.1.082.042.082-.068-.023-.024-.033-.051-.039-.124-.069,0,.041-.086.02l-.005-.009c-.051-.007.03.062.01.08a.128.128,0,0,0-.019-.009.231.231,0,0,1,.081.113c-.05-.026-.024-.021-.079-.035,0,.013.086.028.094.052a.562.562,0,0,1-.12-.012l0-.021c-.079-.014-.006.028-.022.034l-.033-.011c0,.037.086.058.071.089l.026,0c.079.034-.05.006.009.035l-.086-.009a.758.758,0,0,1,.09.077.373.373,0,0,1-.126-.071.05.05,0,0,0,.026.046s-.005-.006,0-.007c.064.024.1.044.095.067-.167-.012-.046.059-.174.081.063.044-.02.1,0,.154.126-.043.006.016.137-.014.01.009.009.014,0,.017h0l-.069.054c-.036.019-.032,0-.061,0,0,.031-.052.026-.081.056.045-.017.069-.008.056.014l.053-.041c.078.017-.1.068-.016.086h-.044c.031.013.029.08.136.052-.012.01-.043.03-.056.026.008.057.152.043.116.109l-.029.014c.013,0,.059-.02.039.007-.011.007-.029.016-.028.02s.062-.013.053.007l-.036.014c0,.067.116.005.158.016a.146.146,0,0,0-.064.141l-.01.009c.037.051.129.009.191.006-.036.106.065.1.085.173a.141.141,0,0,1,.048-.071h0c-.011.065-.007.143-.071.124.019.043.065.1.065.142-.108-.082-.022.143-.143.111.1.063.026.192.074.289-.008-.006-.024-.018-.018-.026-.014.051-.047.063-.07.093.085.016.1.1.144.147-.089.054-.1-.049-.177-.038.07,0,.057.117.118.1-.056.043-.029.039-.1.056.106.02.013.047.074.094-.06.064-.1.007-.077.088-.037.033-.067-.039-.067-.039-.01.078.075.046.12.067.013.1-.064.037-.109.064.015.061.084.113.076.156-.013,0-.019.009-.034,0,.057.069-.017.183.056.264a.067.067,0,0,1-.021.008.316.316,0,0,1,.112,0c0,.035.044.07-.01.078,0-.021-.017-.026-.033-.038l.019.039c-.079.025-.021-.053-.077-.059.017.074.071.164.044.217-.076,0-.011-.131-.085-.065l.038-.082c-.124.052.014-.051-.118,0-.033.109.024.129-.009.238.038.029.062,0,.1.028.058.166-.2.1-.113.232.046.035.139.057.08.134l-.081-.037c-.02.107.114.074.046.182-.031-.024-.019-.088-.031-.073-.074.066.042.058.036.114l-.076,0c0,.116.039.249.039.378-.021-.009-.042-.034-.068-.006a1.052,1.052,0,0,1-.106.493l.058.066a.026.026,0,0,1-.042.006c-.031.058.04.007.062.039a.032.032,0,0,1-.058.017.5.5,0,0,1,0,.421l-.017-.024c-.035.085.121.113.053.188l-.009-.017c-.048.188-.012.4-.124.538.089.037-.061.184.066.209-.075.1-.095.068-.154.216-.011.04.074.069.082.121l-.067-.006.063.076-.084.028.012.049a.054.054,0,0,1,.053-.033.163.163,0,0,1-.1.174l.039.181c-.027-.007-.033-.037-.048-.062.059.1-.072.009-.019.1.017-.01.039.01.053.014a.258.258,0,0,0-.047.209l-.044-.019c-.026.128-.007.276-.024.421a.06.06,0,0,1,.109.014l-.073.01c.041.032.031-.042.079.021-.014.053-.085.028-.105-.006l.018.069c-.022,0-.031-.015-.058-.022.041.032-.083.107-.011.154l-.022,0c-.016.145,0,.214-.007.332.061.009.042.054.088.094a1.045,1.045,0,0,0-.093.282c.022.077.049.027.083.064-.056,0-.062.1-.1.046a1.166,1.166,0,0,0,.022.326c.024-.015.037-.033.055-.021a.053.053,0,0,1-.057.056l0-.008a.233.233,0,0,1,0,.146c-.018.073-.048.16-.076.251a1.436,1.436,0,0,0,.121.209.158.158,0,0,0,.1.079l-.009,0,.141.076c.036.059-.059-.005-.054.056.174.064.151.2.283.266-.058.191.227.257.257.461l.02-.038c.067.022.033.076.06.122.014-.031-.022-.082.017-.068a4.063,4.063,0,0,1,.4.493l.338-.338.188-.189.108-.1c.08-.081-.115-.178.048-.229l.03.077c.078-.231.3-.358.384-.577,0,.021.021.035.007.051.072,0,.109-.129.083-.165C47.493,45.808,47.492,45.863,47.535,45.846Zm-.755-8.4.013.029c0,.011-.011,0-.018-.008a.048.048,0,0,0,.008-.013Zm.02,2.5a.216.216,0,0,1-.052.008l-.005-.048A.063.063,0,0,1,46.8,39.943ZM46.635,38.4l-.049.026-.006-.061A.11.11,0,0,1,46.635,38.4ZM46.6,38a.077.077,0,0,1-.057.015l-.007-.069Zm-.061-.568h0l0,0Zm.494-1.034-.01,0v0Zm-1.469,4.024v.038h0Zm-.006.126c.022,0,.043.005.041.02-.014-.01-.029.025-.05.046A.457.457,0,0,0,45.557,40.544Z" transform="translate(-27.045 -26.025)"/><rect class="f" width="4.491" height="3.369" rx="1.35" transform="translate(3.572 7.228)"/><path class="d" d="M26.671,33.137c.089-.116-.151-.209,0-.3-.051-.031-.036.063-.1.036.011-.048.111-.122.11-.143.033-.1-.114-.069-.1-.159a.094.094,0,0,1-.128-.013c0-.055.087-.1.117-.068.006.014,0,.023-.009.025.014.016.032.04.053.009h-.028c.021-.037-.011-.121.036-.114-.041-.039-.048,0-.048.032.009-.09-.043-.119-.059-.205-.007.019-.029.044-.034.032-.03-.121-.069-.022-.118-.082.007-.059.088-.041.012-.088-.009-.056.048-.051.078-.046-.085-.034-.07-.136-.1-.179l.045.017a.19.19,0,0,1-.057-.042l-.018.054c-.012-.024-.028-.038-.013-.054-.041.008-.046.076-.112.078,0-.043-.089-.036-.056-.1.065.079.034-.063.109-.017a.09.09,0,0,1-.049-.041c0-.008.012-.009.02-.008-.047-.11-.082.032-.166-.021.032-.026.017-.076,0-.077.036.023-.017.066-.062.074-.043-.056-.071-.01-.1-.027l.028.029c-.029.031-.052.01-.1.008.008-.029.043-.006.034-.024-.067.049-.076-.107-.156-.077-.024-.034.015-.072-.009-.1-.087.032-.077-.069-.168-.04.019.056.023.041-.038.089a.966.966,0,0,1,.136-.02l-.094.062c.037.006.085-.021.107-.008-.047.036-.039.024-.03.069-.039-.086-.1.029-.156-.024l.008-.129c-.1-.064-.147.064-.255.031l.033.022c-.014.052-.064.008-.1.028,0-.043-.018-.059-.033-.086,0,.032-.075,0-.084.083l-.046-.057c-.083-.023-.095.123-.175.109.024-.048-.012-.078.042-.112-.027,0-.051-.008-.051.022-.016-.027-.074.059-.1.017-.011.019-.015.064-.045.061a.044.044,0,0,1,0-.021c0,.021-.047.029-.021.077-.082-.135-.229.01-.3-.106a1.106,1.106,0,0,1-.181.032c0-.013,0-.022.01-.017-.073-.04-.045.124-.127.079-.042-.07.044-.038.017-.064-.012-.142-.1.019-.156-.064l.014-.008c-.043-.049-.1.054-.174.044a.044.044,0,0,0,0-.021.35.35,0,0,1-.205.117c.021-.056.031-.03.017-.086-.03.008.009.091-.051.107-.019-.031-.062-.058-.068-.118l.056,0c-.029-.078-.073,0-.1-.011l0-.034c-.087.011-.088.1-.181.091l.01.026c-.051.086-.043-.048-.094.016l-.016-.087a.793.793,0,0,1-.178.1c.034-.064.1-.1.149-.135a.193.193,0,0,0-.107.033c.007,0,.014-.006.02,0a.178.178,0,0,1-.161.1c.01-.167-.164-.044-.241-.167-.132.074-.288.019-.446.1.108.093-.042.024.027.14-.027.021-.039.027-.046.023h0a1.218,1.218,0,0,0-.137-.009c-.045-.016.013-.046-.006-.068-.078.041-.062-.026-.133-.019.039.032.016.071-.034.093a.684.684,0,0,1,.094,0c-.044.129-.159-.019-.2.124l0-.058c-.028.061-.161.189-.1.3-.019,0-.059,0-.052-.034-.1.131-.034.344-.118.437l-.03-.017c0,.03.053.058.015.087-.013,0-.031-.016-.034,0s.047.079.028.114l-.036-.034c-.052.157.088.191.108.3-.1,0-.128.092-.144.139h-.014c-.012.137.08.233.118.359-.1.079-.044.267-.1.394.018-.019.076,0,.085.026-.019.029.067.082-.021.077l0-.011c-.087.022-.064.083-.066.131l.116.008c-.169.125.062.327-.089.4.029.031.028.066.058.1h-.063a.541.541,0,0,0,.026.288l-.05-.017c.016.077.194.048.218.1l-.081.049c.039.114.035.274.179.327-.012.006-.036.019-.051,0,.028.052.106.224.181.118-.058.059.088.1.163.1l-.045.042c.092-.029.1-.044.177-.025.011.016-.012.05-.024.024.036.058.067-.025.114.033l-.042.024c.053.031.059.01.106-.018.043-.01.1.053.091.108.019-.029.062-.065.091-.041a.04.04,0,0,1-.023.036c.092.064.157-.041.218.022a.057.057,0,0,0,.009.037.376.376,0,0,1-.139-.024c-.011.056.059.076-.009.144.066-.03.169-.118.227-.091a.09.09,0,0,1,.007.02l-.006.006a.031.031,0,0,0,.034-.009.1.1,0,0,0,.046.017c.006.047.064.026.093.028,0-.062.034-.052,0-.1,0,0,0,.007-.024.01s-.009,0-.012.006l0-.006-.07,0c.022-.031.046-.058.076-.024l.039-.1c.038.086.112.132.122.186.086-.034.2-.023.256-.139.024-.015.028.033.038.051-.014.012-.031.01-.039.027.049-.03.144-.012.156-.092.061.036-.034.074.05.061l-.011.024c.166.129.269-.206.454-.04-.013-.011-.019-.015-.022-.029.21.073.433-.069.639.047.059.023.065-.028.1-.068l.013.066.061-.077c.088-.056.151.163.261.057l-.014-.044c.039.008.126-.026.119.025,0-.008.013-.046.029-.023v.034l.1-.059c.076.025-.012.137.1.144.041-.013.117-.1.1-.124a.058.058,0,0,1-.043-.057L25.4,35.7v-.019H25.4a1.031,1.031,0,0,0,.428-.094l0,.018.005-.022.047-.026c.005.013.009.027,0,.037.061.021.017-.046.074-.021a.012.012,0,0,1,.007.014l.022-.045c0,.02.041.05.011.053.1,0,.062-.128.128-.091v.009c.036-.058.016-.069-.006-.092a.061.061,0,0,0,.009-.039l.013-.012c.035.018.069.037.106.053l-.042-.053a.029.029,0,0,1,.045,0c-.007-.061-.027-.014-.044-.059.081,0,.06-.127.154-.081-.033-.043-.059.021-.06-.044.107.045.016-.063.081-.081.047.039,0,.069.067.046-.076-.069.061-.08.057-.131a.043.043,0,0,1-.031-.037c.022.014.031.026.031.037a.165.165,0,0,0,.043.009c.007-.011-.05-.034-.074-.046,0-.034.024-.084.016-.136.026.011.064-.123.092-.192l.014,0c-.079-.017-.065-.076-.081-.122a.1.1,0,0,1,.089.034v-.042a.073.073,0,0,1-.049-.051l.061.011c0-.057-.071-.114-.031-.187a1.326,1.326,0,0,1-.142.016v-.037c.019,0,.036.006.042.016,0-.007-.025-.024-.013-.037l.051.031c.022-.033-.042-.017-.038-.044.044,0,.031-.02.066-.016,0,.007-.018.023,0,.034a.121.121,0,0,1,.066-.078c-.024,0-.058,0-.064-.022,0-.057.052-.019.074-.053-.03-.014,0-.05-.064-.051,0-.016.031-.019.048-.026-.029-.029-.008-.138-.077-.1l0,.008,0,0c-.064-.1.037-.2.009-.3h.022c-.024-.058-.014-.127-.061-.168,0-.017.039-.04.066-.032-.016-.044-.041-.049,0-.112.038.044.034-.015.028.045.019-.056.054-.069-.006-.13.056.021.07-.042.053-.069l-.039.039a.186.186,0,0,1,0-.083Zm-3.842,2.779,0-.008a.129.129,0,0,1-.008.031c-.019.009-.025,0-.027-.016Zm3.125-1.588a.8.8,0,0,1,.032.157c-.013,0-.021,0-.017-.009-.041.064.124.039.079.111-.07.037-.038-.038-.064-.016-.142.013.019.089-.067.115l-.008-.009c-.05.019.045.072.022.118a.06.06,0,0,0-.021-.007.175.175,0,0,1,.045.181c-.039-.043-.014-.034-.067-.056,0,.022.083.04.071.089a.205.205,0,0,1-.126-.029l.02-.032c-.075-.031-.025.04-.051.046l-.024-.025c-.027.046.029.112-.029.148l.021.017c.017.094-.053-.022-.051.052l-.052-.069a.294.294,0,0,1-.081.141c.008-.069.041-.118.047-.164a.117.117,0,0,0-.051.058c0-.006.007-.009.013-.005,0,.074-.034.12-.086.127-.018-.164-.122-.031-.18-.163-.1.062-.2-.027-.321-.017.042.131-.034,0-.028.138-.026.008-.036.006-.039,0h0l-.084-.08c-.02-.039.026-.03.024-.06-.061-.01-.025-.057-.066-.092.009.048-.021.069-.056.051l.049.062c-.084.071-.073-.112-.158-.042l.027-.043c-.044.025-.162,0-.2.107-.008-.015-.018-.052,0-.062-.1-.016-.233.115-.314.049l.008-.033c-.02.009-.034.062-.059.029,0-.014.008-.033,0-.034s-.052.057-.077.038l.022-.037c-.1-.043-.157.09-.242.112a.155.155,0,0,0-.121-.144v-.014c-.119-.012-.2.08-.312.118-.068-.105-.231-.044-.341-.1.017.018,0,.076-.022.085-.026-.019-.071.067-.068-.021l.009,0c-.019-.087-.072-.064-.114-.066l-.007.116c-.12-.165-.257.058-.264-.106-.024.024-.043.015-.071.036l.025-.057a.23.23,0,0,0-.1-.068l.036-.029c-.017-.016-.144.113-.176.089l.06-.071c-.044-.047,0-.129-.1-.145.013,0,.038-.012.045-.006-.009-.027.032-.1-.089-.07.081-.018,0-.057-.039-.1l.062,0c-.079-.031-.1-.039-.122-.093.008-.014.049-.012.033.006.033-.044-.057-.034-.025-.088l.039.02c0-.045-.016-.042-.062-.067-.024-.029.016-.086.071-.093-.034-.006-.079-.031-.063-.058a.047.047,0,0,1,.04.011c.042-.076-.071-.113-.011-.166a.071.071,0,0,0,.036-.009.329.329,0,0,1-.009.1c.056,0,.066-.049.144-.01-.042-.039-.135-.106-.109-.154l.02-.006.006.005c.006-.011,0-.021-.009-.03a.082.082,0,0,0,.017-.039c.047-.006.026-.056.028-.081-.062,0-.052-.03-.1,0,0,0,.008,0,.01.021s0,.008.006.011l-.006,0,0,.061c-.031-.019-.057-.039-.024-.066l-.1-.034c.086-.034.132-.1.186-.107-.034-.074-.022-.175-.139-.222-.015-.021.033-.024.051-.032.012.012.01.027.027.033-.03-.042-.012-.125-.092-.135.036-.053.074.03.061-.043l.024.009c.129-.144-.206-.234-.04-.393-.011.011-.015.016-.029.019a.587.587,0,0,0,.013-.263.186.186,0,0,1,.106-.2c.041-.021,0-.052-.017-.1l.059.033a.573.573,0,0,1-.031-.083c.012-.1.182.046.182-.077l-.031-.033c.028-.01.073-.066.088-.018,0-.009-.008-.046.011-.029l.013.032a.455.455,0,0,1,.051-.078c.059.011.024.133.093.129.02-.016.07-.105.061-.128-.012,0-.032-.02-.036-.055l.031-.019v-.019h.388l0,.017.012-.017h.046c0,.012,0,.024-.013.029.036.045.032-.032.063.018a.014.014,0,0,1,0,.016l.035-.028c-.007.019.006.064-.016.051.063.053.1-.068.126,0l-.006.006c.066-.023.038-.049.047-.094h.041l.031.113.009-.067a.027.027,0,0,1,.023.034c.034-.046-.006-.029.014-.073.044.061.12-.029.13.078.016-.051-.042-.039.005-.075.013.115.054-.019.093.033-.012.059-.05.028-.01.081.024-.1.078.022.111,0a.043.043,0,0,1,.019-.042.066.066,0,0,1-.019.042.194.194,0,0,0,0,.043c.009,0,.013-.057.016-.085.025-.015.071,0,.109-.018,0,.027.106.044.158.073v.014c.01-.081.064-.066.1-.082a.109.109,0,0,1-.03.089h.037a.07.07,0,0,1,.044-.049l-.009.06c.049,0,.1-.071.162-.031,0-.038-.02-.1-.014-.141h.032a.054.054,0,0,1-.014.042c.006,0,.021-.025.032-.012l-.027.051c.029.023.015-.043.038-.038,0,.043.017.031.014.065-.006,0-.02-.017-.029,0a.109.109,0,0,1,.068.066c0-.024,0-.058.019-.064.049,0,.017.052.046.074.012-.03.043,0,.044-.064.014,0,.017.031.022.048.026-.029.119-.008.09-.078l-.006,0,0,0c.084-.064.174.036.256.009v.022c.049-.025.11-.015.145-.061.015,0,.034.039.028.065.038-.016.042-.041.1-.005-.038.038.013.034-.039.028.049.019.06.053.112-.006a.042.042,0,0,0,.061.054l-.034-.04a.112.112,0,0,1,.068,0l-.01.072c.049.087.161-.132.173.031.037-.041-.024-.047.011-.1.036.022.023.133.029.137.014.055.091-.073.118-.018.011-.024.046-.086.1-.076.028.038-.038.113-.068.114-.008,0-.006-.013,0-.019a.033.033,0,0,0-.041.029l.02-.017c0,.032.03.061-.009.083.033,0,.038-.021.035-.045,0,.057.045.051.048.1.009-.014.031-.036.034-.03.007.074.059,0,.092.041-.024.042-.089.03-.041.06-.016.035-.063.029-.086.029.061.017-.011.073-.017.089l-.024-.011a.023.023,0,0,1,.017.022l.049-.019c-.008.012-.006.021-.028.024.036.007.084-.022.134,0-.024.019.031.054-.037.061.021-.052-.069.007-.083-.031.009.006.009.016,0,.026a.025.025,0,0,1-.019,0c-.06.051.079.026.078.094-.039-.009-.074.017-.066.029,0-.029.065-.014.1.012-.031.046.022.05.019.074L25.956,33c.039.009.034.033.046.064-.031,0-.021-.029-.034-.018.069.036-.071.08-.025.129-.026.023-.073,0-.091.023.051.056-.054.06-.012.119.052-.017.039-.02.091.021l-.037-.1.076.062c0-.029-.033-.061-.024-.079.043.029.03.026.073.013-.078.04.046.079-.007.124h-.13c-.057.069.067.122.034.211l.022-.029c.051.013.007.056.028.084a.143.143,0,0,0-.086.027c.032,0,0,.066.084.074l-.058.04c-.023.072.124.082.109.151-.047-.021-.077.011-.111-.036,0,.023-.008.044.022.044-.028.014.058.064.017.086.019.009.064.013.061.039a.044.044,0,0,1-.021,0c.021,0,.029.041.077.018C25.924,34.139,26.069,34.267,25.953,34.329Zm-3.741-.389a.125.125,0,0,1,.031.006c.009.016,0,.021-.016.024a.136.136,0,0,0-.007-.028Zm.981-1.818h0Zm2.764,3.4s0-.007-.006-.01l.013-.008A.134.134,0,0,1,25.957,35.526Z" transform="translate(-18.199 -24.535)"/></g></g></svg>