<svg xmlns="http://www.w3.org/2000/svg" width="16" height="20.201" viewBox="0 0 16 20.201"><defs><style>.a{fill:#0068f5;}</style></defs><g transform="translate(-4.534 -1.834)"><path class="a" d="M17.512,1.834H7.556A3.025,3.025,0,0,0,4.534,4.856V19.013a3.025,3.025,0,0,0,3.022,3.022h9.957a3.024,3.024,0,0,0,3.022-3.022V4.856A3.025,3.025,0,0,0,17.512,1.834ZM18.52,19.013a1.008,1.008,0,0,1-1.007,1.007H7.556a1.008,1.008,0,0,1-1.007-1.007V4.856A1.009,1.009,0,0,1,7.556,3.848h9.957A1.008,1.008,0,0,1,18.52,4.856Z" transform="translate(0 0)"/><circle class="a" cx="1.922" cy="1.922" r="1.922" transform="translate(10.612 15.233)"/></g></svg>